<?xml version="1.0" encoding="UTF-8" standalone="no"?>
<svg
   xmlns:dc="http://purl.org/dc/elements/1.1/"
   xmlns:cc="http://creativecommons.org/ns#"
   xmlns:rdf="http://www.w3.org/1999/02/22-rdf-syntax-ns#"
   xmlns:svg="http://www.w3.org/2000/svg"
   xmlns="http://www.w3.org/2000/svg"
   xmlns:xlink="http://www.w3.org/1999/xlink"
   xmlns:sodipodi="http://sodipodi.sourceforge.net/DTD/sodipodi-0.dtd"
   xmlns:inkscape="http://www.inkscape.org/namespaces/inkscape"
   viewBox="0 0 450 300"
   width="1200"
   height="800"
   id="svg4192"
   version="1.1"
   inkscape:version="0.91 r13725"
   sodipodi:docname="logo.svg">
  <metadata
     id="metadata4227">
    <rdf:RDF>
      <cc:Work
         rdf:about="">
        <dc:format>image/svg+xml</dc:format>
        <dc:type
           rdf:resource="http://purl.org/dc/dcmitype/StillImage" />
        <dc:title></dc:title>
      </cc:Work>
    </rdf:RDF>
  </metadata>
  <defs
     id="defs4225">
    <linearGradient
       inkscape:collect="always"
       id="linearGradient5130">
      <stop
         style="stop-color:#ffffff;stop-opacity:1"
         offset="0"
         id="stop5132" />
      <stop
         style="stop-color:#ffffff;stop-opacity:0"
         offset="1"
         id="stop5134" />
    </linearGradient>
    <linearGradient
       inkscape:collect="always"
       id="linearGradient5120">
      <stop
         style="stop-color:#000000;stop-opacity:0.40306121"
         offset="0"
         id="stop5122" />
      <stop
         style="stop-color:#000000;stop-opacity:0"
         offset="1"
         id="stop5124" />
    </linearGradient>
    <linearGradient
       inkscape:collect="always"
       xlink:href="#linearGradient5120"
       id="linearGradient5126"
       x1="232.78821"
       y1="171.22554"
       x2="232.78821"
       y2="118.72554"
       gradientUnits="userSpaceOnUse" />
    <radialGradient
       inkscape:collect="always"
       xlink:href="#linearGradient5130"
       id="radialGradient5136"
       cx="267.63574"
       cy="100.77621"
       fx="267.63574"
       fy="100.77621"
       r="22.536057"
       gradientTransform="matrix(-1.7455297,2.9935515e-6,-1.0594282e-6,-0.92163899,699.9544,183.62419)"
       gradientUnits="userSpaceOnUse" />
    <linearGradient
       inkscape:collect="always"
       xlink:href="#linearGradient5120"
       id="linearGradient5150"
       gradientUnits="userSpaceOnUse"
       x1="232.78821"
       y1="171.22554"
       x2="232.78821"
       y2="118.72554"
       gradientTransform="matrix(0.39999999,0,0,0.39999999,139.67293,86.985348)" />
    <radialGradient
       inkscape:collect="always"
       xlink:href="#linearGradient5130"
       id="radialGradient5152"
       gradientUnits="userSpaceOnUse"
       gradientTransform="matrix(-0.69821186,1.1974206e-6,-4.2377127e-7,-0.36865559,419.65468,160.43502)"
       cx="267.63574"
       cy="100.77621"
       fx="267.63574"
       fy="100.77621"
       r="22.536057" />
  </defs>
  <sodipodi:namedview
     pagecolor="#ffffff"
     bordercolor="#666666"
     borderopacity="1"
     objecttolerance="10"
     gridtolerance="10"
     guidetolerance="10"
     inkscape:pageopacity="0"
     inkscape:pageshadow="2"
     inkscape:window-width="1920"
     inkscape:window-height="1017"
     id="namedview4223"
     showgrid="false"
     inkscape:snap-bbox="true"
     inkscape:bbox-paths="true"
     inkscape:bbox-nodes="true"
     inkscape:snap-bbox-edge-midpoints="true"
     inkscape:snap-bbox-midpoints="true"
     inkscape:snap-center="true"
     inkscape:zoom="0.73539105"
     inkscape:cx="708.39986"
     inkscape:cy="543.38198"
     inkscape:window-x="0"
     inkscape:window-y="27"
     inkscape:window-maximized="1"
     inkscape:current-layer="svg4192" />
  <g
     id="8"
     transform="translate(409.61538,259.61538)">
    <g
       id="4">
      <g
         id="2">
        <g
           id="1" />
        <use
           height="100%"
           width="100%"
           y="0"
           x="0"
           id="use4211"
           transform="matrix(0.96592583,0.25881905,-0.25881905,0.96592583,0,0)"
           xlink:href="#1" />
      </g>
      <use
         height="100%"
         width="100%"
         y="0"
         x="0"
         id="use4213"
         transform="matrix(0.8660254,0.5,-0.5,0.8660254,0,0)"
         xlink:href="#2" />
    </g>
    <use
       height="100%"
       width="100%"
       y="0"
       x="0"
       id="use4215"
       transform="matrix(0.5,0.8660254,-0.8660254,0.5,0,0)"
       xlink:href="#4" />
  </g>
  <use
     height="100%"
     width="100%"
     y="0"
     x="0"
     id="use4217"
     transform="matrix(-0.5,0.8660254,-0.8660254,-0.5,839.25658,34.685753)"
     xlink:href="#8" />
  <use
     height="100%"
     width="100%"
     y="0"
     x="0"
     id="use4219"
     transform="matrix(-0.5,-0.8660254,0.8660254,-0.5,389.58956,744.16039)"
     xlink:href="#8" />
  <circle
     style="opacity:1;fill:#ffccaa;fill-opacity:1;stroke:none;stroke-width:7.5;stroke-linecap:round;stroke-linejoin:round;stroke-miterlimit:4;stroke-dasharray:none;stroke-dashoffset:0;stroke-opacity:1"
     id="path4306"
     cx="89.710899"
     cy="150"
     r="56.249733" />
  <path
     style="opacity:0.2;fill:#000000"
     d="M 89.711196,93.750262 A 56.249731,56.249731 0 0 0 33.460917,149.99999 56.249731,56.249731 0 0 0 89.711196,206.24972 56.249731,56.249731 0 0 0 145.96091,149.99999 56.249731,56.249731 0 0 0 89.711196,93.750262 Z m 0,6.652738 a 49.596538,49.596538 0 0 1 3.461226,0.17304 3.024179,3.024179 0 0 0 2.617481,3.25028 3.024179,3.024179 0 0 0 3.373333,-2.49498 49.596538,49.596538 0 0 1 6.682944,1.82647 3.024179,3.024179 0 0 0 1.6875,3.81498 3.024179,3.024179 0 0 0 3.88529,-1.49797 49.596538,49.596538 0 0 1 6.02323,3.42332 3.024179,3.024179 0 0 0 0.62018,4.15336 3.024179,3.024179 0 0 0 4.15995,-0.46362 49.596538,49.596538 0 0 1 4.87681,4.91801 3.024179,3.024179 0 0 0 -0.44,4.14237 3.024179,3.024179 0 0 0 4.1292,0.63556 49.596538,49.596538 0 0 1 3.47111,5.99521 3.024179,3.024179 0 0 0 -1.52104,3.89847 3.024179,3.024179 0 0 0 3.80892,1.6875 49.596538,49.596538 0 0 1 1.80944,6.68515 3.024179,3.024179 0 0 0 -2.47189,3.37114 3.024179,3.024179 0 0 0 3.30025,2.61088 49.596538,49.596538 0 0 1 0.12251,3.46782 49.596538,49.596538 0 0 1 -0.17305,3.46178 3.024179,3.024179 0 0 0 -3.24971,2.61693 3.024179,3.024179 0 0 0 2.49498,3.37333 49.596538,49.596538 0 0 1 -1.82649,6.68296 3.024179,3.024179 0 0 0 -3.81496,1.68749 3.024179,3.024179 0 0 0 1.49795,3.8853 49.596538,49.596538 0 0 1 -3.42386,6.02322 3.024179,3.024179 0 0 0 -4.15336,0.62018 3.024179,3.024179 0 0 0 0.46362,4.1605 49.596538,49.596538 0 0 1 -4.91746,4.8768 3.024179,3.024179 0 0 0 -4.14292,-0.44 3.024179,3.024179 0 0 0 -0.63501,4.12865 49.596538,49.596538 0 0 1 -5.99521,3.47111 3.024179,3.024179 0 0 0 -3.89903,-1.52105 3.024179,3.024179 0 0 0 -1.68695,3.80895 49.596538,49.596538 0 0 1 -6.685141,1.80999 3.024179,3.024179 0 0 0 -3.371136,-2.47246 3.024179,3.024179 0 0 0 -2.611436,3.30027 49.596538,49.596538 0 0 1 -3.467271,0.12305 49.596538,49.596538 0 0 1 -3.461773,-0.17304 3.024179,3.024179 0 0 0 -2.61748,-3.25028 3.024179,3.024179 0 0 0 -3.373342,2.49497 49.596538,49.596538 0 0 1 -6.682948,-1.82647 3.024179,3.024179 0 0 0 -1.686944,-3.81498 3.024179,3.024179 0 0 0 -3.885844,1.49798 49.596538,49.596538 0 0 1 -6.023229,-3.42387 3.024179,3.024179 0 0 0 -0.620172,-4.15282 3.024179,3.024179 0 0 0 -4.159953,0.46363 49.596538,49.596538 0 0 1 -4.876807,-4.918 3.024179,3.024179 0 0 0 0.440001,-4.14293 3.024179,3.024179 0 0 0 -4.129196,-0.63501 49.596538,49.596538 0 0 1 -3.471111,-5.99521 3.024179,3.024179 0 0 0 1.521046,-3.89848 3.024179,3.024179 0 0 0 -3.80894,-1.68749 49.596538,49.596538 0 0 1 -1.809441,-6.68516 3.024179,3.024179 0 0 0 2.471913,-3.37113 3.024179,3.024179 0 0 0 -3.300277,-2.61089 49.596538,49.596538 0 0 1 -0.122496,-3.46782 49.596538,49.596538 0 0 1 0.173031,-3.46177 3.024179,3.024179 0 0 0 3.249742,-2.61693 3.024179,3.024179 0 0 0 -2.494983,-3.37334 49.596538,49.596538 0 0 1 1.826474,-6.68295 3.024179,3.024179 0 0 0 3.814977,-1.6875 3.024179,3.024179 0 0 0 -1.497976,-3.88528 49.596538,49.596538 0 0 1 3.423877,-6.02323 3.024179,3.024179 0 0 0 4.15336,-0.62073 3.024179,3.024179 0 0 0 -0.463625,-4.15995 49.596538,49.596538 0 0 1 4.917456,-4.87681 3.024179,3.024179 0 0 0 4.142928,0.44 3.024179,3.024179 0 0 0 0.635007,-4.12864 49.596538,49.596538 0 0 1 5.995209,-3.47112 3.024179,3.024179 0 0 0 3.899029,1.52105 3.024179,3.024179 0 0 0 1.686944,-3.80894 49.596538,49.596538 0 0 1 6.685146,-1.80999 3.024179,3.024179 0 0 0 3.371144,2.47246 3.024179,3.024179 0 0 0 2.611435,-3.30082 49.596538,49.596538 0 0 1 3.467818,-0.1225 z"
     id="circle4221"
     inkscape:connector-curvature="0" />
  <path
     style="opacity:0.2;fill:#000000"
     d="m 89.711196,100.40355 -1.698479,27.16577 a 22.49989,22.49989 0 0 1 1.697932,-0.0692 22.49989,22.49989 0 0 1 1.699574,0.0851 l -1.699027,-27.1817 z m -12.836916,1.68969 5.395362,26.6994 a 22.49989,22.49989 0 0 1 3.278857,-0.88934 L 76.87428,102.09324 Z m 25.67328,0 -8.673666,25.80896 a 22.49989,22.49989 0 0 1 3.278302,0.89154 l 5.395364,-26.7005 z m -37.635138,4.95481 12.12061,24.39118 a 22.49989,22.49989 0 0 1 2.941028,-1.70122 L 64.912422,107.04805 Z m 49.596998,0 -15.066585,22.69655 a 22.49989,22.49989 0 0 1 2.955305,1.67485 l 12.11128,-24.3714 z m -59.868612,7.8821 18.011997,20.4136 a 22.49989,22.49989 0 0 1 2.414231,-2.39061 L 54.640808,114.93015 Z m 70.140232,0 -20.4136,18.01145 a 22.49989,22.49989 0 0 1 2.39061,2.41479 l 18.02299,-20.42624 z m -78.021787,10.27162 22.696542,15.06604 a 22.49989,22.49989 0 0 1 1.674862,-2.95532 L 46.759253,125.20177 Z m 85.903327,0 -24.39117,12.12061 a 22.49989,22.49989 0 0 1 1.70122,2.94102 l 22.68995,-15.06163 z m -90.858141,11.96186 25.808413,8.67312 a 22.49989,22.49989 0 0 1 0.892083,-3.27776 l -26.700496,-5.39536 z m 95.812951,0 -26.69938,5.39481 a 22.49989,22.49989 0 0 1 0.88988,3.27885 l 25.8095,-8.67366 z m -70.321494,11.13788 -27.181693,1.69848 27.165763,1.69793 a 22.49989,22.49989 0 0 1 -0.06923,-1.69793 22.49989,22.49989 0 0 1 0.08514,-1.69848 z m 44.845974,5.6e-4 a 22.49989,22.49989 0 0 1 0.0687,1.69792 22.49989,22.49989 0 0 1 -0.0846,1.69848 l 27.1817,-1.69848 -27.16577,-1.69792 z m -44.527923,5.86062 -25.809508,8.67367 26.699401,-5.39481 a 22.49989,22.49989 0 0 1 -0.889893,-3.27886 z m 44.194493,5.6e-4 a 22.49989,22.49989 0 0 1 -0.89154,3.27775 l 26.70049,5.39536 -25.80895,-8.67311 z m -1.8424,5.56894 a 22.49989,22.49989 0 0 1 -1.67486,2.9553 l 24.3714,12.11073 -22.69654,-15.06603 z m -40.516837,0.005 -22.68995,15.06163 24.391182,-12.12061 a 22.49989,22.49989 0 0 1 -1.701232,-2.94102 z m 3.21459,4.90701 -18.022985,20.42624 20.413598,-18.01145 a 22.49989,22.49989 0 0 1 -2.390613,-2.41479 z m 34.105237,0.0126 a 22.49989,22.49989 0 0 1 -2.41423,2.39062 l 20.42624,18.02298 -18.01201,-20.4136 z m -4.38022,3.90452 a 22.49989,22.49989 0 0 1 -2.941032,1.70123 L 114.50942,192.952 102.38881,168.56082 Z m -25.365116,0.0198 -12.111272,24.37141 15.066581,-22.69655 a 22.49989,22.49989 0 0 1 -2.955309,-1.67486 z m 5.245948,2.62572 -5.395362,26.7005 8.673664,-25.80896 a 22.49989,22.49989 0 0 1 -3.278302,-0.89154 z m 14.882554,7.5e-4 a 22.49989,22.49989 0 0 1 -3.278849,0.88934 l 8.674213,25.81006 -5.395364,-26.6994 z m -9.140026,1.2074 1.699026,27.18169 1.697925,-27.16631 a 22.49989,22.49989 0 0 1 -1.698472,0.0697 22.49989,22.49989 0 0 1 -1.698479,-0.0851 z"
     id="path4298"
     inkscape:connector-curvature="0" />
  <g
     id="g5159"
     transform="matrix(0.72444092,-0.19411336,0.19411336,0.72444092,-107.07208,90.161045)">
    <circle
       r="75"
       cy="144.97559"
       cx="232.78818"
       id="path5118"
       style="opacity:1;fill:url(#linearGradient5126);fill-opacity:1;stroke:none;stroke-width:7.5;stroke-linecap:round;stroke-linejoin:round;stroke-miterlimit:4;stroke-dasharray:none;stroke-dashoffset:0;stroke-opacity:1" />
    <ellipse
       ry="20.770119"
       rx="39.337345"
       cy="90.745705"
       cx="232.78818"
       id="path5128"
       style="opacity:1;fill:url(#radialGradient5136);fill-opacity:1;stroke:none;stroke-width:7.5;stroke-linecap:round;stroke-linejoin:round;stroke-miterlimit:4;stroke-dasharray:none;stroke-dashoffset:0;stroke-opacity:0.40306121" />
  </g>
  <circle
     r="22.499893"
     cy="150"
     cx="89.710915"
     id="circle5138"
     style="opacity:1;fill:#ffccaa;fill-opacity:1;stroke:none;stroke-width:7.5;stroke-linecap:round;stroke-linejoin:round;stroke-miterlimit:4;stroke-dasharray:none;stroke-dashoffset:0;stroke-opacity:1" />
  <path
     style="color:#000000;font-style:normal;font-variant:normal;font-weight:normal;font-stretch:normal;font-size:medium;line-height:normal;font-family:sans-serif;text-indent:0;text-align:start;text-decoration:none;text-decoration-line:none;text-decoration-style:solid;text-decoration-color:#000000;letter-spacing:normal;word-spacing:normal;text-transform:none;direction:ltr;block-progression:tb;writing-mode:lr-tb;baseline-shift:baseline;text-anchor:start;white-space:normal;clip-rule:nonzero;display:inline;overflow:visible;visibility:visible;opacity:0.6;isolation:auto;mix-blend-mode:normal;color-interpolation:sRGB;color-interpolation-filters:linearRGB;solid-color:#000000;solid-opacity:1;fill:#000000;fill-opacity:1;fill-rule:nonzero;stroke:none;stroke-width:5.24998093;stroke-linecap:round;stroke-linejoin:miter;stroke-miterlimit:4;stroke-dasharray:none;stroke-dashoffset:0;stroke-opacity:1;color-rendering:auto;image-rendering:auto;shape-rendering:auto;text-rendering:auto;enable-background:accumulate"
     d="m 89.710386,130.31256 c -10.838565,0 -19.686866,8.81084 -19.686866,19.68778 0,10.87751 8.849163,19.68703 19.686866,19.68703 10.838574,0 19.687944,-8.8101 19.687944,-19.68703 0,-10.8775 -8.85023,-19.68778 -19.687944,-19.68778 z m 3.938172,3.14493 c 3.685475,0.86352 6.902452,2.91264 9.229092,5.72019 l -4.868913,0 c -1.09141,-2.16745 -2.54233,-4.12425 -4.360179,-5.72019 z m -8.651172,0.20052 c -1.635022,1.55272 -2.920456,3.43799 -3.879619,5.51967 l -4.574288,0 c 2.161872,-2.6091 5.092498,-4.56328 8.453907,-5.51967 z m 5.707796,0.87757 c 1.741949,1.22185 3.174112,2.81206 4.286604,4.6421 l -4.286604,0 0,-4.6421 z m -2.623495,0.0188 0,4.62332 -3.998216,0 c 1.018292,-1.83308 2.347316,-3.42011 3.998216,-4.62332 z m -13.364547,7.31499 5.3696,0 c -0.67394,2.1575 -1.052808,4.44301 -1.158032,6.72919 l -6.223853,0 c 0.197871,-2.422 0.903318,-4.70067 2.012285,-6.72919 z m 8.149387,0 5.21516,0 0,6.72919 -6.525449,0 c 0.118762,-2.3332 0.551195,-4.62734 1.310289,-6.72919 z m 7.838655,0 5.62984,0 c 0.849341,2.10387 1.351396,4.39686 1.500601,6.72919 l -7.130441,0 0,-6.72919 z m 8.440355,0 5.559203,0 c 1.109,2.02843 1.81439,4.30724 2.01227,6.72919 l -6.25167,0 c -0.13141,-2.29362 -0.571382,-4.57644 -1.319803,-6.72919 z m -26.450185,9.42088 6.235921,0 c 0.101534,2.2017 0.4463,4.38705 1.031395,6.4408 l -5.457822,0 c -1.00318,-1.95778 -1.636417,-4.13548 -1.809494,-6.4408 z m 8.861988,0 6.524347,0 0,6.4408 -5.336667,0 c -0.661895,-1.99232 -1.070898,-4.18559 -1.18768,-6.4408 z m 9.147842,0 7.146918,0 c -0.117329,2.23668 -0.560585,4.42688 -1.321651,6.4408 l -5.825267,0 0,-6.4408 z m 9.771868,0 6.24948,0 c -0.17311,2.30539 -0.80652,4.48291 -1.80988,6.4408 l -5.600924,0 c 0.672012,-2.0625 1.057514,-4.24489 1.161324,-6.4408 z m -24.253819,9.13248 4.6797,0 c 0.962418,2.29122 2.269032,4.31425 3.917314,5.86664 -3.455526,-1.0239 -6.445207,-3.10505 -8.597014,-5.86664 z m 7.634063,0 4.224393,0 0,5.02549 c -1.704847,-1.10908 -3.136643,-2.86929 -4.224393,-5.02549 z m 6.847888,0 4.551961,0 c -1.147225,1.97392 -2.667603,3.66566 -4.551961,4.91096 l 0,-4.91096 z m 7.534876,0 4.958582,0 c -2.37424,3.04685 -5.76839,5.26613 -9.682937,6.15016 2.012346,-1.66304 3.584608,-3.77955 4.724355,-6.15016 z"
     id="imagebot_10"
     inkscape:connector-curvature="0" />
  <g
     id="g5166"
     transform="matrix(0.72444092,-0.19411336,0.19411336,0.72444092,-107.07208,90.161045)">
    <circle
       style="opacity:1;fill:url(#linearGradient5150);fill-opacity:1;stroke:none;stroke-width:7.5;stroke-linecap:round;stroke-linejoin:round;stroke-miterlimit:4;stroke-dasharray:none;stroke-dashoffset:0;stroke-opacity:1"
       id="circle5146"
       cx="232.78819"
       cy="144.97559"
       r="30" />
    <ellipse
       style="opacity:1;fill:url(#radialGradient5152);fill-opacity:1;stroke:none;stroke-width:7.5;stroke-linecap:round;stroke-linejoin:round;stroke-miterlimit:4;stroke-dasharray:none;stroke-dashoffset:0;stroke-opacity:0.40306121"
       id="ellipse5148"
       cx="232.78819"
       cy="123.28363"
       rx="15.734938"
       ry="8.3080473" />
  </g>
  <g
     id="g5321">
    <circle
       style="opacity:1;fill:#ffccaa;fill-opacity:1;stroke:none;stroke-width:7.5;stroke-linecap:round;stroke-linejoin:round;stroke-miterlimit:4;stroke-dasharray:none;stroke-dashoffset:0;stroke-opacity:1"
       id="circle5185"
       cx="224.71161"
       cy="150"
       r="56.249733" />
    <path
       style="opacity:0.2;fill:#000000"
       d="m 224.71191,93.750262 a 56.249731,56.249731 0 0 0 -56.25028,56.249728 56.249731,56.249731 0 0 0 56.25028,56.24973 56.249731,56.249731 0 0 0 56.24971,-56.24973 56.249731,56.249731 0 0 0 -56.24971,-56.249728 z m 0,6.652738 a 49.596538,49.596538 0 0 1 3.46122,0.17303 3.024179,3.024179 0 0 0 2.61748,3.25029 3.024179,3.024179 0 0 0 3.37334,-2.49498 49.596538,49.596538 0 0 1 6.68295,1.82647 3.024179,3.024179 0 0 0 1.68749,3.81498 3.024179,3.024179 0 0 0 3.88529,-1.49798 49.596538,49.596538 0 0 1 6.02323,3.42333 3.024179,3.024179 0 0 0 0.62018,4.15336 3.024179,3.024179 0 0 0 4.15995,-0.46362 49.596538,49.596538 0 0 1 4.87681,4.91801 3.024179,3.024179 0 0 0 -0.44,4.14237 3.024179,3.024179 0 0 0 4.1292,0.63556 49.596538,49.596538 0 0 1 3.47111,5.99521 3.024179,3.024179 0 0 0 -1.52104,3.89847 3.024179,3.024179 0 0 0 3.80892,1.68749 49.596538,49.596538 0 0 1 1.80944,6.68516 3.024179,3.024179 0 0 0 -2.47189,3.37113 3.024179,3.024179 0 0 0 3.30025,2.61089 49.596538,49.596538 0 0 1 0.12251,3.46782 49.596538,49.596538 0 0 1 -0.17305,3.46178 3.024179,3.024179 0 0 0 -3.24971,2.61693 3.024179,3.024179 0 0 0 2.49498,3.37333 49.596538,49.596538 0 0 1 -1.82649,6.68296 3.024179,3.024179 0 0 0 -3.81496,1.68749 3.024179,3.024179 0 0 0 1.49795,3.88529 49.596538,49.596538 0 0 1 -3.42386,6.02323 3.024179,3.024179 0 0 0 -4.15336,0.62017 3.024179,3.024179 0 0 0 0.46362,4.1605 49.596538,49.596538 0 0 1 -4.91746,4.87681 3.024179,3.024179 0 0 0 -4.14292,-0.44 3.024179,3.024179 0 0 0 -0.635,4.12865 49.596538,49.596538 0 0 1 -5.99522,3.47111 3.024179,3.024179 0 0 0 -3.89903,-1.52105 3.024179,3.024179 0 0 0 -1.68694,3.80894 49.596538,49.596538 0 0 1 -6.68515,1.80999 3.024179,3.024179 0 0 0 -3.37114,-2.47246 3.024179,3.024179 0 0 0 -2.61143,3.30028 49.596538,49.596538 0 0 1 -3.46727,0.12304 49.596538,49.596538 0 0 1 -3.46178,-0.17303 3.024179,3.024179 0 0 0 -2.61748,-3.25029 3.024179,3.024179 0 0 0 -3.37334,2.49498 49.596538,49.596538 0 0 1 -6.68295,-1.82647 3.024179,3.024179 0 0 0 -1.68694,-3.81498 3.024179,3.024179 0 0 0 -3.88584,1.49798 49.596538,49.596538 0 0 1 -6.02323,-3.42388 3.024179,3.024179 0 0 0 -0.62018,-4.15281 3.024179,3.024179 0 0 0 -4.15995,0.46363 49.596538,49.596538 0 0 1 -4.8768,-4.91801 3.024179,3.024179 0 0 0 0.44,-4.14293 3.024179,3.024179 0 0 0 -4.1292,-0.635 49.596538,49.596538 0 0 1 -3.47111,-5.99521 3.024179,3.024179 0 0 0 1.52104,-3.89848 3.024179,3.024179 0 0 0 -3.80894,-1.68749 49.596538,49.596538 0 0 1 -1.80944,-6.68516 3.024179,3.024179 0 0 0 2.47192,-3.37113 3.024179,3.024179 0 0 0 -3.30028,-2.61089 49.596538,49.596538 0 0 1 -0.1225,-3.46782 49.596538,49.596538 0 0 1 0.17303,-3.46177 3.024179,3.024179 0 0 0 3.24975,-2.61694 3.024179,3.024179 0 0 0 -2.49499,-3.37333 49.596538,49.596538 0 0 1 1.82648,-6.68296 3.024179,3.024179 0 0 0 3.81497,-1.68749 3.024179,3.024179 0 0 0 -1.49797,-3.88529 49.596538,49.596538 0 0 1 3.42388,-6.02322 3.024179,3.024179 0 0 0 4.15336,-0.62073 3.024179,3.024179 0 0 0 -0.46363,-4.15995 49.596538,49.596538 0 0 1 4.91746,-4.87681 3.024179,3.024179 0 0 0 4.14292,0.44 3.024179,3.024179 0 0 0 0.63501,-4.12864 49.596538,49.596538 0 0 1 5.99521,-3.47112 3.024179,3.024179 0 0 0 3.89903,1.52105 3.024179,3.024179 0 0 0 1.68694,-3.80894 49.596538,49.596538 0 0 1 6.68515,-1.80999 3.024179,3.024179 0 0 0 3.37114,2.47246 3.024179,3.024179 0 0 0 2.61144,-3.30082 49.596538,49.596538 0 0 1 3.46782,-0.1225 z"
       id="path5187"
       inkscape:connector-curvature="0" />
    <path
       style="opacity:0.2;fill:#000000"
       d="m 224.71191,100.40355 -1.69848,27.16576 a 22.49989,22.49989 0 0 1 1.69793,-0.0692 22.49989,22.49989 0 0 1 1.69957,0.0851 l -1.69902,-27.1817 z m -12.83692,1.68969 5.39536,26.69939 a 22.49989,22.49989 0 0 1 3.27886,-0.88934 l -8.67422,-25.81005 z m 25.67328,0 -8.67367,25.80896 a 22.49989,22.49989 0 0 1 3.27831,0.89154 l 5.39536,-26.7005 z m -37.63514,4.95481 12.12061,24.39118 a 22.49989,22.49989 0 0 1 2.94103,-1.70123 l -15.06164,-22.68995 z m 49.597,0 -15.06658,22.69655 a 22.49989,22.49989 0 0 1 2.9553,1.67485 l 12.11128,-24.3714 z m -59.86861,7.8821 18.012,20.4136 a 22.49989,22.49989 0 0 1 2.41423,-2.39062 l -20.42623,-18.02298 z m 70.14023,0 -20.4136,18.01145 a 22.49989,22.49989 0 0 1 2.39061,2.41478 l 18.02299,-20.42623 z m -78.02179,10.27162 22.69655,15.06603 a 22.49989,22.49989 0 0 1 1.67486,-2.95531 l -24.37141,-12.11072 z m 85.90334,0 -24.39118,12.12061 a 22.49989,22.49989 0 0 1 1.70123,2.94102 l 22.68995,-15.06163 z m -90.85815,11.96186 25.80841,8.67311 a 22.49989,22.49989 0 0 1 0.89209,-3.27775 l -26.7005,-5.39536 z m 95.81295,0 -26.69938,5.3948 a 22.49989,22.49989 0 0 1 0.88988,3.27886 l 25.8095,-8.67366 z m -70.32149,11.13788 -27.1817,1.69848 27.16577,1.69793 a 22.49989,22.49989 0 0 1 -0.0692,-1.69793 22.49989,22.49989 0 0 1 0.0851,-1.69848 z m 44.84597,5.6e-4 a 22.49989,22.49989 0 0 1 0.0687,1.69792 22.49989,22.49989 0 0 1 -0.0846,1.69848 l 27.1817,-1.69848 -27.16577,-1.69792 z m -44.52792,5.86062 -25.80951,8.67367 26.6994,-5.39482 a 22.49989,22.49989 0 0 1 -0.88989,-3.27885 z m 44.19449,5.5e-4 a 22.49989,22.49989 0 0 1 -0.89154,3.27776 l 26.70049,5.39536 -25.80895,-8.67312 z m -1.8424,5.56894 a 22.49989,22.49989 0 0 1 -1.67486,2.95531 l 24.37141,12.11073 -22.69655,-15.06604 z m -40.51684,0.005 -22.68995,15.06164 24.39119,-12.12062 a 22.49989,22.49989 0 0 1 -1.70124,-2.94102 z m 3.21459,4.90702 -18.02298,20.42624 20.4136,-18.01145 a 22.49989,22.49989 0 0 1 -2.39062,-2.41479 z m 34.10524,0.0126 a 22.49989,22.49989 0 0 1 -2.41423,2.39061 l 20.42624,18.02299 -18.01201,-20.4136 z m -4.38022,3.90452 a 22.49989,22.49989 0 0 1 -2.94103,1.70122 l 15.06164,22.68996 -12.12061,-24.39118 z m -25.36512,0.0198 -12.11127,24.3714 15.06658,-22.69655 a 22.49989,22.49989 0 0 1 -2.95531,-1.67485 z m 5.24595,2.62572 -5.39536,26.7005 8.67366,-25.80896 a 22.49989,22.49989 0 0 1 -3.2783,-0.89154 z m 14.88256,7.5e-4 a 22.49989,22.49989 0 0 1 -3.27885,0.88934 l 8.67421,25.81006 -5.39536,-26.6994 z m -9.14003,1.2074 1.69903,27.18169 1.69792,-27.16631 a 22.49989,22.49989 0 0 1 -1.69847,0.0697 22.49989,22.49989 0 0 1 -1.69848,-0.0851 z"
       id="path5189"
       inkscape:connector-curvature="0" />
    <circle
       r="22.499893"
       cy="150"
       cx="224.71164"
       id="circle5197"
       style="opacity:1;fill:#ffccaa;fill-opacity:1;stroke:none;stroke-width:7.5;stroke-linecap:round;stroke-linejoin:round;stroke-miterlimit:4;stroke-dasharray:none;stroke-dashoffset:0;stroke-opacity:1" />
    <path
       style="color:#000000;font-style:normal;font-variant:normal;font-weight:normal;font-stretch:normal;font-size:medium;line-height:normal;font-family:sans-serif;text-indent:0;text-align:start;text-decoration:none;text-decoration-line:none;text-decoration-style:solid;text-decoration-color:#000000;letter-spacing:normal;word-spacing:normal;text-transform:none;direction:ltr;block-progression:tb;writing-mode:lr-tb;baseline-shift:baseline;text-anchor:start;white-space:normal;clip-rule:nonzero;display:inline;overflow:visible;visibility:visible;opacity:0.6;isolation:auto;mix-blend-mode:normal;color-interpolation:sRGB;color-interpolation-filters:linearRGB;solid-color:#000000;solid-opacity:1;fill:#000000;fill-opacity:1;fill-rule:nonzero;stroke:none;stroke-width:5.24998093;stroke-linecap:round;stroke-linejoin:miter;stroke-miterlimit:4;stroke-dasharray:none;stroke-dashoffset:0;stroke-opacity:1;color-rendering:auto;image-rendering:auto;shape-rendering:auto;text-rendering:auto;enable-background:accumulate"
       d="m 224.7111,130.31255 c -10.83857,0 -19.68687,8.81085 -19.68687,19.68779 0,10.87751 8.84916,19.68703 19.68687,19.68703 10.83857,0 19.68794,-8.8101 19.68794,-19.68703 0,-10.8775 -8.85023,-19.68779 -19.68794,-19.68779 z m 3.93817,3.14493 c 3.68547,0.86353 6.90245,2.91265 9.22909,5.7202 l -4.86891,0 c -1.09141,-2.16746 -2.54233,-4.12426 -4.36018,-5.7202 z m -8.65117,0.20053 c -1.63503,1.55272 -2.92046,3.43798 -3.87962,5.51967 l -4.57429,0 c 2.16187,-2.6091 5.0925,-4.56328 8.45391,-5.51967 z m 5.70779,0.87757 c 1.74195,1.22184 3.17411,2.81206 4.28661,4.6421 l -4.28661,0 0,-4.6421 z m -2.62349,0.0188 0,4.62332 -3.99822,0 c 1.01829,-1.83308 2.34732,-3.42011 3.99822,-4.62332 z m -13.36455,7.31499 5.3696,0 c -0.67394,2.1575 -1.05281,4.44301 -1.15803,6.72919 l -6.22385,0 c 0.19787,-2.422 0.90331,-4.70068 2.01228,-6.72919 z m 8.14939,0 5.21516,0 0,6.72919 -6.52545,0 c 0.11876,-2.3332 0.55119,-4.62734 1.31029,-6.72919 z m 7.83865,0 5.62984,0 c 0.84934,2.10387 1.3514,4.39685 1.5006,6.72919 l -7.13044,0 0,-6.72919 z m 8.44036,0 5.5592,0 c 1.109,2.02843 1.81439,4.30724 2.01227,6.72919 l -6.25167,0 c -0.13141,-2.29362 -0.57138,-4.57645 -1.3198,-6.72919 z m -26.45019,9.42088 6.23592,0 c 0.10154,2.2017 0.4463,4.38705 1.0314,6.44079 l -5.45782,0 c -1.00318,-1.95777 -1.63642,-4.13548 -1.8095,-6.44079 z m 8.86199,0 6.52435,0 0,6.44079 -5.33667,0 c -0.66189,-1.99232 -1.0709,-4.18558 -1.18768,-6.44079 z m 9.14784,0 7.14692,0 c -0.11733,2.23667 -0.56058,4.42688 -1.32165,6.44079 l -5.82527,0 0,-6.44079 z m 9.77187,0 6.24948,0 c -0.17311,2.30539 -0.80652,4.48291 -1.80988,6.44079 l -5.60092,0 c 0.67201,-2.06249 1.05751,-4.24489 1.16132,-6.44079 z m -24.25382,9.13248 4.6797,0 c 0.96242,2.29121 2.26903,4.31425 3.91732,5.86663 -3.45553,-1.02389 -6.44521,-3.10504 -8.59702,-5.86663 z m 7.63406,0 4.2244,0 0,5.02548 c -1.70485,-1.10907 -3.13665,-2.86928 -4.2244,-5.02548 z m 6.84789,0 4.55196,0 c -1.14722,1.97391 -2.6676,3.66566 -4.55196,4.91096 l 0,-4.91096 z m 7.53488,0 4.95858,0 c -2.37424,3.04685 -5.76839,5.26613 -9.68294,6.15016 2.01235,-1.66304 3.58461,-3.77955 4.72436,-6.15016 z"
       id="path5199"
       inkscape:connector-curvature="0" />
  </g>
  <g
     id="g5276"
     transform="matrix(0.74999643,0,0,0.74999643,38.007336,49.38177)">
    <path
       inkscape:connector-curvature="0"
       id="path5219"
       d="m 428.94241,59.158276 a 74.999998,74.999998 0 0 0 -75.00073,74.999994 74.999998,74.999998 0 0 0 75.00073,75 74.999998,74.999998 0 0 0 74.99998,-75 74.999998,74.999998 0 0 0 -74.99998,-74.999994 z m 0,8.870363 a 66.129032,66.129032 0 0 1 4.61499,0.230711 4.0322579,4.0322579 0 0 0 3.48999,4.33374 4.0322579,4.0322579 0 0 0 4.4978,-3.326659 66.129032,66.129032 0 0 1 8.91064,2.435302 4.0322579,4.0322579 0 0 0 2.25,5.086669 4.0322579,4.0322579 0 0 0 5.18042,-1.997314 66.129032,66.129032 0 0 1 8.03101,4.564455 4.0322579,4.0322579 0 0 0 0.82691,5.537843 4.0322579,4.0322579 0 0 0 5.54662,-0.618165 66.129032,66.129032 0 0 1 6.50245,6.557372 4.0322579,4.0322579 0 0 0 -0.58667,5.52319 4.0322579,4.0322579 0 0 0 5.50563,0.84742 66.129032,66.129032 0 0 1 4.62817,7.993647 4.0322579,4.0322579 0 0 0 -2.02807,5.19799 4.0322579,4.0322579 0 0 0 5.07858,2.25 66.129032,66.129032 0 0 1 2.4126,8.91358 4.0322579,4.0322579 0 0 0 -3.29587,4.49487 4.0322579,4.0322579 0 0 0 4.40036,3.4812 66.129032,66.129032 0 0 1 0.16335,4.62378 66.129032,66.129032 0 0 1 -0.23074,4.61573 4.0322579,4.0322579 0 0 0 -4.33297,3.48925 4.0322579,4.0322579 0 0 0 3.32666,4.4978 66.129032,66.129032 0 0 1 -2.43533,8.91065 4.0322579,4.0322579 0 0 0 -5.08664,2.25 4.0322579,4.0322579 0 0 0 1.99728,5.18042 66.129032,66.129032 0 0 1 -4.56517,8.031 4.0322579,4.0322579 0 0 0 -5.53784,0.82691 4.0322579,4.0322579 0 0 0 0.61816,5.54736 66.129032,66.129032 0 0 1 -6.55664,6.50244 4.0322579,4.0322579 0 0 0 -5.52392,-0.58667 4.0322579,4.0322579 0 0 0 -0.84668,5.50489 66.129032,66.129032 0 0 1 -7.99366,4.62817 4.0322579,4.0322579 0 0 0 -5.19873,-2.02808 4.0322579,4.0322579 0 0 0 -2.24927,5.07862 66.129032,66.129032 0 0 1 -8.91357,2.41333 4.0322579,4.0322579 0 0 0 -4.49487,-3.29663 4.0322579,4.0322579 0 0 0 -3.48193,4.40039 66.129032,66.129032 0 0 1 -4.62305,0.16406 66.129032,66.129032 0 0 1 -4.61572,-0.23071 4.0322579,4.0322579 0 0 0 -3.48999,-4.33374 4.0322579,4.0322579 0 0 0 -4.49781,3.32665 66.129032,66.129032 0 0 1 -8.91064,-2.4353 4.0322579,4.0322579 0 0 0 -2.24927,-5.08667 4.0322579,4.0322579 0 0 0 -5.18115,1.99732 66.129032,66.129032 0 0 1 -8.03101,-4.56519 4.0322579,4.0322579 0 0 0 -0.8269,-5.53711 4.0322579,4.0322579 0 0 0 -5.54663,0.61817 66.129032,66.129032 0 0 1 -6.50244,-6.55737 4.0322579,4.0322579 0 0 0 0.58667,-5.52393 4.0322579,4.0322579 0 0 0 -5.50562,-0.84668 66.129032,66.129032 0 0 1 -4.62817,-7.99365 4.0322579,4.0322579 0 0 0 2.02807,-5.198 4.0322579,4.0322579 0 0 0 -5.07861,-2.25 66.129032,66.129032 0 0 1 -2.4126,-8.91358 4.0322579,4.0322579 0 0 0 3.2959,-4.49487 4.0322579,4.0322579 0 0 0 -4.40039,-3.4812 66.129032,66.129032 0 0 1 -0.16333,-4.62378 66.129032,66.129032 0 0 1 0.23071,-4.61572 4.0322579,4.0322579 0 0 0 4.33301,-3.48926 4.0322579,4.0322579 0 0 0 -3.32666,-4.4978 66.129032,66.129032 0 0 1 2.43531,-8.91065 4.0322579,4.0322579 0 0 0 5.08666,-2.25 4.0322579,4.0322579 0 0 0 -1.99731,-5.18041 66.129032,66.129032 0 0 1 4.56519,-8.031007 4.0322579,4.0322579 0 0 0 5.53784,-0.82764 4.0322579,4.0322579 0 0 0 -0.61817,-5.54663 66.129032,66.129032 0 0 1 6.55664,-6.50244 4.0322579,4.0322579 0 0 0 5.52393,0.586673 4.0322579,4.0322579 0 0 0 0.84668,-5.504884 66.129032,66.129032 0 0 1 7.99365,-4.628175 4.0322579,4.0322579 0 0 0 5.19873,2.028075 4.0322579,4.0322579 0 0 0 2.24927,-5.07861 66.129032,66.129032 0 0 1 8.91357,-2.413331 4.0322579,4.0322579 0 0 0 4.49488,3.296629 4.0322579,4.0322579 0 0 0 3.48193,-4.40112 66.129032,66.129032 0 0 1 4.62378,-0.163331 z"
       style="opacity:1;fill:#000000" />
    <path
       inkscape:connector-curvature="0"
       id="path5221"
       d="m 428.94241,68.02937 -2.26465,36.22119 a 29.999996,29.999996 0 0 1 2.26392,-0.0923 29.999996,29.999996 0 0 1 2.26611,0.11353 l -2.26538,-36.24243 z m -17.11597,2.252928 7.19385,35.599362 a 29.999996,29.999996 0 0 1 4.37183,-1.18579 L 411.82644,70.282298 Z m 34.2312,0 -11.56494,34.412112 a 29.999996,29.999996 0 0 1 4.37109,1.18872 l 7.19385,-35.600832 z m -50.18042,6.606447 16.16089,32.521725 a 29.999996,29.999996 0 0 1 3.92139,-2.26831 L 395.87722,76.888745 Z m 66.12964,0 -20.08887,30.262205 a 29.999996,29.999996 0 0 1 3.94043,2.23315 l 16.14844,-32.495355 z m -79.82519,10.509521 24.01611,27.218254 a 29.999996,29.999996 0 0 1 3.21899,-3.1875 l -27.2351,-24.030754 z m 93.52075,0 -27.21826,24.015374 a 29.999996,29.999996 0 0 1 3.1875,3.21973 l 24.03076,-27.235104 z m -104.02954,13.695554 30.2622,20.08814 a 29.999996,29.999996 0 0 1 2.23316,-3.94044 l -32.49536,-16.1477 z m 114.53832,0 -32.52172,16.16089 a 29.999996,29.999996 0 0 1 2.26831,3.92138 l 30.25341,-20.08227 z m -121.14477,15.94922 34.41138,11.56421 a 29.999996,29.999996 0 0 1 1.18945,-4.37036 l -35.60083,-7.19385 z m 127.75121,0 -35.59935,7.19311 a 29.999996,29.999996 0 0 1 1.18652,4.37183 l 34.41283,-11.56494 z m -93.76244,14.85058 -36.24243,2.26465 36.22119,2.26392 a 29.999996,29.999996 0 0 1 -0.0923,-2.26392 29.999996,29.999996 0 0 1 0.11352,-2.26465 z m 59.79492,7.4e-4 a 29.999996,29.999996 0 0 1 0.0916,2.26391 29.999996,29.999996 0 0 1 -0.1128,2.26465 l 36.24244,-2.26465 -36.2212,-2.26391 z m -59.37085,7.8142 -34.41284,11.56495 35.59937,-7.19312 a 29.999996,29.999996 0 0 1 -1.18653,-4.37183 z m 58.92627,7.4e-4 a 29.999996,29.999996 0 0 1 -1.18872,4.37036 l 35.60082,7.19385 -34.4121,-11.56421 z m -2.45654,7.42529 a 29.999996,29.999996 0 0 1 -2.23316,3.94043 l 32.49536,16.14771 -30.2622,-20.08814 z m -54.02271,0.006 -30.25341,20.08228 32.52173,-16.1609 a 29.999996,29.999996 0 0 1 -2.26832,-3.92138 z m 4.28614,6.54272 -24.03076,27.23511 27.21826,-24.01538 a 29.999996,29.999996 0 0 1 -3.1875,-3.21973 z m 45.47387,0.0168 a 29.999996,29.999996 0 0 1 -3.21899,3.1875 l 27.23511,24.03076 -24.01612,-27.21826 z m -5.84033,5.20605 a 29.999996,29.999996 0 0 1 -3.92139,2.26831 l 20.08228,30.25342 -16.16089,-32.52173 z m -33.82031,0.0264 -16.14844,32.49536 20.08887,-30.26221 a 29.999996,29.999996 0 0 1 -3.94043,-2.23315 z m 6.99463,3.50098 -7.19385,35.60083 11.56494,-34.41211 a 29.999996,29.999996 0 0 1 -4.37109,-1.18872 z m 19.8435,0.001 a 29.999996,29.999996 0 0 1 -4.37182,1.18579 l 11.56567,34.41358 -7.19385,-35.59937 z m -12.18676,1.60987 2.26538,36.24243 2.26391,-36.22192 a 29.999996,29.999996 0 0 1 -2.26464,0.093 29.999996,29.999996 0 0 1 -2.26465,-0.11352 z"
       style="opacity:1;fill:#000000" />
    <path
       inkscape:connector-curvature="0"
       id="path5231"
       d="m 428.94133,107.90823 c -14.45149,0 -26.24928,11.74785 -26.24928,26.25051 0,14.50341 11.79894,26.24949 26.24928,26.24949 14.4515,0 26.25072,-11.74685 26.25072,-26.24949 0,-14.50341 -11.80037,-26.25051 -26.25072,-26.25051 z m 5.25092,4.19326 c 4.91399,1.15137 9.20331,3.88355 12.30551,7.62696 l -6.49191,0 c -1.45522,-2.88995 -3.38979,-5.49903 -5.8136,-7.62696 z m -11.53495,0.26737 c -2.18004,2.0703 -3.89396,4.584 -5.17285,7.35959 l -6.09908,0 c 2.88251,-3.47881 6.79003,-6.0844 11.27193,-7.35959 z m 7.61043,1.1701 c 2.32261,1.62913 4.23217,3.74943 5.7155,6.18949 l -5.7155,0 0,-6.18949 z m -3.49801,0.0251 0,6.16446 -5.33098,0 c 1.35773,-2.44412 3.12977,-4.56017 5.33098,-6.16446 z m -17.81948,9.75337 7.1595,0 c -0.89859,2.87668 -1.40375,5.92404 -1.54405,8.9723 l -8.29851,0 c 0.26383,-3.22935 1.20443,-6.2676 2.68306,-8.9723 z m 10.8659,0 6.95358,0 0,8.9723 -8.70064,0 c 0.15835,-3.11095 0.73493,-6.16982 1.74706,-8.9723 z m 10.45159,0 7.50649,0 c 1.13246,2.80517 1.80187,5.8625 2.00081,8.9723 l -9.5073,0 0,-8.9723 z m 11.25386,0 7.4123,0 c 1.47868,2.70459 2.4192,5.74301 2.68304,8.9723 l -8.33559,0 c -0.17522,-3.05818 -0.76185,-6.10196 -1.75975,-8.9723 z m -35.26708,12.56123 8.3146,0 c 0.13538,2.93562 0.59507,5.84943 1.3752,8.58777 l -7.27713,0 c -1.33758,-2.61038 -2.1819,-5.514 -2.41267,-8.58777 z m 11.81604,0 8.69917,0 0,8.58777 -7.11559,0 c -0.88253,-2.65644 -1.42787,-5.58081 -1.58358,-8.58777 z m 12.19718,0 9.52927,0 c -0.15644,2.98225 -0.74745,5.90254 -1.76221,8.58777 l -7.76706,0 0,-8.58777 z m 13.02922,0 8.33268,0 c -0.23082,3.07387 -1.07537,5.97725 -2.41318,8.58777 l -7.46794,0 c 0.89602,-2.75001 1.41003,-5.65988 1.54844,-8.58777 z m -32.33858,12.1767 6.23963,0 c 1.28323,3.05497 3.02539,5.75236 5.22311,7.82222 -4.60739,-1.3652 -8.59365,-4.14008 -11.46274,-7.82222 z m 10.1788,0 5.63255,0 0,6.70068 c -2.27314,-1.47877 -4.18221,-3.82573 -5.63255,-6.70068 z m 9.13056,0 6.06931,0 c -1.52964,2.6319 -3.55682,4.88757 -6.06931,6.54798 l 0,-6.54798 z m 10.04655,0 6.61147,0 c -3.16566,4.06249 -7.69122,7.02154 -12.91064,8.20025 2.68314,-2.21739 4.7795,-5.03942 6.29917,-8.20025 z"
       style="color:#000000;font-style:normal;font-variant:normal;font-weight:normal;font-stretch:normal;font-size:medium;line-height:normal;font-family:sans-serif;text-indent:0;text-align:start;text-decoration:none;text-decoration-line:none;text-decoration-style:solid;text-decoration-color:#000000;letter-spacing:normal;word-spacing:normal;text-transform:none;direction:ltr;block-progression:tb;writing-mode:lr-tb;baseline-shift:baseline;text-anchor:start;white-space:normal;clip-rule:nonzero;display:inline;overflow:visible;visibility:visible;opacity:1;isolation:auto;mix-blend-mode:normal;color-interpolation:sRGB;color-interpolation-filters:linearRGB;solid-color:#000000;solid-opacity:1;fill:#000000;fill-opacity:1;fill-rule:nonzero;stroke:none;stroke-width:5.24998093;stroke-linecap:round;stroke-linejoin:miter;stroke-miterlimit:4;stroke-dasharray:none;stroke-dashoffset:0;stroke-opacity:1;color-rendering:auto;image-rendering:auto;shape-rendering:auto;text-rendering:auto;enable-background:accumulate" />
  </g>
  <text
     xml:space="preserve"
     style="font-style:normal;font-variant:normal;font-weight:normal;font-stretch:normal;font-size:9px;line-height:100%;font-family:'Open Sans';-inkscape-font-specification:'Open Sans';text-align:start;letter-spacing:0px;word-spacing:0px;text-anchor:start;fill:#000000;fill-opacity:1;stroke:none;stroke-width:1px;stroke-linecap:butt;stroke-linejoin:miter;stroke-opacity:1;"
     x="45.384018"
     y="229.62927"
     id="text5328"
     sodipodi:linespacing="100%"><tspan
       sodipodi:role="line"
       id="tspan5330"
       x="45.384018"
       y="229.62927" /></text>
  <text
     xml:space="preserve"
     style="font-style:normal;font-variant:normal;font-weight:normal;font-stretch:normal;font-size:9px;line-height:100%;font-family:'One Starry Night';-inkscape-font-specification:'One Starry Night';text-align:start;letter-spacing:0px;word-spacing:0px;text-anchor:start;fill:#000000;fill-opacity:1;stroke:none;stroke-width:1px;stroke-linecap:butt;stroke-linejoin:miter;stroke-opacity:1"
     x="69.562805"
     y="219.43062"
     id="text5332"
     sodipodi:linespacing="100%"><tspan
       sodipodi:role="line"
       id="tspan5334"
       x="69.562805"
       y="219.43062"
       style="font-style:normal;font-variant:normal;font-weight:normal;font-stretch:normal;font-family:'Open Sans';-inkscape-font-specification:'Open Sans'">Full color</tspan></text>
  <text
     sodipodi:linespacing="100%"
     id="text5336"
     y="219.43062"
     x="189.56281"
     style="font-style:normal;font-variant:normal;font-weight:normal;font-stretch:normal;font-size:9px;line-height:100%;font-family:'One Starry Night';-inkscape-font-specification:'One Starry Night';text-align:start;letter-spacing:0px;word-spacing:0px;text-anchor:start;fill:#000000;fill-opacity:1;stroke:none;stroke-width:1px;stroke-linecap:butt;stroke-linejoin:miter;stroke-opacity:1"
     xml:space="preserve"><tspan
       style="font-style:normal;font-variant:normal;font-weight:normal;font-stretch:normal;font-family:'Open Sans';-inkscape-font-specification:'Open Sans'"
       y="219.43062"
       x="189.56281"
       id="tspan5338"
       sodipodi:role="line">Solid colors only</tspan></text>
  <text
     xml:space="preserve"
     style="font-style:normal;font-variant:normal;font-weight:normal;font-stretch:normal;font-size:9px;line-height:100%;font-family:'One Starry Night';-inkscape-font-specification:'One Starry Night';text-align:start;letter-spacing:0px;word-spacing:0px;text-anchor:start;fill:#000000;fill-opacity:1;stroke:none;stroke-width:1px;stroke-linecap:butt;stroke-linejoin:miter;stroke-opacity:1"
     x="339.56281"
     y="219.43062"
     id="text5340"
     sodipodi:linespacing="100%"><tspan
       sodipodi:role="line"
       id="tspan5342"
       x="339.56281"
       y="219.43062"
       style="font-style:normal;font-variant:normal;font-weight:normal;font-stretch:normal;font-family:'Open Sans';-inkscape-font-specification:'Open Sans'">Two color</tspan></text>
</svg>
