<?xml version="1.0" encoding="UTF-8" standalone="no"?>
<!-- Created with Inkscape (http://www.inkscape.org/) -->

<svg
   xmlns:dc="http://purl.org/dc/elements/1.1/"
   xmlns:cc="http://creativecommons.org/ns#"
   xmlns:rdf="http://www.w3.org/1999/02/22-rdf-syntax-ns#"
   xmlns:svg="http://www.w3.org/2000/svg"
   xmlns="http://www.w3.org/2000/svg"
   xmlns:sodipodi="http://sodipodi.sourceforge.net/DTD/sodipodi-0.dtd"
   xmlns:inkscape="http://www.inkscape.org/namespaces/inkscape"
   width="665"
   height="641"
   id="svg2"
   version="1.1"
   inkscape:version="0.91 r13725"
   sodipodi:docname="netneutrality-logo.svg"
   inkscape:export-filename="C:\Users\Camus\Desktop\netneutrality modern template.png"
   inkscape:export-xdpi="90"
   inkscape:export-ydpi="90">
  <defs
     id="defs4" />
  <sodipodi:namedview
     id="base"
     pagecolor="#ffffff"
     bordercolor="#666666"
     borderopacity="1.0"
     inkscape:pageopacity="0.0"
     inkscape:pageshadow="2"
     inkscape:zoom="0.5"
     inkscape:cx="687.06547"
     inkscape:cy="492.91845"
     inkscape:document-units="px"
     inkscape:current-layer="layer1"
     showgrid="false"
     inkscape:window-width="1920"
     inkscape:window-height="1017"
     inkscape:window-x="0"
     inkscape:window-y="27"
     inkscape:window-maximized="1"
     fit-margin-top="0"
     fit-margin-left="0"
     fit-margin-right="0"
     fit-margin-bottom="0">
    <inkscape:grid
       type="xygrid"
       id="grid20791"
       empspacing="5"
       visible="true"
       enabled="true"
       snapvisiblegridlinesonly="true"
       originx="-25.5px"
       originy="-101.48718px" />
  </sodipodi:namedview>
  <metadata
     id="metadata7">
    <rdf:RDF>
      <cc:Work
         rdf:about="">
        <dc:format>image/svg+xml</dc:format>
        <dc:type
           rdf:resource="http://purl.org/dc/dcmitype/StillImage" />
        <dc:title />
      </cc:Work>
    </rdf:RDF>
  </metadata>
  <g
     inkscape:label="Layer 1"
     inkscape:groupmode="layer"
     id="layer1"
     transform="translate(-25.5,-309.875)">
    <circle
       style="fill:#000000;stroke:#ffffff;stroke-width:20;stroke-linecap:round;stroke-miterlimit:4;stroke-dasharray:none;stroke-dashoffset:0;stroke-opacity:1"
       id="path20949"
       cx="355.06955"
       cy="630.83289"
       r="327.78772" />
    <path
       style="fill:#ff6600;fill-opacity:1;stroke:none;stroke-width:0.74889398px;stroke-linecap:butt;stroke-linejoin:miter;stroke-opacity:1"
       d="M 329.5332 44.001953 A 37.444698 37.444698 0 0 0 292.08984 81.447266 A 37.444698 37.444698 0 0 0 321.29688 117.92773 L 321.29688 136.61719 L 321.29688 156.32227 L 385 220.77539 L 385 332.40625 C 328.93779 273.81809 214.25195 161.82227 214.25195 161.82227 L 214.25195 313.47461 L 128.50977 313.47461 A 37.444698 37.444698 0 0 0 91.386719 280.65234 A 37.444698 37.444698 0 0 0 53.941406 318.09766 A 37.444698 37.444698 0 0 0 91.386719 355.54297 A 37.444698 37.444698 0 0 0 127.35352 328.45117 L 229.18164 328.45117 L 229.18164 319.83984 L 229.22852 319.83984 L 229.22852 198.56445 C 286.69531 254.91915 343.31088 312.59994 399.97656 369.26562 L 399.97656 215.74219 L 400.1875 214.75977 L 337.02344 151.5957 L 337.02344 118.13281 A 37.444698 37.444698 0 0 0 366.97852 81.447266 A 37.444698 37.444698 0 0 0 329.5332 44.001953 z M 321.98633 58.921875 L 337.83203 58.921875 L 337.83203 100.97852 L 321.98633 100.97852 L 321.98633 58.921875 z M 82.339844 297.07031 L 98.185547 297.07031 L 98.185547 339.12695 L 82.339844 339.12695 L 82.339844 297.07031 z "
       transform="translate(25.5,309.875)"
       id="path4263" />
    <path
       style="fill:#ffffff;fill-opacity:1;stroke:none;stroke-width:0.74889398px;stroke-linecap:butt;stroke-linejoin:miter;stroke-opacity:1"
       d="M 497.28711 114.39844 A 37.444698 37.444698 0 0 0 459.8418 151.84375 A 37.444698 37.444698 0 0 0 466.60938 173.28516 L 407.67578 232.21875 L 407.4668 232.21875 L 407.4668 232.42969 L 407.16211 232.73438 L 407.4668 233.03711 L 407.4668 387.82422 L 252.67969 233.85742 L 251.69531 234.83984 L 251.69531 233.7168 L 236.71875 218.73828 L 236.71875 400.18164 L 181.26367 455.63672 A 37.444698 37.444698 0 0 0 157.28906 446.9082 A 37.444698 37.444698 0 0 0 119.84375 484.35156 A 37.444698 37.444698 0 0 0 157.28906 521.79688 A 37.444698 37.444698 0 0 0 194.73242 484.35156 A 37.444698 37.444698 0 0 0 190.64648 467.43359 L 251.36914 406.71094 L 251.69531 406.71094 L 251.69531 406.38281 L 251.90625 406.17188 L 251.69531 405.96289 L 251.69531 253.98438 L 407.4668 408.95703 L 407.4668 409.70703 L 422.44336 424.68359 L 422.44336 238.6543 L 477.49219 183.60547 A 37.444698 37.444698 0 0 0 497.28711 189.28906 A 37.444698 37.444698 0 0 0 534.73047 151.84375 A 37.444698 37.444698 0 0 0 497.28711 114.39844 z M 497.28711 134.41797 A 17.42476 17.42476 0 0 1 514.71094 151.84375 A 17.42476 17.42476 0 0 1 497.28711 169.26758 A 17.42476 17.42476 0 0 1 479.86133 151.84375 A 17.42476 17.42476 0 0 1 497.28711 134.41797 z M 155.79102 466.92773 A 17.42476 17.42476 0 0 1 173.21484 484.35156 A 17.42476 17.42476 0 0 1 155.79102 501.77734 A 17.42476 17.42476 0 0 1 138.36523 484.35156 A 17.42476 17.42476 0 0 1 155.79102 466.92773 z "
       transform="translate(25.5,309.875)"
       id="path4261" />
    <path
       style="fill:#009933;fill-opacity:1;stroke:none;stroke-width:0.74889398px;stroke-linecap:butt;stroke-linejoin:miter;stroke-opacity:1"
       d="M 259.34961 271.53516 L 259.34961 425.05859 L 259.13867 426.04102 L 322.30273 489.20703 L 322.30273 522.51172 A 37.444698 37.444698 0 0 0 292.08984 559.24219 A 37.444698 37.444698 0 0 0 329.5332 596.68555 A 37.444698 37.444698 0 0 0 366.97852 559.24219 A 37.444698 37.444698 0 0 0 338.0293 522.82031 L 338.0293 505.68164 L 338.0293 504.18359 L 338.0293 484.47852 L 274.32617 420.02734 L 274.32617 308.39453 C 330.38837 366.98269 445.07422 478.97852 445.07422 478.97852 L 445.07422 327.32812 L 531.44141 327.32812 A 37.444698 37.444698 0 0 0 567.68164 355.54297 A 37.444698 37.444698 0 0 0 605.12695 318.09766 A 37.444698 37.444698 0 0 0 567.68164 280.65234 A 37.444698 37.444698 0 0 0 530.70898 312.34961 L 430.14258 312.34961 L 430.14258 320.96289 L 430.0957 320.96289 L 430.0957 442.23633 C 372.62892 385.88163 316.01529 328.20085 259.34961 271.53516 z M 561.63086 297.07031 L 577.47852 297.07031 L 577.47852 339.12695 L 561.63086 339.12695 L 561.63086 297.07031 z M 321.98633 539.71094 L 337.83203 539.71094 L 337.83203 581.76758 L 321.98633 581.76758 L 321.98633 539.71094 z "
       transform="translate(25.5,309.875)"
       id="path20839" />
  </g>
</svg>
