<?xml version="1.0" encoding="UTF-8" standalone="no"?>
<svg
   xmlns:dc="http://purl.org/dc/elements/1.1/"
   xmlns:cc="http://creativecommons.org/ns#"
   xmlns:rdf="http://www.w3.org/1999/02/22-rdf-syntax-ns#"
   xmlns:svg="http://www.w3.org/2000/svg"
   xmlns="http://www.w3.org/2000/svg"
   xmlns:xlink="http://www.w3.org/1999/xlink"
   xmlns:sodipodi="http://sodipodi.sourceforge.net/DTD/sodipodi-0.dtd"
   xmlns:inkscape="http://www.inkscape.org/namespaces/inkscape"
   viewBox="0 0 145.07184 145.07183"
   width="386.85825"
   height="386.85822"
   id="svg4192"
   version="1.1"
   inkscape:version="0.48.5 r10040"
   sodipodi:docname="netneutrality.svg"
   inkscape:export-filename="/Users/jace/Downloads/netneutrality.png"
   inkscape:export-xdpi="116.32"
   inkscape:export-ydpi="116.32">
  <metadata
     id="metadata4227">
    <rdf:RDF>
      <cc:Work
         rdf:about="">
        <dc:format>image/svg+xml</dc:format>
        <dc:type
           rdf:resource="http://purl.org/dc/dcmitype/StillImage" />
        <dc:title />
      </cc:Work>
    </rdf:RDF>
  </metadata>
  <defs
     id="defs4225">
    <linearGradient
       inkscape:collect="always"
       id="linearGradient5130">
      <stop
         style="stop-color:#ffffff;stop-opacity:1"
         offset="0"
         id="stop5132" />
      <stop
         style="stop-color:#ffffff;stop-opacity:0"
         offset="1"
         id="stop5134" />
    </linearGradient>
    <linearGradient
       inkscape:collect="always"
       id="linearGradient5120">
      <stop
         style="stop-color:#000000;stop-opacity:0.40306121"
         offset="0"
         id="stop5122" />
      <stop
         style="stop-color:#000000;stop-opacity:0"
         offset="1"
         id="stop5124" />
    </linearGradient>
    <linearGradient
       inkscape:collect="always"
       xlink:href="#linearGradient5120"
       id="linearGradient5126"
       x1="232.78821"
       y1="171.22554"
       x2="232.78821"
       y2="118.72554"
       gradientUnits="userSpaceOnUse" />
    <radialGradient
       inkscape:collect="always"
       xlink:href="#linearGradient5130"
       id="radialGradient5136"
       cx="267.63574"
       cy="100.77621"
       fx="267.63574"
       fy="100.77621"
       r="22.536057"
       gradientTransform="matrix(-1.7455297,2.9935515e-6,-1.0594282e-6,-0.92163899,699.9544,183.62419)"
       gradientUnits="userSpaceOnUse" />
    <linearGradient
       inkscape:collect="always"
       xlink:href="#linearGradient5120"
       id="linearGradient5150"
       gradientUnits="userSpaceOnUse"
       x1="232.78821"
       y1="171.22554"
       x2="232.78821"
       y2="118.72554"
       gradientTransform="matrix(0.39999999,0,0,0.39999999,139.67293,86.985348)" />
    <radialGradient
       inkscape:collect="always"
       xlink:href="#linearGradient5130"
       id="radialGradient5152"
       gradientUnits="userSpaceOnUse"
       gradientTransform="matrix(-0.69821186,1.1974206e-6,-4.2377127e-7,-0.36865559,419.65468,160.43502)"
       cx="267.63574"
       cy="100.77621"
       fx="267.63574"
       fy="100.77621"
       r="22.536057" />
  </defs>
  <sodipodi:namedview
     pagecolor="#ffffff"
     bordercolor="#666666"
     borderopacity="1"
     objecttolerance="10"
     gridtolerance="10"
     guidetolerance="10"
     inkscape:pageopacity="0"
     inkscape:pageshadow="2"
     inkscape:window-width="1280"
     inkscape:window-height="751"
     id="namedview4223"
     showgrid="false"
     inkscape:snap-bbox="true"
     inkscape:bbox-paths="true"
     inkscape:bbox-nodes="true"
     inkscape:snap-bbox-edge-midpoints="true"
     inkscape:snap-bbox-midpoints="true"
     inkscape:snap-center="true"
     inkscape:zoom="0.73539105"
     inkscape:cx="431.79699"
     inkscape:cy="205.36677"
     inkscape:window-x="0"
     inkscape:window-y="0"
     inkscape:window-maximized="1"
     inkscape:current-layer="svg4192"
     inkscape:snap-global="false"
     showguides="false"
     inkscape:guide-bbox="true"
     fit-margin-top="0"
     fit-margin-left="0"
     fit-margin-right="0"
     fit-margin-bottom="0">
    <sodipodi:guide
       orientation="0,1"
       position="245.92891,245.92896"
       id="guide3046" />
    <sodipodi:guide
       orientation="0,1"
       position="-385.40455,160.58069"
       id="guide3066" />
    <sodipodi:guide
       orientation="0,1"
       position="278.81353,204.96755"
       id="guide3074" />
  </sodipodi:namedview>
  <path
     inkscape:connector-curvature="0"
     id="path3072"
     d="m 16.897962,25.999682 c -25.7012699,30.728 -21.6262999,76.472958 9.10171,102.174208 30.72801,25.70123 76.472948,21.62629 102.174208,-9.10173 25.70127,-30.727978 21.6263,-76.472948 -9.1017,-102.174212 C 88.344162,-8.803322 42.599222,-4.728315 16.897962,25.999682 z"
     style="fill:#ffffff;fill-opacity:0.75294118;stroke:none" />
  <path
     style="opacity:0.2;fill:#000000"
     d="m 72.536212,16.286182 a 56.249731,56.249731 0 0 0 -56.25028,56.24973 56.249731,56.249731 0 0 0 56.25028,56.249728 56.249731,56.249731 0 0 0 56.249708,-56.249728 56.249731,56.249731 0 0 0 -56.249708,-56.24973 z m 0,6.65274 a 49.596538,49.596538 0 0 1 3.46122,0.17303 3.024179,3.024179 0 0 0 2.61748,3.25029 3.024179,3.024179 0 0 0 3.37334,-2.49498 49.596538,49.596538 0 0 1 6.68295,1.82647 3.024179,3.024179 0 0 0 1.68749,3.81498 3.024179,3.024179 0 0 0 3.88529,-1.49798 49.596538,49.596538 0 0 1 6.023228,3.42333 3.024179,3.024179 0 0 0 0.62018,4.15336 3.024179,3.024179 0 0 0 4.15995,-0.46362 49.596538,49.596538 0 0 1 4.87681,4.91801 3.024179,3.024179 0 0 0 -0.44,4.14237 3.024179,3.024179 0 0 0 4.1292,0.63556 49.596538,49.596538 0 0 1 3.47111,5.99521 3.024179,3.024179 0 0 0 -1.52104,3.89847 3.024179,3.024179 0 0 0 3.80892,1.68749 49.596538,49.596538 0 0 1 1.80944,6.68516 3.024179,3.024179 0 0 0 -2.47189,3.37113 3.024179,3.024179 0 0 0 3.30025,2.61089 49.596538,49.596538 0 0 1 0.12251,3.46782 49.596538,49.596538 0 0 1 -0.17305,3.46178 3.024179,3.024179 0 0 0 -3.24971,2.61693 3.024179,3.024179 0 0 0 2.49498,3.37333 49.596538,49.596538 0 0 1 -1.82649,6.68296 3.024179,3.024179 0 0 0 -3.81496,1.68749 3.024179,3.024179 0 0 0 1.49795,3.88529 49.596538,49.596538 0 0 1 -3.42386,6.023228 3.024179,3.024179 0 0 0 -4.15336,0.62017 3.024179,3.024179 0 0 0 0.46362,4.1605 49.596538,49.596538 0 0 1 -4.91746,4.87681 3.024179,3.024179 0 0 0 -4.14292,-0.44 3.024179,3.024179 0 0 0 -0.635,4.12865 49.596538,49.596538 0 0 1 -5.995218,3.47111 3.024179,3.024179 0 0 0 -3.89903,-1.52105 3.024179,3.024179 0 0 0 -1.68694,3.80894 49.596538,49.596538 0 0 1 -6.68515,1.80999 3.024179,3.024179 0 0 0 -3.37114,-2.47246 3.024179,3.024179 0 0 0 -2.61143,3.30028 49.596538,49.596538 0 0 1 -3.46727,0.12304 49.596538,49.596538 0 0 1 -3.46178,-0.17303 3.024179,3.024179 0 0 0 -2.61748,-3.25029 3.024179,3.024179 0 0 0 -3.37334,2.49498 49.596538,49.596538 0 0 1 -6.68295,-1.82647 3.024179,3.024179 0 0 0 -1.68694,-3.81498 3.024179,3.024179 0 0 0 -3.88584,1.49798 49.596538,49.596538 0 0 1 -6.02323,-3.42388 3.024179,3.024179 0 0 0 -0.62018,-4.15281 3.024179,3.024179 0 0 0 -4.15995,0.46363 49.596538,49.596538 0 0 1 -4.8768,-4.91801 3.024179,3.024179 0 0 0 0.44,-4.14293 3.024179,3.024179 0 0 0 -4.1292,-0.635 49.596538,49.596538 0 0 1 -3.47111,-5.995208 3.024179,3.024179 0 0 0 1.52104,-3.89848 3.024179,3.024179 0 0 0 -3.80894,-1.68749 49.596538,49.596538 0 0 1 -1.80944,-6.68516 3.024179,3.024179 0 0 0 2.47192,-3.37113 3.024179,3.024179 0 0 0 -3.30028,-2.61089 49.596538,49.596538 0 0 1 -0.1225,-3.46782 49.596538,49.596538 0 0 1 0.17303,-3.46177 3.024179,3.024179 0 0 0 3.24975,-2.61694 3.024179,3.024179 0 0 0 -2.49499,-3.37333 49.596538,49.596538 0 0 1 1.82648,-6.68296 3.024179,3.024179 0 0 0 3.81497,-1.68749 3.024179,3.024179 0 0 0 -1.49797,-3.88529 49.596538,49.596538 0 0 1 3.42388,-6.02322 3.024179,3.024179 0 0 0 4.15336,-0.62073 3.024179,3.024179 0 0 0 -0.46363,-4.15995 49.596538,49.596538 0 0 1 4.91746,-4.87681 3.024179,3.024179 0 0 0 4.14292,0.44 3.024179,3.024179 0 0 0 0.63501,-4.12864 49.596538,49.596538 0 0 1 5.99521,-3.47112 3.024179,3.024179 0 0 0 3.89903,1.52105 3.024179,3.024179 0 0 0 1.68694,-3.80894 49.596538,49.596538 0 0 1 6.68515,-1.80999 3.024179,3.024179 0 0 0 3.37114,2.47246 3.024179,3.024179 0 0 0 2.61144,-3.30082 49.596538,49.596538 0 0 1 3.46782,-0.1225 z"
     id="path3013"
     inkscape:connector-curvature="0" />
  <g
     id="8"
     transform="translate(257.43968,182.1513)">
    <g
       id="4">
      <g
         id="2">
        <g
           id="1" />
        <use
           height="300"
           width="450"
           y="0"
           x="0"
           id="use4211"
           transform="matrix(0.96592583,0.25881905,-0.25881905,0.96592583,0,0)"
           xlink:href="#1" />
      </g>
      <use
         height="300"
         width="450"
         y="0"
         x="0"
         id="use4213"
         transform="matrix(0.8660254,0.5,-0.5,0.8660254,0,0)"
         xlink:href="#2" />
    </g>
    <use
       height="300"
       width="450"
       y="0"
       x="0"
       id="use4215"
       transform="matrix(0.5,0.8660254,-0.8660254,0.5,0,0)"
       xlink:href="#4" />
  </g>
  <use
     height="300"
     width="450"
     y="0"
     x="0"
     id="use4217"
     transform="matrix(-0.5,0.8660254,-0.8660254,-0.5,543.90717,50.277652)"
     xlink:href="#8" />
  <use
     height="300"
     width="450"
     y="0"
     x="0"
     id="use4219"
     transform="matrix(-0.5,-0.8660254,0.8660254,-0.5,228.41187,496.17625)"
     xlink:href="#8" />
  <circle
     d="m 280.96134,150 c 0,31.06587 -25.18386,56.24973 -56.24973,56.24973 -31.06587,0 -56.24973,-25.18386 -56.24973,-56.24973 0,-31.06587 25.18386,-56.249733 56.24973,-56.249733 31.06587,0 56.24973,25.183863 56.24973,56.249733 z"
     sodipodi:ry="56.249733"
     sodipodi:rx="56.249733"
     sodipodi:cy="150"
     sodipodi:cx="224.71161"
     r="56.249733"
     cy="150"
     cx="224.71161"
     id="circle5185"
     style="fill:#ffccaa;fill-opacity:1;stroke:none"
     transform="translate(-152.1757,-77.464078)" />
  <path
     inkscape:connector-curvature="0"
     id="path5187"
     d="m 72.536212,16.286182 a 56.249731,56.249731 0 0 0 -56.25028,56.24973 56.249731,56.249731 0 0 0 56.25028,56.249728 56.249731,56.249731 0 0 0 56.249708,-56.249728 56.249731,56.249731 0 0 0 -56.249708,-56.24973 z m 0,6.65274 a 49.596538,49.596538 0 0 1 3.46122,0.17303 3.024179,3.024179 0 0 0 2.61748,3.25029 3.024179,3.024179 0 0 0 3.37334,-2.49498 49.596538,49.596538 0 0 1 6.68295,1.82647 3.024179,3.024179 0 0 0 1.68749,3.81498 3.024179,3.024179 0 0 0 3.88529,-1.49798 49.596538,49.596538 0 0 1 6.023228,3.42333 3.024179,3.024179 0 0 0 0.62018,4.15336 3.024179,3.024179 0 0 0 4.15995,-0.46362 49.596538,49.596538 0 0 1 4.87681,4.91801 3.024179,3.024179 0 0 0 -0.44,4.14237 3.024179,3.024179 0 0 0 4.1292,0.63556 49.596538,49.596538 0 0 1 3.47111,5.99521 3.024179,3.024179 0 0 0 -1.52104,3.89847 3.024179,3.024179 0 0 0 3.80892,1.68749 49.596538,49.596538 0 0 1 1.80944,6.68516 3.024179,3.024179 0 0 0 -2.47189,3.37113 3.024179,3.024179 0 0 0 3.30025,2.61089 49.596538,49.596538 0 0 1 0.12251,3.46782 49.596538,49.596538 0 0 1 -0.17305,3.46178 3.024179,3.024179 0 0 0 -3.24971,2.61693 3.024179,3.024179 0 0 0 2.49498,3.37333 49.596538,49.596538 0 0 1 -1.82649,6.68296 3.024179,3.024179 0 0 0 -3.81496,1.68749 3.024179,3.024179 0 0 0 1.49795,3.88529 49.596538,49.596538 0 0 1 -3.42386,6.023228 3.024179,3.024179 0 0 0 -4.15336,0.62017 3.024179,3.024179 0 0 0 0.46362,4.1605 49.596538,49.596538 0 0 1 -4.91746,4.87681 3.024179,3.024179 0 0 0 -4.14292,-0.44 3.024179,3.024179 0 0 0 -0.635,4.12865 49.596538,49.596538 0 0 1 -5.995218,3.47111 3.024179,3.024179 0 0 0 -3.89903,-1.52105 3.024179,3.024179 0 0 0 -1.68694,3.80894 49.596538,49.596538 0 0 1 -6.68515,1.80999 3.024179,3.024179 0 0 0 -3.37114,-2.47246 3.024179,3.024179 0 0 0 -2.61143,3.30028 49.596538,49.596538 0 0 1 -3.46727,0.12304 49.596538,49.596538 0 0 1 -3.46178,-0.17303 3.024179,3.024179 0 0 0 -2.61748,-3.25029 3.024179,3.024179 0 0 0 -3.37334,2.49498 49.596538,49.596538 0 0 1 -6.68295,-1.82647 3.024179,3.024179 0 0 0 -1.68694,-3.81498 3.024179,3.024179 0 0 0 -3.88584,1.49798 49.596538,49.596538 0 0 1 -6.02323,-3.42388 3.024179,3.024179 0 0 0 -0.62018,-4.15281 3.024179,3.024179 0 0 0 -4.15995,0.46363 49.596538,49.596538 0 0 1 -4.8768,-4.91801 3.024179,3.024179 0 0 0 0.44,-4.14293 3.024179,3.024179 0 0 0 -4.1292,-0.635 49.596538,49.596538 0 0 1 -3.47111,-5.995208 3.024179,3.024179 0 0 0 1.52104,-3.89848 3.024179,3.024179 0 0 0 -3.80894,-1.68749 49.596538,49.596538 0 0 1 -1.80944,-6.68516 3.024179,3.024179 0 0 0 2.47192,-3.37113 3.024179,3.024179 0 0 0 -3.30028,-2.61089 49.596538,49.596538 0 0 1 -0.1225,-3.46782 49.596538,49.596538 0 0 1 0.17303,-3.46177 3.024179,3.024179 0 0 0 3.24975,-2.61694 3.024179,3.024179 0 0 0 -2.49499,-3.37333 49.596538,49.596538 0 0 1 1.82648,-6.68296 3.024179,3.024179 0 0 0 3.81497,-1.68749 3.024179,3.024179 0 0 0 -1.49797,-3.88529 49.596538,49.596538 0 0 1 3.42388,-6.02322 3.024179,3.024179 0 0 0 4.15336,-0.62073 3.024179,3.024179 0 0 0 -0.46363,-4.15995 49.596538,49.596538 0 0 1 4.91746,-4.87681 3.024179,3.024179 0 0 0 4.14292,0.44 3.024179,3.024179 0 0 0 0.63501,-4.12864 49.596538,49.596538 0 0 1 5.99521,-3.47112 3.024179,3.024179 0 0 0 3.89903,1.52105 3.024179,3.024179 0 0 0 1.68694,-3.80894 49.596538,49.596538 0 0 1 6.68515,-1.80999 3.024179,3.024179 0 0 0 3.37114,2.47246 3.024179,3.024179 0 0 0 2.61144,-3.30082 49.596538,49.596538 0 0 1 3.46782,-0.1225 z"
     style="opacity:0.2;fill:#000000" />
  <path
     inkscape:connector-curvature="0"
     id="path5189"
     d="m 72.536212,22.939472 -1.69848,27.16576 a 22.49989,22.49989 0 0 1 1.69793,-0.0692 22.49989,22.49989 0 0 1 1.69957,0.0851 l -1.69902,-27.1817 z m -12.83692,1.68969 5.39536,26.69939 a 22.49989,22.49989 0 0 1 3.27886,-0.88934 l -8.67422,-25.81005 z m 25.67328,0 -8.67367,25.80896 a 22.49989,22.49989 0 0 1 3.27831,0.89154 l 5.39536,-26.7005 z m -37.63514,4.95481 12.12061,24.39118 a 22.49989,22.49989 0 0 1 2.94103,-1.70123 l -15.06164,-22.68995 z m 49.597,0 -15.06658,22.69655 a 22.49989,22.49989 0 0 1 2.9553,1.67485 l 12.11128,-24.3714 z m -59.86861,7.8821 18.012,20.4136 a 22.49989,22.49989 0 0 1 2.41423,-2.39062 l -20.42623,-18.02298 z m 70.140228,0 -20.413598,18.01145 a 22.49989,22.49989 0 0 1 2.39061,2.41478 l 18.022988,-20.42623 z m -78.021788,10.27162 22.69655,15.06603 a 22.49989,22.49989 0 0 1 1.67486,-2.95531 l -24.37141,-12.11072 z m 85.903338,0 -24.391178,12.12061 a 22.49989,22.49989 0 0 1 1.70123,2.94102 L 115.4876,47.737692 z m -90.858148,11.96186 25.80841,8.67311 a 22.49989,22.49989 0 0 1 0.89209,-3.27775 l -26.7005,-5.39536 z m 95.812948,0 -26.699378,5.3948 a 22.49989,22.49989 0 0 1 0.88988,3.27886 l 25.809498,-8.67366 z m -70.321488,11.13788 -27.1817,1.69848 27.16577,1.69793 a 22.49989,22.49989 0 0 1 -0.0692,-1.69793 22.49989,22.49989 0 0 1 0.0851,-1.69848 z m 44.84597,5.6e-4 a 22.49989,22.49989 0 0 1 0.0687,1.69792 22.49989,22.49989 0 0 1 -0.0846,1.69848 l 27.181698,-1.69848 -27.165768,-1.69792 z m -44.52792,5.86062 -25.80951,8.67367 26.6994,-5.39482 a 22.49989,22.49989 0 0 1 -0.88989,-3.27885 z m 44.19449,5.5e-4 a 22.49989,22.49989 0 0 1 -0.89154,3.27776 l 26.700488,5.39536 -25.808948,-8.67312 z m -1.8424,5.56894 a 22.49989,22.49989 0 0 1 -1.67486,2.95531 L 115.4876,97.334142 92.791052,82.268102 z m -40.51684,0.005 -22.68995,15.06164 24.39119,-12.12062 a 22.49989,22.49989 0 0 1 -1.70124,-2.94102 z m 3.21459,4.90702 -18.02298,20.426238 20.4136,-18.011448 a 22.49989,22.49989 0 0 1 -2.39062,-2.41479 z m 34.10524,0.0126 a 22.49989,22.49989 0 0 1 -2.41423,2.39061 L 107.60605,107.60632 89.594042,87.192722 z m -4.38022,3.90452 a 22.49989,22.49989 0 0 1 -2.94103,1.70122 l 15.06164,22.689958 -12.12061,-24.391178 z m -25.36512,0.0198 -12.11127,24.371398 15.06658,-22.696548 a 22.49989,22.49989 0 0 1 -2.95531,-1.67485 z m 5.24595,2.62572 -5.39536,26.700498 8.67366,-25.808958 a 22.49989,22.49989 0 0 1 -3.2783,-0.89154 z m 14.88256,7.5e-4 a 22.49989,22.49989 0 0 1 -3.27885,0.88934 l 8.67421,25.810058 -5.39536,-26.699398 z m -9.14003,1.2074 1.69903,27.181688 1.69792,-27.166308 a 22.49989,22.49989 0 0 1 -1.69847,0.0697 22.49989,22.49989 0 0 1 -1.69848,-0.0851 z"
     style="opacity:0.2;fill:#000000" />
  <circle
     d="m 247.21153,150 c 0,12.42635 -10.07354,22.49989 -22.49989,22.49989 -12.42635,0 -22.49989,-10.07354 -22.49989,-22.49989 0,-12.42635 10.07354,-22.49989 22.49989,-22.49989 12.42635,0 22.49989,10.07354 22.49989,22.49989 z"
     sodipodi:ry="22.499893"
     sodipodi:rx="22.499893"
     sodipodi:cy="150"
     sodipodi:cx="224.71164"
     style="fill:#ffccaa;fill-opacity:1;stroke:none"
     id="circle5197"
     cx="224.71164"
     cy="150"
     r="22.499893"
     transform="translate(-152.1757,-77.464078)" />
  <path
     inkscape:connector-curvature="0"
     id="path5199"
     d="m 72.535402,52.848472 c -10.83857,0 -19.68687,8.81085 -19.68687,19.68779 0,10.87751 8.84916,19.68703 19.68687,19.68703 10.83857,0 19.68794,-8.8101 19.68794,-19.68703 0,-10.8775 -8.85023,-19.68779 -19.68794,-19.68779 z m 3.93817,3.14493 c 3.68547,0.86353 6.90245,2.91265 9.22909,5.7202 l -4.86891,0 c -1.09141,-2.16746 -2.54233,-4.12426 -4.36018,-5.7202 z m -8.65117,0.20053 c -1.63503,1.55272 -2.92046,3.43798 -3.87962,5.51967 l -4.57429,0 c 2.16187,-2.6091 5.0925,-4.56328 8.45391,-5.51967 z m 5.70779,0.87757 c 1.74195,1.22184 3.17411,2.81206 4.28661,4.6421 l -4.28661,0 0,-4.6421 z m -2.62349,0.0188 0,4.62332 -3.99822,0 c 1.01829,-1.83308 2.34732,-3.42011 3.99822,-4.62332 z m -13.36455,7.31499 5.3696,0 c -0.67394,2.1575 -1.05281,4.44301 -1.15803,6.72919 l -6.22385,0 c 0.19787,-2.422 0.90331,-4.70068 2.01228,-6.72919 z m 8.14939,0 5.21516,0 0,6.72919 -6.52545,0 c 0.11876,-2.3332 0.55119,-4.62734 1.31029,-6.72919 z m 7.83865,0 5.62984,0 c 0.84934,2.10387 1.3514,4.39685 1.5006,6.72919 l -7.13044,0 0,-6.72919 z m 8.44036,0 5.5592,0 c 1.109,2.02843 1.81439,4.30724 2.01227,6.72919 l -6.25167,0 c -0.13141,-2.29362 -0.57138,-4.57645 -1.3198,-6.72919 z m -26.45019,9.42088 6.23592,0 c 0.10154,2.2017 0.4463,4.38705 1.0314,6.44079 l -5.45782,0 c -1.00318,-1.95777 -1.63642,-4.13548 -1.8095,-6.44079 z m 8.86199,0 6.52435,0 0,6.44079 -5.33667,0 c -0.66189,-1.99232 -1.0709,-4.18558 -1.18768,-6.44079 z m 9.14784,0 7.14692,0 c -0.11733,2.23667 -0.56058,4.42688 -1.32165,6.44079 l -5.82527,0 0,-6.44079 z m 9.77187,0 6.24948,0 c -0.17311,2.30539 -0.80652,4.48291 -1.80988,6.44079 l -5.60092,0 c 0.67201,-2.06249 1.05751,-4.24489 1.16132,-6.44079 z m -24.25382,9.13248 4.6797,0 c 0.96242,2.29121 2.26903,4.31425 3.91732,5.86663 -3.45553,-1.02389 -6.44521,-3.10504 -8.59702,-5.86663 z m 7.63406,0 4.2244,0 0,5.02548 c -1.70485,-1.10907 -3.13665,-2.86928 -4.2244,-5.02548 z m 6.84789,0 4.55196,0 c -1.14722,1.97391 -2.6676,3.66566 -4.55196,4.91096 l 0,-4.91096 z m 7.53488,0 4.95858,0 c -2.37424,3.04685 -5.76839,5.26613 -9.68294,6.15016 2.01235,-1.66304 3.58461,-3.77955 4.72436,-6.15016 z"
     style="font-size:medium;font-style:normal;font-variant:normal;font-weight:normal;font-stretch:normal;text-indent:0;text-align:start;text-decoration:none;line-height:normal;letter-spacing:normal;word-spacing:normal;text-transform:none;direction:ltr;block-progression:tb;writing-mode:lr-tb;text-anchor:start;baseline-shift:baseline;opacity:0.6;color:#000000;fill:#000000;fill-opacity:1;fill-rule:nonzero;stroke:none;visibility:visible;display:inline;overflow:visible;enable-background:accumulate;font-family:sans-serif" />
  <text
     xml:space="preserve"
     style="font-size:9px;font-style:normal;font-variant:normal;font-weight:normal;font-stretch:normal;text-align:start;line-height:100%;letter-spacing:0px;word-spacing:0px;text-anchor:start;fill:#000000;fill-opacity:1;stroke:none;font-family:Open Sans;-inkscape-font-specification:Open Sans"
     x="-106.79168"
     y="152.16519"
     id="text5328"
     sodipodi:linespacing="100%"><tspan
       sodipodi:role="line"
       id="tspan5330"
       x="-106.79168"
       y="152.16519" /></text>
  <circle
     style="fill:none;stroke:none"
     id="circle3034"
     cx="224.71161"
     cy="150"
     r="56.249733"
     sodipodi:cx="224.71161"
     sodipodi:cy="150"
     sodipodi:rx="56.249733"
     sodipodi:ry="56.249733"
     d="m 280.96134,150 c 0,31.06587 -25.18386,56.24973 -56.24973,56.24973 -31.06587,0 -56.24973,-25.18386 -56.24973,-56.24973 0,-31.06587 25.18386,-56.249733 56.24973,-56.249733 31.06587,0 56.24973,25.183863 56.24973,56.249733 z"
     transform="matrix(-0.974845,-0.41151867,0.41151867,-0.974845,229.86709,311.23569)" />
  <text
     sodipodi:linespacing="125%"
     id="text3025"
     style="font-size:15px;font-style:normal;font-weight:normal;line-height:125%;letter-spacing:0px;word-spacing:0px;fill:#000000;fill-opacity:1;stroke:none;font-family:Varela Round;-inkscape-font-specification:Varela Round"
     xml:space="preserve"
     transform="translate(-152.1757,-77.464078)"><textPath
       id="textPath3027"
       xlink:href="#circle3034"></textPath></text>
  <text
     xml:space="preserve"
     style="font-size:15px;font-style:normal;font-weight:normal;line-height:125%;letter-spacing:0px;word-spacing:0px;fill:#000000;fill-opacity:1;stroke:none;font-family:Varela Round;-inkscape-font-specification:Varela Round"
     id="text3031"
     sodipodi:linespacing="125%"
     transform="translate(-152.1757,-77.464078)"><textPath
       xlink:href="#circle3034"
       id="textPath3033"></textPath></text>
  <text
     sodipodi:linespacing="125%"
     id="text3037"
     style="font-size:15px;font-style:normal;font-weight:normal;line-height:125%;letter-spacing:0px;word-spacing:0px;fill:#000000;fill-opacity:1;stroke:none;font-family:Varela Round;-inkscape-font-specification:Varela Round"
     xml:space="preserve"
     transform="translate(-152.1757,-77.464078)"><textPath
       id="textPath3039"
       xlink:href="#circle3034"></textPath></text>
  <path
     style="fill:none;stroke:none"
     d="M 4.5341221,78.275512 C 7.7040121,115.83188 40.719162,143.70763 78.275522,140.53772 115.83187,137.36783 143.70764,104.3527 140.53772,66.796332 137.36786,29.239972 104.35271,1.364214 66.796342,4.534098 29.239962,7.703992 1.3642421,40.719142 4.5341221,78.275512 z"
     id="circle3048"
     inkscape:connector-curvature="0" />
  <g
     id="g3922"
     transform="translate(1.4824751,-0.7622471)">
    <text
       transform="translate(-1.4257,0.535922)"
       sodipodi:linespacing="125%"
       id="text3036"
       style="font-size:15px;font-style:normal;font-weight:normal;text-align:start;line-height:125%;letter-spacing:0px;word-spacing:0px;text-anchor:start;fill:#665244;fill-opacity:1;stroke:none;font-family:Varela Round;-inkscape-font-specification:Varela Round"
       xml:space="preserve"><textPath
         style="font-size:12px;letter-spacing:1.125px;fill:#665244;fill-opacity:1"
         id="textPath3133"
         xlink:href="#circle3034">SAVE THE INTERNET</textPath></text>
    <text
       transform="translate(-1.4257,0.535922)"
       sodipodi:linespacing="125%"
       id="text3050"
       style="font-size:15px;font-style:normal;font-variant:normal;font-weight:normal;font-stretch:normal;line-height:125%;letter-spacing:0.00375px;word-spacing:0px;fill:#665244;fill-opacity:1;stroke:none;font-family:Varela Round;-inkscape-font-specification:Varela Round"
       xml:space="preserve"><textPath
         style="font-size:12px;letter-spacing:1.5px;fill:#665244;fill-opacity:1"
         id="textPath3069"
         xlink:href="#circle3048">VOTE FOR NET NEUTRALITY</textPath></text>
  </g>
</svg>
