<svg xmlns:dc="http://purl.org/dc/elements/1.1/" xmlns:cc="http://creativecommons.org/ns#" xmlns:rdf="http://www.w3.org/1999/02/22-rdf-syntax-ns#" xmlns:svg="http://www.w3.org/2000/svg" xmlns="http://www.w3.org/2000/svg" xmlns:xlink="http://www.w3.org/1999/xlink" xmlns:sodipodi="http://sodipodi.sourceforge.net/DTD/sodipodi-0.dtd" xmlns:inkscape="http://www.inkscape.org/namespaces/inkscape" viewBox="0 0 145.07 145.07" width="386.86" height="386.86" id="svg4192" version="1.1" inkscape:version="0.91" sodipodi:docname="netneutrality-curves.svg" inkscape:export-filename="/Users/jace/Downloads/netneutrality.png" inkscape:export-xdpi="116.32" inkscape:export-ydpi="116.32">
  <style>
    
        /***************************
****************************
Original Logo: github.com/netneutrality/savetheinternet.in
Animated NN SVG
Author: Bharath KKB
github.com/bharathkkb/
****************************
*************************/
   
        #spokesgrp{
             transform-origin: 50% 50%;
    -webkit-transform-origin: 50% 50%;
    -moz-transform-origin: 50% 50%;
    -o-transform-origin: 50% 50%;
       
    -webkit-animation: rotation 40s infinite linear;
    -moz-animation: rotation 40s infinite linear;
    -o-animation: rotation 40s infinite linear;
    animation: rotation 40s infinite linear;
}
        #outergrp{
                     transform-origin: 50% 50%;
    -webkit-transform-origin: 50% 50%;
    -moz-transform-origin: 50% 50%;
    -o-transform-origin: 50% 50%;
       
    -webkit-animation: op_rotation 40s infinite linear;
    -moz-animation: op_rotation 40s infinite linear;
    -o-animation: op_rotation 40s infinite linear;
    animation: op_rotation 40s infinite linear;
}
        

@-webkit-keyframes rotation {
    from {-webkit-transform: rotate(0deg);}
    to   {-webkit-transform: rotate(359deg);}
}
@-moz-keyframes rotation {
    from {-moz-transform: rotate(0deg);}
    to   {-moz-transform: rotate(359deg);}
}
@-o-keyframes rotation {
    from {-o-transform: rotate(0deg);}
    to   {-o-transform: rotate(359deg);}
}
@keyframes rotation {
    from {transform: rotate(0deg);}
    to   {transform: rotate(359deg);}
}
        
        @-webkit-keyframes op_rotation {
    from {-webkit-transform: rotate(359deg);}
    to   {-webkit-transform: rotate(0deg);}
}
@-moz-keyframes op_rotation {
    from {-moz-transform: rotate(359deg);}
    to   {-moz-transform: rotate(0deg);}
}
@-o-keyframes op_rotation {
    from {-o-transform: rotate(359deg);}
    to   {-o-transform: rotate(0deg);}
}
@keyframes op_rotation {
    from {transform: rotate(359deg);}
    to   {transform: rotate(0deg);}
}
    
  </style>
  <metadata id="metadata4227">
    <rdf:RDF>
      <cc:Work rdf:about="">
        <dc:format>
          image/svg+xml
        </dc:format>
        <dc:type rdf:resource="http://purl.org/dc/dcmitype/StillImage"/>
      </cc:Work>
    </rdf:RDF>
  </metadata>
  <defs id="defs4225">
    <linearGradient inkscape:collect="always" id="linearGradient5130">
      <stop offset="0" id="stop5132" style="stop-color:#ffffff;stop-opacity:1"/>
      <stop offset="1" id="stop5134" style="stop-color:#ffffff;stop-opacity:0"/>
    </linearGradient>
    <linearGradient inkscape:collect="always" id="linearGradient5120">
      <stop offset="0" id="stop5122" style="stop-color:#000000;stop-opacity:0.4"/>
      <stop offset="1" id="stop5124" style="stop-color:#000000;stop-opacity:0"/>
    </linearGradient>
    <linearGradient inkscape:collect="always" xlink:href="#linearGradient5120" id="linearGradient5126" x1="232.79" y1="171.23" x2="232.79" y2="118.73" gradientUnits="userSpaceOnUse"/>
    <radialGradient inkscape:collect="always" xlink:href="#linearGradient5130" id="radialGradient5136" cx="267.64" cy="100.78" fx="267.64" fy="100.78" r="22.54" gradientTransform="matrix(-1.7455297,2.9935515e-6,-1.0594282e-6,-0.92163899,699.9544,183.62419)" gradientUnits="userSpaceOnUse"/>
    <linearGradient inkscape:collect="always" xlink:href="#linearGradient5120" id="linearGradient5150" gradientUnits="userSpaceOnUse" x1="232.79" y1="171.23" x2="232.79" y2="118.73" gradientTransform="matrix(0.39999999,0,0,0.39999999,139.67293,86.985348)"/>
    <radialGradient inkscape:collect="always" xlink:href="#linearGradient5130" id="radialGradient5152" gradientUnits="userSpaceOnUse" gradientTransform="matrix(-0.69821186,1.1974206e-6,-4.2377127e-7,-0.36865559,419.65468,160.43502)" cx="267.64" cy="100.78" fx="267.64" fy="100.78" r="22.54"/>
  </defs>
  <sodipodi:namedview pagecolor="#ffffff" bordercolor="#666666" borderopacity="1" objecttolerance="10" gridtolerance="10" guidetolerance="10" inkscape:pageopacity="0" inkscape:pageshadow="2" inkscape:window-width="944" inkscape:window-height="1042" id="namedview4223" showgrid="false" inkscape:snap-bbox="true" inkscape:bbox-paths="true" inkscape:bbox-nodes="true" inkscape:snap-bbox-edge-midpoints="true" inkscape:snap-bbox-midpoints="true" inkscape:snap-center="true" inkscape:zoom="0.74" inkscape:cx="-89.01" inkscape:cy="347.36" inkscape:window-x="0" inkscape:window-y="0" inkscape:window-maximized="0" inkscape:current-layer="svg4192" inkscape:snap-global="false" showguides="false" inkscape:guide-bbox="true" fit-margin-top="0" fit-margin-left="0" fit-margin-right="0" fit-margin-bottom="0">
    <sodipodi:guide orientation="0" position="245.93" id="guide3046"/>
    <sodipodi:guide orientation="0" position="-385.4" id="guide3066"/>
    <sodipodi:guide orientation="0" position="278.81" id="guide3074"/>
  </sodipodi:namedview>
  <path inkscape:connector-curvature="0" id="path3072" d="m16.9 26c-25.7 30.73-21.63 76.47 9.1 102.17 30.73 25.7 76.47 21.63 102.17-9.1 25.7-30.73 21.63-76.47-9.1-102.17C88.34-8.8 42.6-4.73 16.9 26z" style="fill-opacity:0.75;fill:#fff"/>
  <path d="m72.54 16.29a56.25 56.25 0 0 0-56.25 56.25 56.25 56.25 0 0 0 56.25 56.25 56.25 56.25 0 0 0 56.25-56.25 56.25 56.25 0 0 0-56.25-56.25zm0 6.65a49.6 49.6 0 0 1 3.46 0.17 3.02 3.02 0 0 0 2.62 3.25 3.02 3.02 0 0 0 3.37-2.49 49.6 49.6 0 0 1 6.68 1.83 3.02 3.02 0 0 0 1.69 3.81 3.02 3.02 0 0 0 3.89-1.5 49.6 49.6 0 0 1 6.02 3.42 3.02 3.02 0 0 0 0.62 4.15 3.02 3.02 0 0 0 4.16-0.46 49.6 49.6 0 0 1 4.88 4.92 3.02 3.02 0 0 0-0.44 4.14 3.02 3.02 0 0 0 4.13 0.64 49.6 49.6 0 0 1 3.47 6 3.02 3.02 0 0 0-1.52 3.9 3.02 3.02 0 0 0 3.81 1.69 49.6 49.6 0 0 1 1.81 6.69 3.02 3.02 0 0 0-2.47 3.37 3.02 3.02 0 0 0 3.3 2.61 49.6 49.6 0 0 1 0.12 3.47 49.6 49.6 0 0 1-0.17 3.46 3.02 3.02 0 0 0-3.25 2.62 3.02 3.02 0 0 0 2.49 3.37 49.6 49.6 0 0 1-1.83 6.68 3.02 3.02 0 0 0-3.81 1.69 3.02 3.02 0 0 0 1.5 3.89 49.6 49.6 0 0 1-3.42 6.02 3.02 3.02 0 0 0-4.15 0.62 3.02 3.02 0 0 0 0.46 4.16 49.6 49.6 0 0 1-4.92 4.88 3.02 3.02 0 0 0-4.14-0.44 3.02 3.02 0 0 0-0.63 4.13 49.6 49.6 0 0 1-6 3.47 3.02 3.02 0 0 0-3.9-1.52 3.02 3.02 0 0 0-1.69 3.81 49.6 49.6 0 0 1-6.69 1.81 3.02 3.02 0 0 0-3.37-2.47 3.02 3.02 0 0 0-2.61 3.3 49.6 49.6 0 0 1-3.47 0.12 49.6 49.6 0 0 1-3.46-0.17 3.02 3.02 0 0 0-2.62-3.25 3.02 3.02 0 0 0-3.37 2.49 49.6 49.6 0 0 1-6.68-1.83 3.02 3.02 0 0 0-1.69-3.81 3.02 3.02 0 0 0-3.89 1.5 49.6 49.6 0 0 1-6.02-3.42 3.02 3.02 0 0 0-0.62-4.15 3.02 3.02 0 0 0-4.16 0.46 49.6 49.6 0 0 1-4.88-4.92 3.02 3.02 0 0 0 0.44-4.14 3.02 3.02 0 0 0-4.13-0.63 49.6 49.6 0 0 1-3.47-6 3.02 3.02 0 0 0 1.52-3.9 3.02 3.02 0 0 0-3.81-1.69 49.6 49.6 0 0 1-1.81-6.69 3.02 3.02 0 0 0 2.47-3.37 3.02 3.02 0 0 0-3.3-2.61 49.6 49.6 0 0 1-0.12-3.47 49.6 49.6 0 0 1 0.17-3.46 3.02 3.02 0 0 0 3.25-2.62 3.02 3.02 0 0 0-2.49-3.37 49.6 49.6 0 0 1 1.83-6.68 3.02 3.02 0 0 0 3.81-1.69 3.02 3.02 0 0 0-1.5-3.89 49.6 49.6 0 0 1 3.42-6.02 3.02 3.02 0 0 0 4.15-0.62 3.02 3.02 0 0 0-0.46-4.16 49.6 49.6 0 0 1 4.92-4.88 3.02 3.02 0 0 0 4.14 0.44 3.02 3.02 0 0 0 0.64-4.13 49.6 49.6 0 0 1 6-3.47 3.02 3.02 0 0 0 3.9 1.52 3.02 3.02 0 0 0 1.69-3.81 49.6 49.6 0 0 1 6.69-1.81 3.02 3.02 0 0 0 3.37 2.47 3.02 3.02 0 0 0 2.61-3.3 49.6 49.6 0 0 1 3.47-0.12z" id="path3013" inkscape:connector-curvature="0" style="fill:#000;opacity:0.2"/>
  <g id="8" transform="translate(257.43968,182.1513)">
    <g id="4">
      <g id="2">
        <g id="1"/>
        <use height="300" width="450" y="0" x="0" id="use4211" transform="matrix(0.96592583,0.25881905,-0.25881905,0.96592583,0,0)" xlink:href="#1"/>
      </g>
      <use height="300" width="450" y="0" x="0" id="use4213" transform="matrix(0.8660254,0.5,-0.5,0.8660254,0,0)" xlink:href="#2"/>
    </g>
    <use height="300" width="450" y="0" x="0" id="use4215" transform="matrix(0.5,0.8660254,-0.8660254,0.5,0,0)" xlink:href="#4"/>
  </g>
  <use height="300" width="450" y="0" x="0" id="use4217" transform="matrix(-0.5,0.8660254,-0.8660254,-0.5,543.90717,50.277652)" xlink:href="#8"/>
  <use height="300" width="450" y="0" x="0" id="use4219" transform="matrix(-0.5,-0.8660254,0.8660254,-0.5,228.41187,496.17625)" xlink:href="#8"/>
  <circle d="m 280.96134,150 c 0,31.06587 -25.18386,56.24973 -56.24973,56.24973 -31.06587,0 -56.24973,-25.18386 -56.24973,-56.24973 0,-31.06587 25.18386,-56.249733 56.24973,-56.249733 31.06587,0 56.24973,25.183863 56.24973,56.249733 z" sodipodi:ry="56.25" sodipodi:rx="56.25" sodipodi:cy="150" sodipodi:cx="224.71" r="56.25" cy="150" cx="224.71" id="circle5185" transform="translate(-152.1757,-77.464078)" fill="#fca"/>
  <g id="g7512" transform="translate(72.470042,72.680317)">
    <g id="outergrp">
      <path inkscape:connector-curvature="0" id="outer" d="m0.07-56.39a56.25 56.25 0 0 0-56.25 56.25 56.25 56.25 0 0 0 56.25 56.25 56.25 56.25 0 0 0 56.25-56.25 56.25 56.25 0 0 0-56.25-56.25zm0 6.65a49.6 49.6 0 0 1 3.46 0.17 3.02 3.02 0 0 0 2.62 3.25 3.02 3.02 0 0 0 3.37-2.49 49.6 49.6 0 0 1 6.68 1.83 3.02 3.02 0 0 0 1.69 3.81 3.02 3.02 0 0 0 3.89-1.5 49.6 49.6 0 0 1 6.02 3.42 3.02 3.02 0 0 0 0.62 4.15 3.02 3.02 0 0 0 4.16-0.46 49.6 49.6 0 0 1 4.88 4.92 3.02 3.02 0 0 0-0.44 4.14 3.02 3.02 0 0 0 4.13 0.64 49.6 49.6 0 0 1 3.47 6 3.02 3.02 0 0 0-1.52 3.9 3.02 3.02 0 0 0 3.81 1.69 49.6 49.6 0 0 1 1.81 6.69 3.02 3.02 0 0 0-2.47 3.37 3.02 3.02 0 0 0 3.3 2.61 49.6 49.6 0 0 1 0.12 3.47 49.6 49.6 0 0 1-0.17 3.46 3.02 3.02 0 0 0-3.25 2.62 3.02 3.02 0 0 0 2.49 3.37 49.6 49.6 0 0 1-1.83 6.68 3.02 3.02 0 0 0-3.81 1.69 3.02 3.02 0 0 0 1.5 3.89 49.6 49.6 0 0 1-3.42 6.02 3.02 3.02 0 0 0-4.15 0.62 3.02 3.02 0 0 0 0.46 4.16 49.6 49.6 0 0 1-4.92 4.88 3.02 3.02 0 0 0-4.14-0.44 3.02 3.02 0 0 0-0.63 4.13 49.6 49.6 0 0 1-6 3.47 3.02 3.02 0 0 0-3.9-1.52 3.02 3.02 0 0 0-1.69 3.81 49.6 49.6 0 0 1-6.69 1.81 3.02 3.02 0 0 0-3.37-2.47 3.02 3.02 0 0 0-2.61 3.3 49.6 49.6 0 0 1-3.47 0.12 49.6 49.6 0 0 1-3.46-0.17 3.02 3.02 0 0 0-2.62-3.25 3.02 3.02 0 0 0-3.37 2.49 49.6 49.6 0 0 1-6.68-1.83 3.02 3.02 0 0 0-1.69-3.81 3.02 3.02 0 0 0-3.89 1.5 49.6 49.6 0 0 1-6.02-3.42 3.02 3.02 0 0 0-0.62-4.15 3.02 3.02 0 0 0-4.16 0.46 49.6 49.6 0 0 1-4.88-4.92 3.02 3.02 0 0 0 0.44-4.14 3.02 3.02 0 0 0-4.13-0.63 49.6 49.6 0 0 1-3.47-6 3.02 3.02 0 0 0 1.52-3.9 3.02 3.02 0 0 0-3.81-1.69 49.6 49.6 0 0 1-1.81-6.69 3.02 3.02 0 0 0 2.47-3.37 3.02 3.02 0 0 0-3.3-2.61 49.6 49.6 0 0 1-0.12-3.47 49.6 49.6 0 0 1 0.17-3.46 3.02 3.02 0 0 0 3.25-2.62 3.02 3.02 0 0 0-2.49-3.37 49.6 49.6 0 0 1 1.83-6.68 3.02 3.02 0 0 0 3.81-1.69 3.02 3.02 0 0 0-1.5-3.89 49.6 49.6 0 0 1 3.42-6.02 3.02 3.02 0 0 0 4.15-0.62 3.02 3.02 0 0 0-0.46-4.16 49.6 49.6 0 0 1 4.92-4.88 3.02 3.02 0 0 0 4.14 0.44 3.02 3.02 0 0 0 0.64-4.13 49.6 49.6 0 0 1 6-3.47 3.02 3.02 0 0 0 3.9 1.52 3.02 3.02 0 0 0 1.69-3.81 49.6 49.6 0 0 1 6.69-1.81 3.02 3.02 0 0 0 3.37 2.47 3.02 3.02 0 0 0 2.61-3.3 49.6 49.6 0 0 1 3.47-0.12z" style="fill:#000;opacity:0.2"/>
    </g>
  </g>
  <g id="g3562" transform="translate(72.14056,72.200078)">
    <g id="spokesgrp">
      <path inkscape:connector-curvature="1" id="spokes" d="m0.4-49.26-1.7 27.17a22.5 22.5 0 0 1 1.7-0.07 22.5 22.5 0 0 1 1.7 0.09l-1.7-27.18zm-12.84 1.69 5.4 26.7a22.5 22.5 0 0 1 3.28-0.89l-8.67-25.81zm25.67 0-8.67 25.81a22.5 22.5 0 0 1 3.28 0.89l5.4-26.7zm-37.64 4.95 12.12 24.39a22.5 22.5 0 0 1 2.94-1.7l-15.06-22.69zm49.6 0-15.07 22.7a22.5 22.5 0 0 1 2.96 1.67l12.11-24.37zm-59.87 7.88 18.01 20.41a22.5 22.5 0 0 1 2.41-2.39l-20.43-18.02zm70.14 0-20.41 18.01a22.5 22.5 0 0 1 2.39 2.41l18.02-20.43zm-78.02 10.27 22.7 15.07a22.5 22.5 0 0 1 1.67-2.96l-24.37-12.11zm85.9 0-24.39 12.12a22.5 22.5 0 0 1 1.7 2.94l22.69-15.06zm-90.86 11.96 25.81 8.67a22.5 22.5 0 0 1 0.89-3.28l-26.7-5.4zm95.81 0-26.7 5.39a22.5 22.5 0 0 1 0.89 3.28l25.81-8.67zm-70.32 11.14-27.18 1.7 27.17 1.7a22.5 22.5 0 0 1-0.07-1.7 22.5 22.5 0 0 1 0.09-1.7zm44.85 0a22.5 22.5 0 0 1 0.07 1.7 22.5 22.5 0 0 1-0.08 1.7L49.99 0.34 22.83-1.36Zm-44.53 5.86-25.81 8.67 26.7-5.39a22.5 22.5 0 0 1-0.89-3.28zm44.19 0a22.5 22.5 0 0 1-0.89 3.28L48.3 13.17 22.49 4.5Zm-1.84 5.57a22.5 22.5 0 0 1-1.67 2.96L43.35 25.13 20.65 10.07Zm-40.52 0.01-22.69 15.06 24.39-12.12a22.5 22.5 0 0 1-1.7-2.94zm3.21 4.91-18.02 20.43 20.41-18.01a22.5 22.5 0 0 1-2.39-2.41zm34.11 0.01a22.5 22.5 0 0 1-2.41 2.39L35.47 35.41 17.45 14.99Zm-4.38 3.9a22.5 22.5 0 0 1-2.94 1.7L25.19 43.29 13.07 18.9Zm-25.37 0.02-12.11 24.37 15.07-22.7a22.5 22.5 0 0 1-2.96-1.67zm5.25 2.63-5.4 26.7 8.67-25.81a22.5 22.5 0 0 1-3.28-0.89zm14.88 0a22.5 22.5 0 0 1-3.28 0.89l8.67 25.81-5.4-26.7zm-9.14 1.21 1.7 27.18 1.7-27.17a22.5 22.5 0 0 1-1.7 0.07 22.5 22.5 0 0 1-1.7-0.09z" style="fill:#000;opacity:0.2"/>
    </g>
  </g>
  <circle id="circle5197" cx="224.71" cy="150" r="22.5" transform="translate(-152.1757,-77.464078)" d="m 247.21153,150 c 0,12.42635 -10.07354,22.49989 -22.49989,22.49989 -12.42635,0 -22.49989,-10.07354 -22.49989,-22.49989 0,-12.42635 10.07354,-22.49989 22.49989,-22.49989 12.42635,0 22.49989,10.07354 22.49989,22.49989 z" sodipodi:ry="22.5" sodipodi:rx="22.5" sodipodi:cy="150" sodipodi:cx="224.71" fill="#fca"/>
  <path inkscape:connector-curvature="0" id="path5199" d="m72.54 52.85c-10.84 0-19.69 8.81-19.69 19.69 0 10.88 8.85 19.69 19.69 19.69 10.84 0 19.69-8.81 19.69-19.69 0-10.88-8.85-19.69-19.69-19.69zm3.94 3.14c3.69 0.86 6.9 2.91 9.23 5.72l-4.87 0c-1.09-2.17-2.54-4.12-4.36-5.72zm-8.65 0.2c-1.64 1.55-2.92 3.44-3.88 5.52l-4.57 0c2.16-2.61 5.09-4.56 8.45-5.52zm5.71 0.88c1.74 1.22 3.17 2.81 4.29 4.64l-4.29 0 0-4.64zm-2.62 0.02 0 4.62-4 0c1.02-1.83 2.35-3.42 4-4.62zm-13.36 7.31 5.37 0c-0.67 2.16-1.05 4.44-1.16 6.73l-6.22 0c0.2-2.42 0.9-4.7 2.01-6.73zm8.15 0 5.22 0 0 6.73-6.53 0c0.12-2.33 0.55-4.63 1.31-6.73zm7.84 0 5.63 0c0.85 2.1 1.35 4.4 1.5 6.73l-7.13 0 0-6.73zm8.44 0 5.56 0c1.11 2.03 1.81 4.31 2.01 6.73l-6.25 0c-0.13-2.29-0.57-4.58-1.32-6.73zm-26.45 9.42 6.24 0c0.1 2.2 0.45 4.39 1.03 6.44l-5.46 0c-1-1.96-1.64-4.14-1.81-6.44zm8.86 0 6.52 0 0 6.44-5.34 0c-0.66-1.99-1.07-4.19-1.19-6.44zm9.15 0 7.15 0c-0.12 2.24-0.56 4.43-1.32 6.44l-5.83 0 0-6.44zm9.77 0 6.25 0c-0.17 2.31-0.81 4.48-1.81 6.44l-5.6 0c0.67-2.06 1.06-4.24 1.16-6.44zm-24.25 9.13 4.68 0c0.96 2.29 2.27 4.31 3.92 5.87-3.46-1.02-6.45-3.11-8.6-5.87zm7.63 0 4.22 0 0 5.03c-1.7-1.11-3.14-2.87-4.22-5.03zm6.85 0 4.55 0c-1.15 1.97-2.67 3.67-4.55 4.91l0-4.91zm7.53 0 4.96 0c-2.37 3.05-5.77 5.27-9.68 6.15 2.01-1.66 3.58-3.78 4.72-6.15z" style="baseline-shift:baseline;block-progression:tb;color:#000000;direction:ltr;display:inline;enable-background:accumulate;fill-rule:nonzero;fill:#000;font-family:sans-serif;font-size:medium;letter-spacing:normal;line-height:normal;opacity:0.6;overflow:visible;text-align:start;text-anchor:start;text-decoration:none;text-indent:0;text-transform:none;word-spacing:normal;writing-mode:lr-tb"/>
  <text xml:space="preserve" x="-106.79" y="152.17" id="text5328" sodipodi:linespacing="100" style="-inkscape-font-specification:Open Sans;fill:#000;font-family:Open Sans;font-size:9;letter-spacing:0;line-height:100;text-align:start;text-anchor:start;word-spacing:0">
    <tspan sodipodi:role="line" id="tspan5330" x="-106.79" y="152.17"/>
  </text>
  <circle id="circle3034" cx="224.71" cy="150" r="56.25" sodipodi:cx="224.71" sodipodi:cy="150" sodipodi:rx="56.25" sodipodi:ry="56.25" d="m 280.96134,150 c 0,31.06587 -25.18386,56.24973 -56.24973,56.24973 -31.06587,0 -56.24973,-25.18386 -56.24973,-56.24973 0,-31.06587 25.18386,-56.249733 56.24973,-56.249733 31.06587,0 56.24973,25.183863 56.24973,56.249733 z" transform="matrix(-0.974845,-0.41151867,0.41151867,-0.974845,229.86709,311.23569)" fill="none"/>
  <text sodipodi:linespacing="125" id="text3025" xml:space="preserve" transform="translate(-152.1757,-77.464078)" style="-inkscape-font-specification:Varela Round;fill:#000;font-family:Varela Round;font-size:15;letter-spacing:0;line-height:125;word-spacing:0">
    <textPath id="textPath3027" xlink:href="#circle3034"/>
  </text>
  <text xml:space="preserve" id="text3031" sodipodi:linespacing="125" transform="translate(-152.1757,-77.464078)" style="-inkscape-font-specification:Varela Round;fill:#000;font-family:Varela Round;font-size:15;letter-spacing:0;line-height:125;word-spacing:0">
    <textPath xlink:href="#circle3034" id="textPath3033"/>
  </text>
  <text sodipodi:linespacing="125" id="text3037" xml:space="preserve" transform="translate(-152.1757,-77.464078)" style="-inkscape-font-specification:Varela Round;fill:#000;font-family:Varela Round;font-size:15;letter-spacing:0;line-height:125;word-spacing:0">
    <textPath id="textPath3039" xlink:href="#circle3034"/>
  </text>
  <path d="M4.53 78.28C7.7 115.83 40.72 143.71 78.28 140.54 115.83 137.37 143.71 104.35 140.54 66.8 137.37 29.24 104.35 1.36 66.8 4.53 29.24 7.7 1.36 40.72 4.53 78.28z" id="circle3048" inkscape:connector-curvature="0" fill="none"/>
  <g id="text3036" transform="translate(0.0567751,-0.2263251)" style="-inkscape-font-specification:Varela Round;fill:#665244;font-family:Varela Round;font-size:15;letter-spacing:0;line-height:125;text-align:start;text-anchor:start;word-spacing:0">
    <path id="path3064" d="m18.42 45.62c0.62-1.25 0.52-2.09-0.3-2.49-0.34-0.17-0.74-0.07-1.19 0.31-0.19 0.17-0.39 0.37-0.59 0.62-0.21 0.24-0.42 0.48-0.64 0.73-0.22 0.24-0.45 0.48-0.68 0.71-0.24 0.22-0.49 0.4-0.75 0.54-0.59 0.3-1.18 0.3-1.77 0.01-0.63-0.31-1.03-0.81-1.2-1.48-0.18-0.73-0.06-1.53 0.37-2.4 0.39-0.78 0.86-1.44 1.42-1.96 0.17-0.17 0.36-0.19 0.58-0.09 0.11 0.05 0.19 0.14 0.25 0.27 0.06 0.12 0.06 0.22 0.02 0.32-0.04 0.09-0.13 0.19-0.27 0.32-0.4 0.38-0.74 0.88-1.04 1.48-0.27 0.55-0.4 1.06-0.37 1.52 0.03 0.47 0.25 0.81 0.64 1 0.41 0.2 0.83 0.12 1.28-0.25 0.21-0.17 0.41-0.37 0.61-0.61 0.2-0.24 0.41-0.49 0.62-0.74 0.21-0.25 0.44-0.49 0.67-0.71 0.23-0.23 0.47-0.41 0.74-0.54 0.58-0.3 1.19-0.29 1.84 0.03 0.62 0.31 1 0.8 1.14 1.49 0.14 0.7 0.01 1.47-0.41 2.3-0.45 0.91-1.05 1.68-1.79 2.3-0.07 0.06-0.17 0.1-0.28 0.13-0.11 0.02-0.21 0-0.32-0.05-0.11-0.06-0.2-0.15-0.24-0.27-0.05-0.13-0.06-0.24-0.01-0.34 0.05-0.11 0.15-0.22 0.3-0.33 0.14-0.13 0.35-0.34 0.62-0.65 0.27-0.3 0.52-0.69 0.75-1.16M25.43 34.76" inkscape:connector-curvature="0" style="fill:#665244;font-size:12;letter-spacing:1.13"/>
    <path id="path3066" d="m25.43 34.76c0.1 0.02 0.2 0.07 0.29 0.13 0.09 0.06 0.14 0.16 0.17 0.3 0.03 0.14-0.01 0.29-0.13 0.46-0.12 0.17-0.3 0.23-0.54 0.18l-1.98-0.43-2.34 3.35 1.09 1.71c0.13 0.21 0.13 0.4 0.01 0.57-0.12 0.17-0.25 0.27-0.39 0.28-0.14 0.02-0.25 0-0.34-0.06-0.09-0.06-0.17-0.14-0.22-0.23L16.89 34.37C16.7 34.06 16.7 33.78 16.88 33.52l0.07-0.1c0.18-0.26 0.45-0.36 0.8-0.29l7.67 1.63m-3.24 0.41-4.13-0.9 2.27 3.56 1.85-2.66" inkscape:connector-curvature="0" style="fill:#665244;font-size:12;letter-spacing:1.13"/>
    <path id="path3068" d="m28.76 30.68-3.12-6.91c-0.11-0.25-0.09-0.44 0.05-0.59 0.14-0.15 0.29-0.22 0.43-0.22 0.14 0 0.26 0.05 0.34 0.13 0.09 0.08 0.14 0.15 0.17 0.21l3.13 7.12c0.15 0.38 0.11 0.68-0.12 0.92l-0.18 0.19c-0.23 0.24-0.53 0.29-0.91 0.15l-7.24-2.84c-0.06-0.02-0.13-0.07-0.22-0.16-0.09-0.08-0.13-0.2-0.14-0.34-0.01-0.14 0.04-0.26 0.14-0.37 0.18-0.19 0.4-0.24 0.65-0.14l7.02 2.84" inkscape:connector-curvature="0" style="fill:#665244;font-size:12;letter-spacing:1.13"/>
    <path id="path3070" d="m37.8 22.87c0.11-0.09 0.24-0.12 0.38-0.1 0.14 0.01 0.26 0.08 0.34 0.19 0.09 0.11 0.12 0.24 0.1 0.38-0.02 0.13-0.08 0.25-0.2 0.33l-3.82 2.93c-0.12 0.09-0.25 0.13-0.4 0.11-0.15-0.02-0.26-0.09-0.36-0.21l-4.43-5.78c-0.09-0.12-0.13-0.25-0.11-0.4 0.01-0.15 0.08-0.27 0.2-0.37l3.82-2.93c0.11-0.09 0.24-0.12 0.38-0.1 0.14 0.01 0.26 0.08 0.34 0.19 0.09 0.11 0.12 0.24 0.1 0.38-0.02 0.13-0.08 0.25-0.2 0.33l-3.38 2.59 1.61 2.11 3.04-2.33c0.11-0.09 0.24-0.12 0.38-0.1 0.14 0.01 0.26 0.08 0.34 0.19 0.09 0.11 0.12 0.24 0.1 0.38-0.02 0.13-0.08 0.25-0.2 0.33l-3.04 2.33 1.62 2.11 3.38-2.59" inkscape:connector-curvature="0" style="fill:#665244;font-size:12;letter-spacing:1.13"/>
    <path id="path3073" d="m46.41 9.8c0.13-0.06 0.26-0.06 0.39-0.01 0.13 0.04 0.23 0.13 0.29 0.26 0.06 0.13 0.06 0.26 0.01 0.39-0.05 0.13-0.13 0.22-0.26 0.28l-2.21 1.03 2.92 6.23c0.06 0.14 0.07 0.28 0.01 0.42-0.05 0.14-0.14 0.24-0.28 0.3-0.14 0.06-0.28 0.07-0.41 0.02-0.14-0.05-0.24-0.14-0.3-0.28l-2.92-6.23-2.22 1.04c-0.13 0.06-0.26 0.07-0.39 0.02-0.13-0.05-0.22-0.13-0.28-0.26-0.06-0.13-0.07-0.26-0.02-0.39 0.04-0.13 0.13-0.23 0.26-0.29l5.41-2.54" inkscape:connector-curvature="0" style="fill:#665244;font-size:12;letter-spacing:1.13"/>
    <path id="path3075" d="m56.34 6.48c0.15-0.04 0.28-0.02 0.42 0.05 0.14 0.07 0.23 0.18 0.27 0.32l2.06 7.11c0.04 0.15 0.02 0.28-0.05 0.42-0.07 0.13-0.18 0.21-0.33 0.26-0.15 0.04-0.28 0.03-0.41-0.04-0.13-0.07-0.21-0.18-0.26-0.33l-0.89-3.07-4.37 1.27 0.89 3.07c0.04 0.15 0.02 0.28-0.05 0.42-0.07 0.13-0.18 0.21-0.33 0.26-0.15 0.04-0.28 0.03-0.41-0.04-0.13-0.07-0.21-0.18-0.26-0.33L50.55 8.73c-0.04-0.15-0.03-0.28 0.04-0.41 0.07-0.14 0.18-0.23 0.32-0.27 0.15-0.04 0.28-0.02 0.42 0.05 0.14 0.07 0.23 0.18 0.27 0.32l0.89 3.07 4.37-1.27L55.97 7.16C55.93 7.01 55.94 6.87 56.01 6.74 56.08 6.61 56.19 6.52 56.34 6.48" inkscape:connector-curvature="0" style="fill:#665244;font-size:12;letter-spacing:1.13"/>
    <path id="path3077" d="m67.81 12.11c0.14-0.02 0.27 0.02 0.38 0.11 0.12 0.08 0.18 0.2 0.2 0.34 0.02 0.14-0.02 0.27-0.11 0.38-0.08 0.11-0.2 0.17-0.34 0.19l-4.78 0.59c-0.15 0.02-0.28-0.02-0.4-0.11-0.12-0.09-0.18-0.21-0.2-0.36L61.67 6.01c-0.02-0.15 0.02-0.28 0.11-0.4 0.09-0.12 0.21-0.2 0.36-0.21l4.78-0.59c0.14-0.02 0.27 0.02 0.38 0.11 0.12 0.08 0.18 0.2 0.2 0.34 0.02 0.14-0.02 0.27-0.11 0.38-0.08 0.11-0.2 0.17-0.34 0.19l-4.23 0.52 0.33 2.63 3.8-0.47c0.14-0.02 0.27 0.02 0.38 0.11 0.12 0.08 0.18 0.2 0.2 0.34 0.02 0.14-0.02 0.27-0.11 0.38-0.08 0.11-0.2 0.17-0.34 0.19l-3.8 0.47 0.33 2.64 4.23-0.52" inkscape:connector-curvature="0" style="fill:#665244;font-size:12;letter-spacing:1.13"/>
    <path id="path3079" d="m76.67 4.69c0.15 0.01 0.28 0.07 0.37 0.19 0.11 0.11 0.15 0.24 0.14 0.39l-0.45 7.39c-0.01 0.15-0.07 0.28-0.19 0.37-0.11 0.1-0.24 0.14-0.39 0.13-0.15-0.01-0.28-0.07-0.37-0.18-0.1-0.11-0.14-0.24-0.13-0.39l0.45-7.39c0.01-0.15 0.07-0.28 0.18-0.37 0.11-0.11 0.24-0.15 0.39-0.14" inkscape:connector-curvature="0" style="fill:#665244;font-size:12;letter-spacing:1.13"/>
    <path id="path3081" d="m88.4 6.37c0.15 0.03 0.26 0.11 0.35 0.24 0.09 0.12 0.12 0.26 0.09 0.41l-1.36 7.03c-0.04 0.21-0.15 0.38-0.34 0.5-0.18 0.12-0.37 0.16-0.59 0.12l-0.14-0.03c-0.26-0.05-0.45-0.2-0.56-0.44L82.56 6.74 81.33 13.11c-0.03 0.15-0.11 0.26-0.24 0.35-0.12 0.08-0.26 0.11-0.41 0.08-0.15-0.03-0.27-0.1-0.35-0.23-0.08-0.12-0.11-0.26-0.08-0.41l1.36-7.03C81.65 5.66 81.76 5.49 81.94 5.37 82.12 5.24 82.32 5.2 82.53 5.24l0.15 0.03c0.24 0.05 0.44 0.21 0.58 0.48l3.27 7.43 1.23-6.36c0.03-0.15 0.1-0.27 0.23-0.35 0.12-0.09 0.26-0.12 0.41-0.09" inkscape:connector-curvature="0" style="fill:#665244;font-size:12;letter-spacing:1.13"/>
    <path id="path3083" d="m98.68 9.81c0.14 0.05 0.23 0.14 0.28 0.27 0.06 0.13 0.07 0.26 0.02 0.39-0.05 0.14-0.14 0.23-0.27 0.28-0.12 0.06-0.25 0.06-0.39 0.01L96.04 9.92 93.68 16.38c-0.05 0.14-0.15 0.24-0.29 0.3-0.13 0.06-0.27 0.07-0.41 0.01-0.14-0.05-0.24-0.15-0.31-0.28-0.06-0.13-0.07-0.27-0.01-0.41L95.02 9.55 92.72 8.7C92.59 8.66 92.49 8.57 92.43 8.45 92.37 8.32 92.37 8.19 92.42 8.06 92.47 7.92 92.56 7.83 92.68 7.77 92.81 7.7 92.94 7.7 93.07 7.75l5.61 2.06" inkscape:connector-curvature="0" style="fill:#665244;font-size:12;letter-spacing:1.13"/>
    <path id="path3085" d="m103.7 20.56c0.13 0.07 0.21 0.17 0.24 0.31 0.05 0.13 0.03 0.26-0.03 0.39-0.07 0.13-0.17 0.21-0.31 0.24-0.13 0.04-0.26 0.02-0.39-0.04l-4.23-2.28c-0.13-0.07-0.22-0.18-0.26-0.32-0.04-0.14-0.03-0.28 0.05-0.41l3.46-6.41c0.07-0.13 0.18-0.22 0.32-0.26 0.14-0.05 0.28-0.04 0.42 0.03l4.23 2.28c0.13 0.07 0.21 0.17 0.24 0.31 0.05 0.13 0.03 0.26-0.03 0.39-0.07 0.13-0.17 0.21-0.31 0.24-0.13 0.04-0.26 0.02-0.39-0.04l-3.75-2.02-1.26 2.33 3.37 1.82c0.13 0.07 0.21 0.17 0.24 0.31 0.05 0.13 0.03 0.26-0.03 0.39-0.07 0.13-0.17 0.21-0.31 0.24-0.13 0.04-0.26 0.02-0.39-0.04l-3.37-1.82-1.26 2.34 3.75 2.02" inkscape:connector-curvature="0" style="fill:#665244;font-size:12;letter-spacing:1.13"/>
    <path id="path3087" d="m111.62 26.86c-0.09 0.12-0.21 0.19-0.36 0.21-0.15 0.02-0.28-0.02-0.41-0.12-0.13-0.1-0.2-0.21-0.23-0.35-0.01-0.14 0.03-0.28 0.13-0.4l0.22-0.29c0.39-0.52 0.62-0.94 0.69-1.27 0.07-0.33 0.06-0.64-0.03-0.93-0.09-0.3-0.31-0.58-0.67-0.86l-1.98-1.5-1.69 2.22c-0.09 0.12-0.21 0.19-0.37 0.2-0.15 0.02-0.28-0.02-0.4-0.11-0.12-0.09-0.19-0.21-0.21-0.36-0.02-0.15 0.02-0.28 0.11-0.4l4.45-5.85c0.09-0.12 0.21-0.19 0.36-0.21 0.15-0.03 0.29 0.01 0.41 0.1l2.23 1.69c0.87 0.66 1.39 1.35 1.56 2.06 0.15 0.67 0 1.28-0.43 1.86-0.28 0.37-0.65 0.63-1.1 0.79-0.45 0.16-0.93 0.16-1.47-0.01 0.37 0.47 0.45 1.05 0.24 1.75-0.14 0.46-0.38 0.91-0.7 1.34l-0.33 0.44m-0.29-5.01c0.53 0.41 1.04 0.63 1.53 0.67 0.49 0.04 0.89-0.14 1.2-0.55 0.29-0.38 0.38-0.77 0.27-1.15-0.14-0.45-0.54-0.93-1.2-1.43l-1.68-1.28-1.85 2.43 1.73 1.31" inkscape:connector-curvature="0" style="fill:#665244;font-size:12;letter-spacing:1.13"/>
    <path id="path3089" d="m124.47 28.57c0.1 0.11 0.15 0.24 0.14 0.4 0 0.15-0.06 0.28-0.17 0.38l-5.25 4.87c-0.16 0.15-0.35 0.21-0.57 0.2-0.21-0.01-0.4-0.09-0.54-0.25l-0.1-0.11c-0.18-0.19-0.24-0.42-0.19-0.69l1.76-7.97-4.76 4.41c-0.11 0.1-0.24 0.15-0.4 0.14-0.15-0.01-0.27-0.06-0.38-0.18-0.1-0.11-0.15-0.24-0.15-0.39 0.01-0.15 0.06-0.27 0.18-0.38l5.25-4.87c0.16-0.15 0.34-0.22 0.56-0.21 0.22 0 0.4 0.08 0.55 0.24l0.11 0.11c0.17 0.18 0.23 0.42 0.18 0.73l-1.75 7.92 4.75-4.41c0.11-0.1 0.24-0.15 0.39-0.15 0.15 0 0.28 0.06 0.38 0.17" inkscape:connector-curvature="0" style="fill:#665244;font-size:12;letter-spacing:1.13"/>
    <path id="path3091" d="m124.53 41.39c0.08 0.12 0.1 0.25 0.07 0.39-0.02 0.14-0.09 0.25-0.21 0.33-0.12 0.08-0.25 0.1-0.39 0.07-0.13-0.03-0.24-0.1-0.32-0.22l-2.65-4.02c-0.08-0.13-0.11-0.26-0.08-0.41 0.03-0.14 0.11-0.26 0.23-0.34l6.08-4.01c0.13-0.08 0.26-0.11 0.41-0.08 0.15 0.03 0.27 0.1 0.35 0.23l2.65 4.02c0.08 0.12 0.1 0.25 0.07 0.39-0.02 0.14-0.09 0.25-0.21 0.33-0.12 0.08-0.25 0.1-0.39 0.07-0.13-0.03-0.24-0.1-0.32-0.22l-2.35-3.56-2.21 1.46 2.11 3.2c0.08 0.12 0.1 0.25 0.07 0.39-0.02 0.14-0.09 0.25-0.21 0.33-0.12 0.08-0.25 0.1-0.39 0.07-0.13-0.03-0.24-0.1-0.32-0.22l-2.11-3.2-2.22 1.47 2.35 3.56" inkscape:connector-curvature="0" style="fill:#665244;font-size:12;letter-spacing:1.13"/>
    <path id="path3093" d="m135.26 46.37c0.06 0.13 0.07 0.26 0.01 0.39-0.04 0.13-0.13 0.23-0.26 0.29-0.13 0.06-0.26 0.07-0.39 0.01-0.13-0.05-0.22-0.13-0.28-0.26l-1.03-2.21-6.22 2.92c-0.14 0.06-0.28 0.07-0.42 0.01-0.14-0.05-0.24-0.14-0.3-0.28-0.06-0.14-0.07-0.28-0.02-0.41 0.05-0.14 0.14-0.24 0.28-0.3l6.22-2.92-1.04-2.22c-0.06-0.13-0.07-0.26-0.02-0.39 0.05-0.13 0.13-0.22 0.26-0.28 0.13-0.06 0.26-0.07 0.39-0.02 0.13 0.04 0.23 0.13 0.29 0.26l2.54 5.41" inkscape:connector-curvature="0" style="fill:#665244;font-size:12;letter-spacing:1.13"/>
  </g>
  <g id="text3050" transform="translate(0.0567751,-0.2263251)" style="-inkscape-font-specification:Varela Round;fill:#665244;font-family:Varela Round;font-size:15;letter-spacing:0;line-height:125;word-spacing:0">
    <path id="path3096" d="m6.03 82.26 7.36 1.78c0.26 0.07 0.4 0.2 0.43 0.4 0.03 0.21 0 0.36-0.09 0.47-0.09 0.11-0.19 0.17-0.31 0.19-0.12 0.02-0.21 0.02-0.27 0L5.62 83.21C5.23 83.09 5.02 82.88 4.97 82.55l-0.04-0.26c-0.05-0.32 0.1-0.6 0.44-0.82L12.06 77.51c0.05-0.03 0.14-0.06 0.26-0.07 0.12-0.02 0.24 0.01 0.35 0.09 0.12 0.08 0.19 0.19 0.21 0.33 0.04 0.26-0.06 0.46-0.29 0.6l-6.56 3.8M15.4 90.05" inkscape:connector-curvature="0" style="fill:#665244;font-size:12;letter-spacing:1.5"/>
    <path id="path3098" d="m15.4 90.05c0.37 1.21 0.28 2.3-0.27 3.27-0.54 0.94-1.41 1.61-2.62 2.02-1.23 0.34-2.33 0.27-3.3-0.21C8.21 94.63 7.53 93.77 7.16 92.56 6.79 91.35 6.88 90.26 7.43 89.29 7.97 88.33 8.85 87.66 10.05 87.28c1.21-0.35 2.31-0.28 3.3 0.21 0.99 0.49 1.68 1.35 2.05 2.56m-7.27 2.21c0.28 0.93 0.81 1.58 1.58 1.93 0.74 0.34 1.57 0.38 2.48 0.1 0.91-0.28 1.58-0.77 2-1.46 0.44-0.72 0.52-1.55 0.24-2.48-0.28-0.93-0.81-1.58-1.58-1.93-0.74-0.34-1.57-0.38-2.48-0.1-0.91 0.28-1.58 0.77-2 1.46-0.44 0.72-0.52 1.55-0.24 2.48" inkscape:connector-curvature="0" style="fill:#665244;font-size:12;letter-spacing:1.5"/>
    <path id="path3100" d="m19.63 100.74c0.06 0.13 0.07 0.26 0.01 0.39-0.04 0.14-0.13 0.23-0.26 0.29-0.13 0.06-0.26 0.07-0.39 0.01-0.13-0.05-0.22-0.13-0.28-0.26l-1.04-2.2-6.22 2.94c-0.14 0.06-0.28 0.07-0.42 0.01-0.14-0.05-0.24-0.14-0.31-0.28-0.06-0.14-0.07-0.28-0.02-0.41 0.05-0.14 0.14-0.24 0.28-0.31l6.22-2.94-1.05-2.21c-0.06-0.13-0.07-0.26-0.02-0.39 0.05-0.13 0.13-0.22 0.26-0.28 0.13-0.06 0.26-0.07 0.39-0.02 0.14 0.04 0.23 0.13 0.29 0.26l2.55 5.4" inkscape:connector-curvature="0" style="fill:#665244;font-size:12;letter-spacing:1.5"/>
    <path id="path3102" d="m17.45 111.19c0.08 0.12 0.1 0.25 0.06 0.39-0.02 0.14-0.1 0.25-0.22 0.33-0.12 0.08-0.25 0.1-0.39 0.06-0.13-0.03-0.24-0.1-0.32-0.22l-2.61-4.04c-0.08-0.13-0.11-0.26-0.08-0.41 0.03-0.14 0.11-0.26 0.24-0.34l6.12-3.95c0.13-0.08 0.26-0.11 0.41-0.08 0.15 0.03 0.27 0.1 0.35 0.23l2.61 4.04c0.08 0.12 0.1 0.25 0.06 0.39-0.02 0.14-0.1 0.25-0.22 0.33-0.12 0.08-0.25 0.1-0.39 0.06-0.13-0.03-0.24-0.1-0.32-0.22l-2.31-3.58-2.23 1.44 2.07 3.22c0.08 0.12 0.1 0.25 0.06 0.39-0.02 0.14-0.1 0.25-0.22 0.33-0.12 0.08-0.25 0.1-0.39 0.06-0.13-0.03-0.24-0.1-0.32-0.22l-2.07-3.22-2.24 1.44 2.31 3.58" inkscape:connector-curvature="0" style="fill:#665244;font-size:12;letter-spacing:1.5"/>
    <path id="path3104" d="m27.9 113.97-1.9 1.85 2.58 2.65c0.1 0.1 0.15 0.23 0.14 0.37 0 0.14-0.05 0.26-0.15 0.36-0.1 0.1-0.23 0.15-0.37 0.14-0.14 0-0.25-0.05-0.35-0.16l-2.58-2.65-2.3 2.23c-0.11 0.11-0.24 0.16-0.39 0.15-0.15 0-0.27-0.06-0.38-0.17-0.11-0.11-0.16-0.24-0.16-0.38 0-0.15 0.06-0.27 0.17-0.38l5.26-5.12c0.11-0.11 0.24-0.16 0.38-0.16 0.15 0 0.28 0.05 0.39 0.16l3.26 3.35c0.1 0.1 0.15 0.23 0.14 0.37 0 0.14-0.05 0.26-0.15 0.36-0.1 0.1-0.23 0.15-0.37 0.14-0.14 0-0.25-0.05-0.35-0.16l-2.87-2.95" inkscape:connector-curvature="0" style="fill:#665244;font-size:12;letter-spacing:1.5"/>
    <path id="path3106" d="m36.26 120.01c1 0.77 1.57 1.71 1.68 2.81 0.11 1.08-0.21 2.14-0.96 3.17-0.8 0.99-1.73 1.57-2.81 1.75-1.1 0.18-2.15-0.12-3.16-0.89-1.01-0.77-1.57-1.71-1.68-2.81-0.12-1.1 0.2-2.15 0.96-3.17 0.78-0.99 1.72-1.58 2.81-1.75 1.09-0.18 2.15 0.12 3.16 0.89m-4.61 6.03c0.78 0.59 1.58 0.81 2.41 0.65 0.8-0.15 1.49-0.61 2.07-1.36 0.58-0.76 0.84-1.54 0.77-2.35-0.06-0.84-0.48-1.56-1.25-2.15-0.78-0.59-1.58-0.81-2.41-0.65-0.8 0.15-1.49 0.61-2.07 1.36-0.58 0.76-0.84 1.54-0.77 2.35 0.06 0.84 0.48 1.56 1.25 2.15" inkscape:connector-curvature="0" style="fill:#665244;font-size:12;letter-spacing:1.5"/>
    <path id="path3108" d="m43.24 133.75c-0.07 0.13-0.18 0.22-0.32 0.26-0.14 0.04-0.28 0.02-0.42-0.05-0.14-0.08-0.23-0.18-0.28-0.32-0.03-0.14-0.01-0.28 0.06-0.42l0.17-0.32c0.31-0.57 0.47-1.02 0.49-1.36 0.02-0.34-0.04-0.64-0.17-0.91-0.13-0.28-0.4-0.53-0.8-0.75l-2.18-1.19-1.33 2.45c-0.07 0.13-0.18 0.22-0.33 0.26-0.14 0.04-0.28 0.03-0.41-0.05-0.13-0.07-0.22-0.18-0.26-0.32-0.04-0.14-0.03-0.28 0.05-0.41l3.51-6.45c0.07-0.13 0.18-0.22 0.32-0.26 0.14-0.05 0.28-0.04 0.42 0.04l2.46 1.33c0.96 0.52 1.58 1.12 1.85 1.8 0.25 0.63 0.2 1.27-0.15 1.9-0.22 0.41-0.54 0.72-0.97 0.95-0.42 0.23-0.9 0.3-1.45 0.21 0.43 0.41 0.6 0.97 0.5 1.69-0.07 0.48-0.23 0.96-0.49 1.43l-0.26 0.49m-1.05-4.91c0.59 0.32 1.13 0.46 1.61 0.43 0.49-0.03 0.86-0.28 1.1-0.72 0.23-0.42 0.26-0.81 0.09-1.18-0.21-0.42-0.68-0.83-1.41-1.23l-1.86-1.01-1.45 2.68 1.91 1.04" inkscape:connector-curvature="0" style="fill:#665244;font-size:12;letter-spacing:1.5"/>
    <path id="path3110" d="m59.34 130.97c0.15 0.04 0.25 0.13 0.32 0.27 0.08 0.13 0.1 0.27 0.06 0.42l-1.94 6.9c-0.06 0.21-0.19 0.36-0.38 0.47-0.19 0.11-0.39 0.13-0.59 0.07l-0.14-0.04c-0.25-0.07-0.43-0.23-0.52-0.48l-2.66-7.71-1.76 6.25c-0.04 0.15-0.13 0.25-0.27 0.32-0.13 0.07-0.27 0.09-0.41 0.05-0.15-0.04-0.26-0.13-0.33-0.25-0.07-0.13-0.09-0.27-0.05-0.41l1.94-6.9c0.06-0.21 0.18-0.36 0.37-0.47 0.19-0.11 0.39-0.14 0.6-0.08l0.15 0.04c0.24 0.07 0.42 0.24 0.54 0.53l2.64 7.67 1.75-6.24c0.04-0.15 0.13-0.26 0.25-0.33 0.13-0.08 0.27-0.1 0.42-0.06" inkscape:connector-curvature="0" style="fill:#665244;font-size:12;letter-spacing:1.5"/>
    <path id="path3112" d="m66.8 139.58c0.14 0.02 0.26 0.08 0.34 0.2 0.09 0.11 0.13 0.23 0.11 0.38-0.02 0.14-0.08 0.26-0.2 0.34-0.11 0.08-0.23 0.12-0.38 0.1l-4.77-0.6c-0.15-0.02-0.27-0.09-0.36-0.2-0.09-0.12-0.13-0.25-0.11-0.4l0.9-7.23c0.02-0.15 0.09-0.27 0.2-0.36 0.12-0.1 0.25-0.14 0.4-0.12l4.77 0.6c0.14 0.02 0.26 0.08 0.34 0.2 0.09 0.11 0.13 0.23 0.11 0.38-0.02 0.14-0.08 0.26-0.2 0.34-0.11 0.08-0.23 0.12-0.38 0.1l-4.23-0.53-0.33 2.63 3.8 0.47c0.14 0.02 0.26 0.08 0.34 0.2 0.09 0.11 0.13 0.23 0.11 0.38-0.02 0.14-0.08 0.26-0.2 0.34-0.11 0.08-0.23 0.12-0.38 0.1l-3.8-0.47-0.33 2.64 4.23 0.53" inkscape:connector-curvature="0" style="fill:#665244;font-size:12;letter-spacing:1.5"/>
    <path id="path3114" d="m75.91 132.38c0.14 0 0.26 0.05 0.36 0.15 0.1 0.1 0.16 0.21 0.16 0.36 0 0.14-0.05 0.26-0.15 0.36-0.1 0.1-0.21 0.15-0.36 0.15l-2.44 0.02 0.05 6.88c0 0.15-0.05 0.28-0.17 0.39-0.1 0.1-0.23 0.16-0.38 0.16-0.15 0-0.28-0.05-0.39-0.15-0.1-0.1-0.16-0.23-0.16-0.38l-0.05-6.88-2.45 0.02c-0.14 0-0.26-0.05-0.36-0.14-0.1-0.1-0.15-0.21-0.15-0.36 0-0.14 0.05-0.26 0.14-0.36 0.1-0.1 0.21-0.16 0.36-0.16l5.98-0.05" inkscape:connector-curvature="0" style="fill:#665244;font-size:12;letter-spacing:1.5"/>
    <path id="path3116" d="m88.66 130.22c0.15-0.03 0.29-0.01 0.41 0.08 0.13 0.08 0.21 0.19 0.25 0.34l1.56 6.99c0.05 0.21 0.01 0.41-0.11 0.59-0.12 0.18-0.28 0.3-0.49 0.34l-0.14 0.03c-0.26 0.06-0.49 0-0.69-0.18l-5.99-5.54 1.41 6.34c0.03 0.15 0.01 0.29-0.08 0.41-0.08 0.12-0.19 0.2-0.34 0.24-0.15 0.03-0.28 0.01-0.41-0.07-0.12-0.08-0.2-0.19-0.24-0.34l-1.56-6.99c-0.05-0.21-0.01-0.41 0.1-0.59 0.11-0.19 0.28-0.31 0.49-0.35l0.15-0.03c0.24-0.05 0.48 0.02 0.72 0.21l5.96 5.51-1.41-6.32c-0.03-0.15-0.01-0.28 0.07-0.41 0.08-0.13 0.19-0.21 0.34-0.25" inkscape:connector-curvature="0" style="fill:#665244;font-size:12;letter-spacing:1.5"/>
    <path id="path3118" d="m99.31 134.28c0.13-0.05 0.26-0.05 0.39 0.02 0.13 0.05 0.22 0.15 0.28 0.28 0.05 0.13 0.05 0.26-0.02 0.39-0.05 0.12-0.15 0.21-0.28 0.26l-4.49 1.73c-0.14 0.05-0.28 0.05-0.41-0.01-0.13-0.06-0.23-0.16-0.28-0.3l-2.63-6.79c-0.05-0.14-0.05-0.28 0.01-0.41 0.06-0.14 0.16-0.24 0.3-0.3l4.49-1.73c0.13-0.05 0.26-0.05 0.39 0.02 0.13 0.05 0.22 0.15 0.28 0.28 0.05 0.13 0.05 0.27-0.02 0.39-0.05 0.12-0.15 0.21-0.28 0.26l-3.97 1.54 0.96 2.47 3.57-1.38c0.13-0.05 0.26-0.05 0.39 0.02 0.13 0.05 0.22 0.15 0.28 0.28 0.05 0.13 0.05 0.27-0.02 0.39-0.05 0.12-0.15 0.21-0.28 0.26l-3.57 1.38 0.96 2.48 3.97-1.54" inkscape:connector-curvature="0" style="fill:#665244;font-size:12;letter-spacing:1.5"/>
    <path id="path3120" d="m104.46 123.21c0.13-0.07 0.27-0.09 0.42-0.04 0.15 0.04 0.26 0.12 0.34 0.25l2.33 4.13c0.52 0.91 0.59 1.81 0.23 2.71-0.3 0.78-0.85 1.39-1.63 1.83-0.79 0.45-1.6 0.6-2.42 0.46-0.94-0.16-1.67-0.69-2.19-1.6l-2.33-4.13c-0.07-0.13-0.09-0.27-0.05-0.41 0.04-0.15 0.12-0.26 0.25-0.34 0.13-0.07 0.27-0.09 0.42-0.04 0.15 0.04 0.26 0.12 0.34 0.25l2.35 4.16c0.35 0.62 0.84 0.99 1.46 1.1 0.57 0.1 1.13-0.01 1.68-0.32 0.55-0.31 0.93-0.74 1.14-1.28 0.22-0.6 0.16-1.2-0.19-1.82l-2.35-4.16c-0.07-0.13-0.09-0.27-0.05-0.41 0.04-0.15 0.12-0.26 0.25-0.34" inkscape:connector-curvature="0" style="fill:#665244;font-size:12;letter-spacing:1.5"/>
    <path id="path3122" d="m111.43 118.16c0.11-0.09 0.24-0.12 0.38-0.1 0.14 0.01 0.26 0.08 0.34 0.19 0.09 0.11 0.12 0.24 0.1 0.38-0.02 0.13-0.08 0.25-0.2 0.33l-1.93 1.49 4.2 5.44c0.09 0.12 0.13 0.26 0.1 0.41-0.02 0.15-0.09 0.27-0.21 0.36-0.12 0.09-0.25 0.13-0.4 0.11-0.15-0.02-0.27-0.09-0.36-0.21l-4.2-5.44-1.94 1.5c-0.11 0.09-0.24 0.12-0.37 0.11-0.13-0.02-0.25-0.08-0.33-0.2-0.09-0.11-0.12-0.24-0.11-0.37 0.01-0.14 0.08-0.26 0.19-0.34l4.73-3.65" inkscape:connector-curvature="0" style="fill:#665244;font-size:12;letter-spacing:1.5"/>
    <path id="path3124" d="m123.29 117.57c0.11 0.11 0.16 0.23 0.16 0.38 0 0.15-0.05 0.28-0.17 0.39-0.11 0.11-0.24 0.17-0.38 0.18-0.14 0-0.27-0.06-0.38-0.17l-0.26-0.25c-0.46-0.45-0.85-0.74-1.17-0.85-0.32-0.11-0.63-0.14-0.93-0.08-0.31 0.05-0.62 0.24-0.94 0.56l-1.74 1.77 1.99 1.95c0.11 0.11 0.16 0.24 0.16 0.39 0 0.15-0.05 0.27-0.16 0.38-0.11 0.11-0.23 0.16-0.38 0.16-0.15 0-0.27-0.05-0.38-0.16l-5.24-5.14c-0.11-0.11-0.16-0.23-0.16-0.38-0.01-0.15 0.04-0.28 0.15-0.39l1.96-2c0.77-0.78 1.51-1.21 2.24-1.29 0.68-0.06 1.27 0.16 1.79 0.66 0.33 0.32 0.55 0.72 0.65 1.19 0.11 0.46 0.04 0.95-0.2 1.45 0.51-0.3 1.1-0.31 1.76-0.02 0.44 0.2 0.86 0.49 1.24 0.86l0.39 0.39m-5.01-0.34c0.47-0.48 0.75-0.96 0.85-1.43 0.1-0.48-0.03-0.9-0.39-1.26-0.34-0.34-0.71-0.47-1.11-0.41-0.46 0.08-0.99 0.42-1.57 1.02l-1.48 1.51 2.18 2.13 1.52-1.55" inkscape:connector-curvature="0" style="fill:#665244;font-size:12;letter-spacing:1.5"/>
    <path id="path3126" d="m129.35 109.24c0.1 0.02 0.2 0.07 0.29 0.14 0.08 0.06 0.14 0.16 0.17 0.3 0.03 0.14-0.02 0.29-0.14 0.46-0.12 0.17-0.3 0.22-0.54 0.17l-1.97-0.47-2.41 3.3 1.05 1.73c0.12 0.21 0.13 0.4 0 0.57-0.12 0.17-0.25 0.26-0.39 0.28-0.14 0.02-0.25-0.01-0.34-0.07-0.09-0.07-0.16-0.14-0.22-0.23l-4.03-6.73c-0.18-0.31-0.18-0.59 0.01-0.85l0.07-0.1c0.19-0.26 0.46-0.35 0.81-0.27l7.64 1.79m-3.25 0.34-4.11-0.99 2.19 3.61 1.91-2.62" inkscape:connector-curvature="0" style="fill:#665244;font-size:12;letter-spacing:1.5"/>
    <path id="path3128" d="m132.9 102.11c0.07-0.13 0.18-0.22 0.33-0.26 0.14-0.05 0.28-0.04 0.42 0.04 0.13 0.07 0.22 0.18 0.26 0.33 0.04 0.14 0.03 0.28-0.05 0.41l-2.03 3.74c-0.1 0.18-0.25 0.31-0.45 0.37-0.2 0.05-0.39 0.03-0.58-0.07l-6.27-3.4c-0.13-0.07-0.22-0.18-0.26-0.32-0.05-0.14-0.04-0.28 0.04-0.42 0.07-0.13 0.18-0.22 0.33-0.26 0.14-0.05 0.28-0.04 0.42 0.04l5.97 3.24 1.87-3.45" inkscape:connector-curvature="0" style="fill:#665244;font-size:12;letter-spacing:1.5"/>
    <path id="path3130" d="m127.67 95.75c0.06-0.14 0.16-0.24 0.3-0.29 0.14-0.06 0.28-0.06 0.42-0.01l6.82 2.88c0.14 0.06 0.24 0.16 0.29 0.3 0.06 0.14 0.05 0.27-0.01 0.41-0.06 0.14-0.16 0.24-0.29 0.29-0.14 0.06-0.27 0.05-0.41-0.01l-6.82-2.88c-0.14-0.06-0.24-0.16-0.29-0.29-0.06-0.14-0.06-0.28 0-0.42" inkscape:connector-curvature="0" style="fill:#665244;font-size:12;letter-spacing:1.5"/>
    <path id="path3132" d="m130.65 87.26c0.04-0.14 0.13-0.24 0.25-0.3 0.12-0.07 0.25-0.09 0.39-0.04 0.14 0.04 0.24 0.13 0.3 0.25 0.06 0.12 0.07 0.25 0.03 0.39l-0.71 2.33 6.58 2.01c0.15 0.04 0.25 0.14 0.32 0.27 0.07 0.13 0.08 0.27 0.04 0.41-0.04 0.15-0.13 0.25-0.26 0.32-0.13 0.07-0.27 0.08-0.41 0.04l-6.58-2.01-0.71 2.34c-0.04 0.14-0.12 0.24-0.24 0.3-0.12 0.06-0.25 0.07-0.39 0.03-0.14-0.04-0.24-0.12-0.3-0.24-0.07-0.12-0.09-0.25-0.04-0.39l1.74-5.72" inkscape:connector-curvature="0" style="fill:#665244;font-size:12;letter-spacing:1.5"/>
    <path id="path3134" d="m132.29 79.49c-0.16-0.15-0.23-0.31-0.2-0.48 0.03-0.18 0.1-0.31 0.22-0.39 0.12-0.08 0.24-0.11 0.38-0.09 0.13 0.02 0.25 0.07 0.34 0.15l3.51 3.48 3.02 0.48c0.15 0.02 0.27 0.1 0.35 0.21 0.09 0.12 0.12 0.25 0.09 0.4-0.02 0.15-0.1 0.27-0.22 0.37-0.12 0.09-0.25 0.12-0.4 0.09l-3.02-0.48-4.42 2.2c-0.11 0.05-0.24 0.06-0.37 0.04-0.13-0.02-0.25-0.09-0.33-0.2-0.09-0.11-0.12-0.25-0.09-0.43 0.03-0.18 0.14-0.32 0.34-0.41l4-1.9-3.21-3.05" inkscape:connector-curvature="0" style="fill:#665244;font-size:12;letter-spacing:1.5"/>
  </g>
</svg>
