<?xml version="1.0" encoding="UTF-8" standalone="no"?>
<svg
   xmlns:dc="http://purl.org/dc/elements/1.1/"
   xmlns:cc="http://creativecommons.org/ns#"
   xmlns:rdf="http://www.w3.org/1999/02/22-rdf-syntax-ns#"
   xmlns:svg="http://www.w3.org/2000/svg"
   xmlns="http://www.w3.org/2000/svg"
   xmlns:xlink="http://www.w3.org/1999/xlink"
   xmlns:sodipodi="http://sodipodi.sourceforge.net/DTD/sodipodi-0.dtd"
   xmlns:inkscape="http://www.inkscape.org/namespaces/inkscape"
   viewBox="0 0 145.07184 145.07183"
   width="386.85825"
   height="386.85822"
   id="svg4192"
   version="1.1"
   inkscape:version="0.91 r13725"
   sodipodi:docname="netneutrality-curves.svg"
   inkscape:export-filename="/home/aravind/dev/netneutrality/savetheinternet-in/src/images/logow.png"
   inkscape:export-xdpi="116.32"
   inkscape:export-ydpi="116.32">
  <metadata
     id="metadata4227">
    <rdf:RDF>
      <cc:Work
         rdf:about="">
        <dc:format>image/svg+xml</dc:format>
        <dc:type
           rdf:resource="http://purl.org/dc/dcmitype/StillImage" />
        <dc:title></dc:title>
      </cc:Work>
    </rdf:RDF>
  </metadata>
  <defs
     id="defs4225">
    <linearGradient
       inkscape:collect="always"
       id="linearGradient5130">
      <stop
         style="stop-color:#ffffff;stop-opacity:1"
         offset="0"
         id="stop5132" />
      <stop
         style="stop-color:#ffffff;stop-opacity:0"
         offset="1"
         id="stop5134" />
    </linearGradient>
    <linearGradient
       inkscape:collect="always"
       id="linearGradient5120">
      <stop
         style="stop-color:#000000;stop-opacity:0.40306121"
         offset="0"
         id="stop5122" />
      <stop
         style="stop-color:#000000;stop-opacity:0"
         offset="1"
         id="stop5124" />
    </linearGradient>
    <linearGradient
       inkscape:collect="always"
       xlink:href="#linearGradient5120"
       id="linearGradient5126"
       x1="232.78821"
       y1="171.22554"
       x2="232.78821"
       y2="118.72554"
       gradientUnits="userSpaceOnUse" />
    <radialGradient
       inkscape:collect="always"
       xlink:href="#linearGradient5130"
       id="radialGradient5136"
       cx="267.63574"
       cy="100.77621"
       fx="267.63574"
       fy="100.77621"
       r="22.536057"
       gradientTransform="matrix(-1.7455297,2.9935515e-6,-1.0594282e-6,-0.92163899,699.9544,183.62419)"
       gradientUnits="userSpaceOnUse" />
    <linearGradient
       inkscape:collect="always"
       xlink:href="#linearGradient5120"
       id="linearGradient5150"
       gradientUnits="userSpaceOnUse"
       x1="232.78821"
       y1="171.22554"
       x2="232.78821"
       y2="118.72554"
       gradientTransform="matrix(0.39999999,0,0,0.39999999,139.67293,86.985348)" />
    <radialGradient
       inkscape:collect="always"
       xlink:href="#linearGradient5130"
       id="radialGradient5152"
       gradientUnits="userSpaceOnUse"
       gradientTransform="matrix(-0.69821186,1.1974206e-6,-4.2377127e-7,-0.36865559,419.65468,160.43502)"
       cx="267.63574"
       cy="100.77621"
       fx="267.63574"
       fy="100.77621"
       r="22.536057" />
  </defs>
  <sodipodi:namedview
     pagecolor="#ffffff"
     bordercolor="#666666"
     borderopacity="1"
     objecttolerance="10"
     gridtolerance="10"
     guidetolerance="10"
     inkscape:pageopacity="0"
     inkscape:pageshadow="2"
     inkscape:window-width="1920"
     inkscape:window-height="1016"
     id="namedview4223"
     showgrid="false"
     inkscape:snap-bbox="true"
     inkscape:bbox-paths="true"
     inkscape:bbox-nodes="true"
     inkscape:snap-bbox-edge-midpoints="true"
     inkscape:snap-bbox-midpoints="true"
     inkscape:snap-center="true"
     inkscape:zoom="0.52"
     inkscape:cx="-644.86764"
     inkscape:cy="83.562166"
     inkscape:window-x="0"
     inkscape:window-y="564"
     inkscape:window-maximized="1"
     inkscape:current-layer="svg4192"
     inkscape:snap-global="false"
     showguides="false"
     inkscape:guide-bbox="true"
     fit-margin-top="0"
     fit-margin-left="0"
     fit-margin-right="0"
     fit-margin-bottom="0">
    <sodipodi:guide
       orientation="0,1"
       position="245.92891,245.92896"
       id="guide3046" />
    <sodipodi:guide
       orientation="0,1"
       position="-385.40455,160.58069"
       id="guide3066" />
    <sodipodi:guide
       orientation="0,1"
       position="278.81353,204.96755"
       id="guide3074" />
  </sodipodi:namedview>
  <path
     inkscape:connector-curvature="0"
     id="path3072"
     d="m 16.897962,25.999682 c -25.7012699,30.728 -21.6262999,76.472958 9.10171,102.174208 30.72801,25.70123 76.472948,21.62629 102.174208,-9.10173 25.70127,-30.727978 21.6263,-76.472948 -9.1017,-102.174212 C 88.344162,-8.803322 42.599222,-4.728315 16.897962,25.999682 z"
     style="fill:#ffffff;fill-opacity:0.75294118;stroke:none" />
  <g
     id="8"
     transform="translate(257.43968,182.1513)">
    <g
       id="4">
      <g
         id="2">
        <g
           id="1" />
        <use
           height="300"
           width="450"
           y="0"
           x="0"
           id="use4211"
           transform="matrix(0.96592583,0.25881905,-0.25881905,0.96592583,0,0)"
           xlink:href="#1" />
      </g>
      <use
         height="300"
         width="450"
         y="0"
         x="0"
         id="use4213"
         transform="matrix(0.8660254,0.5,-0.5,0.8660254,0,0)"
         xlink:href="#2" />
    </g>
    <use
       height="300"
       width="450"
       y="0"
       x="0"
       id="use4215"
       transform="matrix(0.5,0.8660254,-0.8660254,0.5,0,0)"
       xlink:href="#4" />
  </g>
  <use
     height="300"
     width="450"
     y="0"
     x="0"
     id="use4217"
     transform="matrix(-0.5,0.8660254,-0.8660254,-0.5,543.90717,50.277652)"
     xlink:href="#8" />
  <use
     height="300"
     width="450"
     y="0"
     x="0"
     id="use4219"
     transform="matrix(-0.5,-0.8660254,0.8660254,-0.5,228.41187,496.17625)"
     xlink:href="#8" />
  <text
     xml:space="preserve"
     style="font-size:9px;font-style:normal;font-variant:normal;font-weight:normal;font-stretch:normal;text-align:start;line-height:100%;letter-spacing:0px;word-spacing:0px;text-anchor:start;fill:#000000;fill-opacity:1;stroke:none;font-family:Open Sans;-inkscape-font-specification:Open Sans"
     x="-106.79168"
     y="152.16519"
     id="text5328"
     sodipodi:linespacing="100%"><tspan
       sodipodi:role="line"
       id="tspan5330"
       x="-106.79168"
       y="152.16519" /></text>
  <circle
     style="fill:none;stroke:none"
     id="circle3034"
     cx="224.71161"
     cy="150"
     r="56.249733"
     sodipodi:cx="224.71161"
     sodipodi:cy="150"
     sodipodi:rx="56.249733"
     sodipodi:ry="56.249733"
     d="m 280.96134,150 c 0,31.06587 -25.18386,56.24973 -56.24973,56.24973 -31.06587,0 -56.24973,-25.18386 -56.24973,-56.24973 0,-31.06587 25.18386,-56.249733 56.24973,-56.249733 31.06587,0 56.24973,25.183863 56.24973,56.249733 z"
     transform="matrix(-0.974845,-0.41151867,0.41151867,-0.974845,229.86709,311.23569)" />
  <text
     sodipodi:linespacing="125%"
     id="text3025"
     style="font-size:15px;font-style:normal;font-weight:normal;line-height:125%;letter-spacing:0px;word-spacing:0px;fill:#000000;fill-opacity:1;stroke:none;font-family:Varela Round;-inkscape-font-specification:Varela Round"
     xml:space="preserve"
     transform="translate(-152.1757,-77.464078)"><textPath
       id="textPath3027"
       xlink:href="#circle3034"></textPath></text>
  <text
     xml:space="preserve"
     style="font-size:15px;font-style:normal;font-weight:normal;line-height:125%;letter-spacing:0px;word-spacing:0px;fill:#000000;fill-opacity:1;stroke:none;font-family:Varela Round;-inkscape-font-specification:Varela Round"
     id="text3031"
     sodipodi:linespacing="125%"
     transform="translate(-152.1757,-77.464078)"><textPath
       xlink:href="#circle3034"
       id="textPath3033"></textPath></text>
  <text
     sodipodi:linespacing="125%"
     id="text3037"
     style="font-size:15px;font-style:normal;font-weight:normal;line-height:125%;letter-spacing:0px;word-spacing:0px;fill:#000000;fill-opacity:1;stroke:none;font-family:Varela Round;-inkscape-font-specification:Varela Round"
     xml:space="preserve"
     transform="translate(-152.1757,-77.464078)"><textPath
       id="textPath3039"
       xlink:href="#circle3034"></textPath></text>
  <path
     style="fill:none;stroke:none"
     d="M 4.5341221,78.275512 C 7.7040121,115.83188 40.719162,143.70763 78.275522,140.53772 115.83187,137.36783 143.70764,104.3527 140.53772,66.796332 137.36786,29.239972 104.35271,1.364214 66.796342,4.534098 29.239962,7.703992 1.3642421,40.719142 4.5341221,78.275512 z"
     id="circle3048"
     inkscape:connector-curvature="0" />
  <g
     id="text3036"
     style="font-size:15px;font-style:normal;font-weight:normal;text-align:start;line-height:125%;letter-spacing:0px;word-spacing:0px;text-anchor:start;fill:#665544;fill-opacity:1;stroke:#665544;font-family:Varela Round;-inkscape-font-specification:Varela Round;stroke-width:0.74999998;stroke-miterlimit:4;stroke-dasharray:none;stroke-opacity:1"
     transform="translate(0.0567751,-0.2263251)">
    <path
       id="path3064"
       style="font-size:12px;letter-spacing:1.125px;fill:#665544;fill-opacity:1;stroke-width:0.74999998;stroke-miterlimit:4;stroke-dasharray:none;stroke:#665544;stroke-opacity:1"
       d="m 18.424631,45.623481 c 0.622308,-1.25408 0.521407,-2.085596 -0.302705,-2.494548 -0.343978,-0.170685 -0.739004,-0.06753 -1.18508,0.309478 -0.189119,0.165153 -0.38527,0.371465 -0.588453,0.618937 -0.206791,0.23676 -0.420722,0.478903 -0.641795,0.72643 -0.217512,0.240369 -0.445776,0.4754 -0.684791,0.705093 -0.235454,0.222535 -0.485352,0.402176 -0.749693,0.538926 -0.593006,0.295169 -1.183325,0.296954 -1.770958,0.0054 -0.63062,-0.312929 -1.029236,-0.80545 -1.195849,-1.477562 -0.181096,-0.732881 -0.05651,-1.532879 0.373771,-2.399995 0.387616,-0.781108 0.859686,-1.43547 1.416211,-1.963087 0.171236,-0.165083 0.364344,-0.194289 0.579326,-0.08762 0.107497,0.05335 0.191849,0.144327 0.253055,0.272931 0.0576,0.1179 0.06329,0.223426 0.01706,0.316577 -0.04267,0.086 -0.131787,0.193604 -0.267354,0.322804 -0.395962,0.384022 -0.743299,0.877009 -1.042013,1.478962 -0.273811,0.551804 -0.395711,1.05842 -0.365699,1.51985 0.03363,0.472163 0.247516,0.806033 0.641652,1.001612 0.408478,0.202699 0.833974,0.119125 1.27649,-0.250722 0.207012,-0.165197 0.410329,-0.367953 0.609952,-0.608269 0.199629,-0.240306 0.406394,-0.486005 0.620296,-0.737098 0.213906,-0.251081 0.438586,-0.48789 0.674042,-0.710427 0.228292,-0.226081 0.474606,-0.4075 0.738943,-0.54426 0.578678,-0.302271 1.190495,-0.293388 1.835454,0.02665 0.616292,0.305828 0.995241,0.801986 1.13685,1.488474 0.141659,0.704389 0.0062,1.47222 -0.406263,2.303495 -0.45162,0.91011 -1.04678,1.677542 -1.785479,2.302298 -0.07495,0.06105 -0.167838,0.104262 -0.278671,0.12964 -0.107276,0.01821 -0.214661,6.5e-4 -0.322154,-0.05269 -0.114659,-0.0569 -0.195427,-0.146094 -0.242306,-0.267596 -0.05404,-0.125056 -0.05617,-0.237748 -0.0064,-0.338076 0.05334,-0.107491 0.153181,-0.218703 0.29952,-0.333634 0.142729,-0.12565 0.347797,-0.340933 0.615205,-0.645851 0.267407,-0.304912 0.516682,-0.690271 0.747827,-1.156077"
       inkscape:connector-curvature="0" />
    <path
       id="path3066"
       style="font-size:12px;letter-spacing:1.125px;fill:#665544;fill-opacity:1;stroke-width:0.74999998;stroke-miterlimit:4;stroke-dasharray:none;stroke:#665544;stroke-opacity:1"
       d="m 25.427437,34.757356 c 0.101607,0.02217 0.198328,0.06531 0.290162,0.129421 0.08527,0.05955 0.143058,0.15844 0.173375,0.296684 0.03031,0.138257 -0.01407,0.292653 -0.133148,0.463189 -0.119081,0.170548 -0.297929,0.231056 -0.536545,0.181525 l -1.981418,-0.432164 -2.335748,3.345248 1.088338,1.711228 c 0.128701,0.20695 0.133514,0.395696 0.01444,0.566237 -0.119078,0.170542 -0.248731,0.2654 -0.388961,0.284572 -0.140229,0.01917 -0.25298,-0.001 -0.338251,-0.06055 -0.09183,-0.06412 -0.165651,-0.140055 -0.221464,-0.227811 L 16.886969,34.370354 C 16.70048,34.064518 16.698832,33.78041 16.882023,33.51803 l 0.0687,-0.09839 c 0.183201,-0.262363 0.450483,-0.358695 0.801849,-0.288996 l 7.674867,1.626712 m -3.244653,0.412822 -4.125092,-0.904441 2.270234,3.560961 1.854858,-2.65652"
       inkscape:connector-curvature="0" />
    <path
       id="path3068"
       style="font-size:12px;letter-spacing:1.125px;fill:#665544;fill-opacity:1;stroke-width:0.74999998;stroke-miterlimit:4;stroke-dasharray:none;stroke:#665544;stroke-opacity:1"
       d="m 28.756848,30.679624 -3.117102,-6.90544 c -0.106782,-0.246804 -0.09089,-0.442322 0.04767,-0.586556 0.144107,-0.149979 0.286913,-0.223562 0.428419,-0.220746 0.141507,0.0028 0.255526,0.04582 0.342059,0.128947 0.08653,0.08315 0.141678,0.152771 0.165432,0.208864 l 3.12983,7.11736 c 0.148972,0.376107 0.109837,0.682422 -0.117404,0.918943 l -0.182905,0.190373 c -0.227247,0.236527 -0.53175,0.287884 -0.913511,0.15407 l -7.236863,-2.842613 c -0.05701,-0.02148 -0.128776,-0.0738 -0.215315,-0.156944 -0.08653,-0.08313 -0.134037,-0.195341 -0.142527,-0.336627 -0.0085,-0.141274 0.03716,-0.263834 0.136921,-0.36768 0.18291,-0.190367 0.399806,-0.237142 0.65069,-0.140325 l 7.024604,2.838374"
       inkscape:connector-curvature="0" />
    <path
       id="path3070"
       style="font-size:12px;letter-spacing:1.125px;fill:#665544;fill-opacity:1;stroke-width:0.74999998;stroke-miterlimit:4;stroke-dasharray:none;stroke:#665544;stroke-opacity:1"
       d="m 37.800757,22.869336 c 0.114306,-0.08757 0.241189,-0.119266 0.380648,-0.0951 0.140935,0.01297 0.255191,0.0766 0.342769,0.190908 0.08757,0.114315 0.119266,0.241198 0.0951,0.380648 -0.01783,0.134593 -0.0839,0.245674 -0.198205,0.333243 l -3.819894,2.926389 c -0.120663,0.09244 -0.253896,0.129002 -0.3997,0.10969 -0.145806,-0.01931 -0.264927,-0.0893 -0.357364,-0.209959 l -4.429722,-5.782233 c -0.09243,-0.120655 -0.128997,-0.253888 -0.10969,-0.3997 0.01445,-0.152148 0.082,-0.274445 0.202661,-0.36689 l 3.819894,-2.92639 c 0.114311,-0.08756 0.241193,-0.11926 0.380648,-0.09509 0.140939,0.01297 0.255195,0.07661 0.342769,0.190907 0.08757,0.114321 0.11927,0.241204 0.0951,0.380648 -0.01783,0.134599 -0.08389,0.24568 -0.198205,0.333243 l -3.381702,2.590693 1.612799,2.105229 3.038768,-2.327976 c 0.114309,-0.08757 0.241192,-0.119263 0.380648,-0.0951 0.140937,0.01297 0.255194,0.0766 0.342769,0.190907 0.08757,0.114319 0.119268,0.241201 0.0951,0.380649 -0.01783,0.134596 -0.0839,0.245676 -0.198205,0.333242 l -3.038768,2.327976 1.620095,2.114754 3.381702,-2.590694"
       inkscape:connector-curvature="0" />
    <path
       id="path3073"
       style="font-size:12px;letter-spacing:1.125px;fill:#665544;fill-opacity:1;stroke-width:0.74999998;stroke-miterlimit:4;stroke-dasharray:none;stroke:#665544;stroke-opacity:1"
       d="m 46.412131,9.7959559 c 0.130396,-0.061082 0.261122,-0.064904 0.392179,-0.011466 0.134902,0.04282 0.232901,0.1294243 0.293996,0.2598121 0.06109,0.130408 0.06491,0.261135 0.01147,0.392179 -0.04621,0.12767 -0.134508,0.222047 -0.264903,0.28313 l -2.205905,1.033479 2.917163,6.226519 c 0.06448,0.137645 0.06808,0.277313 0.01078,0.419004 -0.05006,0.1383 -0.143906,0.239693 -0.281545,0.304178 -0.137646,0.06449 -0.275616,0.0717 -0.413912,0.02165 -0.138302,-0.05005 -0.239694,-0.143901 -0.304178,-0.281545 l -2.917162,-6.22652 -2.216772,1.038571 c -0.130395,0.0611 -0.259425,0.06854 -0.387088,0.02233 -0.127657,-0.0462 -0.222034,-0.134498 -0.283129,-0.264903 -0.06109,-0.130391 -0.06853,-0.25942 -0.02233,-0.387088 0.04281,-0.134898 0.129417,-0.232896 0.259812,-0.293996 l 5.41153,-2.5353349"
       inkscape:connector-curvature="0" />
    <path
       id="path3075"
       style="font-size:12px;letter-spacing:1.125px;fill:#665544;fill-opacity:1;stroke-width:0.74999998;stroke-miterlimit:4;stroke-dasharray:none;stroke:#665544;stroke-opacity:1"
       d="m 56.335305,6.4756817 c 0.145978,-0.042333 0.284511,-0.024207 0.415599,0.054378 0.136533,0.068693 0.225974,0.1760261 0.268322,0.3219993 l 2.062551,7.110914 c 0.04233,0.145986 0.02421,0.284519 -0.05438,0.4156 -0.07092,0.128856 -0.179366,0.214455 -0.325342,0.256796 -0.14599,0.04234 -0.283409,0.02806 -0.412257,-0.04285 -0.128861,-0.07091 -0.21446,-0.179356 -0.256796,-0.325342 l -0.889204,-3.065645 -4.367968,1.266948 0.889203,3.065645 c 0.04234,0.145984 0.02421,0.284517 -0.05438,0.4156 -0.07091,0.128855 -0.17936,0.214454 -0.325342,0.256796 -0.145984,0.04234 -0.283403,0.02806 -0.412257,-0.04285 -0.128855,-0.07091 -0.214454,-0.179358 -0.256796,-0.325342 L 50.553711,8.7274091 c -0.04234,-0.1459751 -0.02806,-0.2833938 0.04285,-0.4122567 0.06868,-0.1365296 0.176017,-0.2259701 0.321999,-0.2683216 0.145984,-0.042334 0.284517,-0.024209 0.4156,0.054378 0.136538,0.068691 0.225978,0.1760244 0.268321,0.3219992 l 0.889204,3.065645 4.367968,-1.266948 L 55.97045,7.1562602 C 55.9281,7.0102867 55.94239,6.8728679 56.0133,6.7440034 56.08198,6.6074754 56.189311,6.518035 56.335299,6.4756818"
       inkscape:connector-curvature="0" />
    <path
       id="path3077"
       style="font-size:12px;letter-spacing:1.125px;fill:#665544;fill-opacity:1;stroke-width:0.74999998;stroke-miterlimit:4;stroke-dasharray:none;stroke:#665544;stroke-opacity:1"
       d="m 67.813836,12.107925 c 0.142903,-0.01769 0.268382,0.01917 0.376438,0.11059 0.115,0.0825 0.181349,0.195199 0.199047,0.338107 0.01768,0.14291 -0.01918,0.26839 -0.11059,0.376438 -0.08349,0.107068 -0.196679,0.169447 -0.339582,0.187138 l -4.775546,0.591184 c -0.15085,0.01867 -0.284269,-0.01721 -0.400257,-0.107642 -0.11599,-0.09043 -0.183322,-0.211076 -0.201995,-0.361925 L 61.666466,6.0129949 c -0.01867,-0.1508405 0.01721,-0.2842592 0.107642,-0.4002566 0.08945,-0.1239201 0.209602,-0.1952214 0.360451,-0.2139041 l 4.775547,-0.591184 c 0.142903,-0.017682 0.268383,0.019181 0.376438,0.11059 0.115,0.082505 0.181349,0.1952069 0.199046,0.3381072 0.01769,0.1429177 -0.01918,0.268397 -0.11059,0.3764384 -0.08348,0.1070751 -0.196678,0.1694542 -0.339581,0.1871374 l -4.227728,0.5233674 0.325814,2.6319097 3.799001,-0.4702935 c 0.142904,-0.017686 0.268383,0.019177 0.376439,0.11059 0.115,0.082501 0.181349,0.1952032 0.199046,0.3381072 0.01769,0.142914 -0.01918,0.2683933 -0.11059,0.3764384 -0.08348,0.1070714 -0.196678,0.1694505 -0.339581,0.1871373 l -3.799001,0.4702936 0.327289,2.6438187 4.227728,-0.523367"
       inkscape:connector-curvature="0" />
    <path
       id="path3079"
       style="font-size:12px;letter-spacing:1.125px;fill:#665544;fill-opacity:1;stroke-width:0.74999998;stroke-miterlimit:4;stroke-dasharray:none;stroke:#665544;stroke-opacity:1"
       d="m 76.672375,4.6893138 c 0.151714,0.00927 0.276062,0.072974 0.373044,0.1910973 0.105448,0.1106424 0.153541,0.2418181 0.144277,0.3935275 l -0.45137,7.3902284 c -0.0093,0.151718 -0.07297,0.276066 -0.191097,0.373044 -0.110149,0.09747 -0.241081,0.141567 -0.392796,0.1323 -0.151719,-0.0093 -0.276311,-0.06897 -0.373776,-0.179119 -0.09747,-0.110147 -0.141567,-0.241079 -0.1323,-0.392796 l 0.45137,-7.390229 c 0.0093,-0.1517093 0.06897,-0.276301 0.17912,-0.3737755 0.110633,-0.1054433 0.241808,-0.1535358 0.393528,-0.1442777"
       inkscape:connector-curvature="0" />
    <path
       id="path3081"
       style="font-size:12px;letter-spacing:1.125px;fill:#665544;fill-opacity:1;stroke-width:0.74999998;stroke-miterlimit:4;stroke-dasharray:none;stroke:#665544;stroke-opacity:1"
       d="m 88.396088,6.3735068 c 0.149242,0.028784 0.264324,0.1080043 0.345249,0.2376617 0.09028,0.1233297 0.121029,0.2596168 0.09226,0.4088616 l -1.35631,7.0344379 c -0.0409,0.212093 -0.15429,0.377619 -0.340166,0.49658 -0.178036,0.120472 -0.373096,0.160262 -0.585182,0.11937 l -0.141396,-0.02726 c -0.259233,-0.04998 -0.446951,-0.196166 -0.563157,-0.43855 L 82.557353,6.7387051 81.328269,13.113297 c -0.02878,0.14925 -0.108,0.264333 -0.237662,0.345249 -0.121811,0.08243 -0.25734,0.109255 -0.40659,0.08048 -0.149252,-0.02878 -0.265092,-0.10407 -0.34752,-0.225878 -0.08243,-0.121809 -0.109257,-0.257339 -0.08048,-0.40659 l 1.35631,-7.0344403 C 81.653218,5.6600316 81.762679,5.4937479 81.94071,5.3732663 82.12025,5.2449449 82.316068,5.2012272 82.528165,5.242113 l 0.153178,0.029534 c 0.243511,0.04696 0.436814,0.2064406 0.579908,0.4784424 l 3.273284,7.4260086 1.226813,-6.362809 c 0.02877,-0.1492445 0.104061,-0.2650847 0.225878,-0.3475209 0.123315,-0.090278 0.259602,-0.121032 0.408862,-0.092262"
       inkscape:connector-curvature="0" />
    <path
       id="path3083"
       style="font-size:12px;letter-spacing:1.125px;fill:#665544;fill-opacity:1;stroke-width:0.74999998;stroke-miterlimit:4;stroke-dasharray:none;stroke:#665544;stroke-opacity:1"
       d="m 98.681946,9.805484 c 0.135178,0.049606 0.229924,0.1397569 0.284236,0.270454 0.06456,0.125953 0.07205,0.256521 0.02245,0.391704 -0.04961,0.135193 -0.139761,0.229938 -0.270454,0.284237 -0.123201,0.05706 -0.252391,0.06079 -0.387571,0.01119 L 96.043679,9.9239978 93.675273,16.379231 c -0.05236,0.142697 -0.149022,0.243575 -0.289986,0.302634 -0.133462,0.06181 -0.27154,0.06654 -0.414235,0.01419 -0.142702,-0.05236 -0.244958,-0.145264 -0.306769,-0.278721 -0.06182,-0.133459 -0.06654,-0.271537 -0.01419,-0.414235 L 95.018502,9.5478636 92.720304,8.7046615 C 92.585113,8.6550681 92.48899,8.568672 92.431934,8.4454731 92.374873,8.322288 92.371143,8.1930979 92.420746,8.0579026 92.470344,7.922722 92.55674,7.8265987 92.679935,7.7695325 92.805879,7.704971 92.936447,7.6974865 93.071639,7.747079 l 5.610307,2.058405"
       inkscape:connector-curvature="0" />
    <path
       id="path3085"
       style="font-size:12px;letter-spacing:1.125px;fill:#665544;fill-opacity:1;stroke-width:0.74999998;stroke-miterlimit:4;stroke-dasharray:none;stroke:#665544;stroke-opacity:1"
       d="m 103.70391,20.557571 c 0.12672,0.06837 0.20764,0.171119 0.24275,0.308233 0.0459,0.133868 0.0347,0.264168 -0.0336,0.390901 -0.0684,0.126728 -0.17113,0.207645 -0.30823,0.242752 -0.13008,0.0389 -0.25848,0.02416 -0.38521,-0.04421 l -4.234909,-2.284921 c -0.133773,-0.07218 -0.221731,-0.17872 -0.263874,-0.31963 -0.04215,-0.140911 -0.02713,-0.278252 0.04505,-0.412023 l 3.458713,-6.410452 c 0.0722,-0.133765 0.17872,-0.221723 0.31963,-0.263874 0.14471,-0.04918 0.28395,-0.03768 0.41772,0.03449 l 4.23492,2.284921 c 0.12672,0.06838 0.20763,0.171125 0.24275,0.308233 0.0459,0.133874 0.0347,0.264174 -0.0337,0.390901 -0.0684,0.126734 -0.17113,0.207651 -0.30824,0.242752 -0.13008,0.03891 -0.25848,0.02417 -0.3852,-0.04421 l -3.74911,-2.02281 -1.25927,2.333954 3.36892,1.81768 c 0.12672,0.06838 0.20764,0.171123 0.24275,0.308234 0.0459,0.133871 0.0347,0.264171 -0.0336,0.390901 -0.0684,0.126731 -0.17113,0.207648 -0.30823,0.242751 -0.13008,0.0389 -0.25848,0.02417 -0.38521,-0.04421 l -3.36892,-1.81768 -1.264961,2.344515 3.749111,2.02281"
       inkscape:connector-curvature="0" />
    <path
       id="path3087"
       style="font-size:12px;letter-spacing:1.125px;fill:#665544;fill-opacity:1;stroke-width:0.74999998;stroke-miterlimit:4;stroke-dasharray:none;stroke:#665544;stroke-opacity:1"
       d="m 111.62068,26.862235 c -0.092,0.120973 -0.21091,0.191366 -0.35664,0.21118 -0.14575,0.0198 -0.28229,-0.01872 -0.40962,-0.115587 -0.12735,-0.09687 -0.20335,-0.214992 -0.228,-0.354359 -0.0134,-0.140898 0.0283,-0.275018 0.12514,-0.402358 l 0.21795,-0.286525 c 0.39231,-0.515747 0.62319,-0.938187 0.69263,-1.26732 0.0694,-0.329137 0.0587,-0.638817 -0.0321,-0.92904 -0.086,-0.296592 -0.31045,-0.582924 -0.67338,-0.858998 l -1.97702,-1.503877 -1.6855,2.215791 c -0.092,0.120976 -0.21409,0.188948 -0.3662,0.203915 -0.14574,0.01981 -0.27909,-0.0163 -0.40007,-0.108322 -0.12098,-0.09203 -0.19137,-0.210907 -0.21118,-0.356644 -0.0198,-0.145739 0.0163,-0.279096 0.10832,-0.400073 l 4.44625,-5.845105 c 0.092,-0.120971 0.2109,-0.191364 0.35664,-0.21118 0.15058,-0.02617 0.28636,0.0068 0.40734,0.09877 l 2.22534,1.69277 c 0.8723,0.66355 1.39085,1.34949 1.55565,2.057825 0.14747,0.665019 0.003,1.284052 -0.43264,1.857101 -0.28093,0.369298 -0.64753,0.633211 -1.09981,0.79174 -0.44593,0.163371 -0.9347,0.158448 -1.46633,-0.01477 0.36641,0.469701 0.44564,1.052653 0.23771,1.748857 -0.14237,0.46464 -0.3758,0.910262 -0.7003,1.336869 l -0.3342,0.439338 m -0.28752,-5.013271 c 0.53484,0.406847 1.04454,0.628717 1.52911,0.665613 0.49092,0.04174 0.89137,-0.141143 1.20136,-0.548645 0.29059,-0.382032 0.3812,-0.765424 0.27183,-1.150178 -0.14096,-0.448967 -0.54253,-0.925308 -1.20472,-1.429024 l -1.68094,-1.278659 -1.84534,2.425909 1.7287,1.314984"
       inkscape:connector-curvature="0" />
    <path
       id="path3089"
       style="font-size:12px;letter-spacing:1.125px;fill:#665544;fill-opacity:1;stroke-width:0.74999998;stroke-miterlimit:4;stroke-dasharray:none;stroke:#665544;stroke-opacity:1"
       d="m 124.46765,28.574728 c 0.10333,0.111463 0.14929,0.243401 0.13788,0.395813 -1.2e-4,0.152839 -0.0559,0.280931 -0.16736,0.384276 l -5.25342,4.87078 c -0.1584,0.146851 -0.34772,0.213288 -0.56796,0.199309 -0.21482,-0.0081 -0.39565,-0.09138 -0.5425,-0.24977 l -0.0979,-0.105596 c -0.17949,-0.193599 -0.24443,-0.422489 -0.19482,-0.686671 l 1.76159,-7.966228 -4.76063,4.413888 c -0.11147,0.103343 -0.2434,0.149305 -0.39582,0.137885 -0.14697,-0.0056 -0.27213,-0.06406 -0.37547,-0.175527 -0.10335,-0.111464 -0.15224,-0.240682 -0.14669,-0.387654 0.006,-0.146974 0.0641,-0.272132 0.17553,-0.375476 l 5.25342,-4.870779 c 0.15839,-0.146853 0.34499,-0.216223 0.5598,-0.208109 0.22067,0.0027 0.40443,0.08322 0.5513,0.241611 l 0.10606,0.114396 c 0.16861,0.181864 0.23019,0.424779 0.18474,0.728746 l -1.75151,7.924153 4.75184,-4.40573 c 0.11145,-0.103344 0.24067,-0.152239 0.38765,-0.146684 0.15283,1.16e-4 0.28092,0.0559 0.38428,0.167367"
       inkscape:connector-curvature="0" />
    <path
       id="path3091"
       style="font-size:12px;letter-spacing:1.125px;fill:#665544;fill-opacity:1;stroke-width:0.74999998;stroke-miterlimit:4;stroke-dasharray:none;stroke:#665544;stroke-opacity:1"
       d="m 124.52642,41.394186 c 0.0793,0.1202 0.10195,0.249003 0.068,0.386409 -0.0229,0.139669 -0.0944,0.24915 -0.21462,0.328444 -0.12021,0.07928 -0.24901,0.101949 -0.38641,0.068 -0.133,-0.02728 -0.23914,-0.101025 -0.31842,-0.221225 l -2.64956,-4.016862 c -0.0837,-0.126884 -0.11077,-0.262365 -0.0812,-0.406443 0.0296,-0.14408 0.10777,-0.257966 0.23465,-0.341659 l 6.08039,-4.01068 c 0.12688,-0.08369 0.26236,-0.110761 0.40644,-0.08121 0.15075,0.02515 0.26798,0.101164 0.35168,0.228044 l 2.64956,4.016862 c 0.0793,0.120204 0.10194,0.249007 0.068,0.386409 -0.0229,0.139673 -0.0944,0.249154 -0.21462,0.328444 -0.12021,0.07929 -0.24902,0.101953 -0.38641,0.068 -0.133,-0.02728 -0.23915,-0.101021 -0.31842,-0.221225 l -2.34562,-3.556075 -2.21379,1.460231 2.10776,3.195459 c 0.0793,0.120203 0.10195,0.249006 0.068,0.386409 -0.0229,0.139671 -0.0944,0.249153 -0.21462,0.328444 -0.12021,0.07929 -0.24902,0.101952 -0.38641,0.068 -0.133,-0.02728 -0.23914,-0.101022 -0.31843,-0.221225 l -2.10775,-3.195458 -2.2238,1.466838 2.34562,3.556075"
       inkscape:connector-curvature="0" />
    <path
       id="path3093"
       style="font-size:12px;letter-spacing:1.125px;fill:#665544;fill-opacity:1;stroke-width:0.74999998;stroke-miterlimit:4;stroke-dasharray:none;stroke:#665544;stroke-opacity:1"
       d="m 135.25912,46.371969 c 0.0612,0.130357 0.0651,0.261081 0.0117,0.392172 -0.0427,0.134929 -0.12928,0.232983 -0.25962,0.294161 -0.13037,0.06117 -0.2611,0.06508 -0.39218,0.01172 -0.1277,-0.04612 -0.22213,-0.134366 -0.28329,-0.264723 l -1.03489,-2.205245 -6.22466,2.921129 c -0.1376,0.06457 -0.27727,0.06825 -0.41899,0.01105 -0.13834,-0.04997 -0.23979,-0.143754 -0.30436,-0.281352 -0.0646,-0.137604 -0.0719,-0.27557 -0.0219,-0.413898 0.05,-0.138333 0.14374,-0.239786 0.28135,-0.304357 l 6.22466,-2.92113 -1.03999,-2.216109 c -0.0612,-0.130356 -0.0687,-0.259381 -0.0226,-0.387073 0.0461,-0.127687 0.13436,-0.22212 0.26473,-0.283299 0.13035,-0.06117 0.25937,-0.0687 0.38707,-0.02258 0.13492,0.04273 0.23298,0.129269 0.29416,0.259625 l 2.53878,5.409913"
       inkscape:connector-curvature="0" />
  </g>
  <g
     id="text3050"
     style="font-size:15px;font-style:normal;font-variant:normal;font-weight:normal;font-stretch:normal;line-height:125%;letter-spacing:0.00375px;word-spacing:0px;fill:#665544;fill-opacity:1;stroke:#665544;font-family:Varela Round;-inkscape-font-specification:Varela Round;stroke-opacity:1;stroke-width:0.74999998;stroke-miterlimit:4;stroke-dasharray:none"
     transform="translate(0.0567751,-0.2263251)">
    <path
       id="path3096"
       style="font-size:12px;letter-spacing:1.5px;fill:#665544;fill-opacity:1;stroke:#665544;stroke-opacity:1;stroke-width:0.74999998;stroke-miterlimit:4;stroke-dasharray:none"
       d="m 6.0298611,82.264127 7.3635779,1.783014 c 0.260337,0.06737 0.404842,0.200033 0.433517,0.397974 0.0298,0.205846 1.24e-4,0.36373 -0.08903,0.473651 -0.08918,0.109908 -0.19314,0.173465 -0.311892,0.190671 -0.11877,0.01719 -0.207581,0.01793 -0.266434,0.0022 L 5.6209902,83.208479 C 5.23271,83.094953 5.015065,82.875885 4.9680546,82.551276 l -0.037838,-0.261274 c -0.047011,-0.324617 0.099544,-0.596429 0.439666,-0.815435 L 12.05885,77.510939 c 0.05198,-0.03178 0.137346,-0.05627 0.256115,-0.07347 0.118753,-0.0172 0.236476,0.01425 0.35317,0.09436 0.116677,0.0801 0.185339,0.191412 0.205987,0.333925 0.03783,0.261274 -0.05852,0.461147 -0.289043,0.599618 l -6.5552179,3.798756"
       inkscape:connector-curvature="0" />
    <path
       id="path3098"
       style="font-size:12px;letter-spacing:1.5px;fill:#665544;fill-opacity:1;stroke:#665544;stroke-opacity:1;stroke-width:0.74999998;stroke-miterlimit:4;stroke-dasharray:none"
       d="m 15.398405,90.051058 c 0.368493,1.209087 0.278245,2.298732 -0.270745,3.268936 -0.5407,0.942571 -1.414752,1.614582 -2.622159,2.016034 -1.226078,0.340218 -2.326363,0.269939 -3.300857,-0.210836 C 8.207841,94.62611 7.5251899,93.772027 7.1566886,92.562942 6.7858524,91.346195 6.8761006,90.25655 7.4274334,89.294005 7.9711106,88.33379 8.8451628,87.661779 10.049592,87.277971 c 1.213751,-0.353197 2.314035,-0.282918 3.300858,0.210836 0.99446,0.491423 1.677111,1.345506 2.047955,2.562251 m -7.2660257,2.214516 c 0.2845377,0.933597 0.8107105,1.576108 1.57852,1.927536 0.7401797,0.343107 1.5655937,0.375892 2.4762437,0.09835 0.910637,-0.277549 1.577455,-0.765132 2.000455,-1.462749 0.441276,-0.719929 0.519648,-1.546692 0.235117,-2.480291 -0.284549,-0.933603 -0.810722,-1.576114 -1.57852,-1.927535 -0.740191,-0.343114 -1.565605,-0.3759 -2.476244,-0.09836 -0.9106483,0.277543 -1.5774659,0.765125 -2.0004549,1.46275 -0.4412869,0.719922 -0.5196591,1.546684 -0.2351168,2.48029"
       inkscape:connector-curvature="0" />
    <path
       id="path3100"
       style="font-size:12px;letter-spacing:1.5px;fill:#665544;fill-opacity:1;stroke:#665544;stroke-opacity:1;stroke-width:0.74999998;stroke-miterlimit:4;stroke-dasharray:none"
       d="m 19.62571,100.73647 c 0.06149,0.1302 0.06572,0.26091 0.0127,0.39214 -0.04239,0.13503 -0.12869,0.2333 -0.258885,0.29481 -0.130215,0.0615 -0.260929,0.0657 -0.392141,0.0127 -0.127815,-0.0458 -0.222469,-0.13381 -0.283962,-0.26401 l -1.04042,-2.20264 -6.217304,2.93675 c -0.137441,0.0649 -0.277096,0.069 -0.418967,0.0121 -0.138457,-0.0496 -0.240145,-0.14315 -0.305063,-0.28058 -0.06492,-0.13744 -0.07257,-0.27539 -0.02295,-0.41384 0.04962,-0.13846 0.143146,-0.24015 0.280586,-0.30507 l 6.217303,-2.93675 -1.045545,-2.21349 c -0.06151,-0.130203 -0.06936,-0.259208 -0.02355,-0.387016 0.04579,-0.127802 0.133798,-0.222456 0.26401,-0.283962 0.130198,-0.0615 0.259203,-0.06935 0.387016,-0.02355 0.135031,0.04239 0.233302,0.128683 0.294813,0.258885 l 2.552361,5.403523"
       inkscape:connector-curvature="0" />
    <path
       id="path3102"
       style="font-size:12px;letter-spacing:1.5px;fill:#665544;fill-opacity:1;stroke:#665544;stroke-opacity:1;stroke-width:0.74999998;stroke-miterlimit:4;stroke-dasharray:none"
       d="m 17.454914,111.18584 c 0.07804,0.12101 0.09938,0.25004 0.06402,0.38709 -0.02431,0.13942 -0.09698,0.24816 -0.217985,0.32621 -0.121019,0.078 -0.250048,0.0994 -0.387088,0.064 -0.132712,-0.0286 -0.23809,-0.10347 -0.316134,-0.22448 l -2.608098,-4.04391 c -0.08238,-0.12774 -0.10806,-0.26349 -0.07703,-0.40726 0.03103,-0.14377 0.110415,-0.25684 0.238154,-0.33922 l 6.121324,-3.94792 c 0.12773,-0.0824 0.263482,-0.10806 0.407257,-0.077 0.150483,0.0267 0.26692,0.10392 0.349311,0.23165 l 2.608097,4.04391 c 0.07804,0.12101 0.09938,0.25004 0.06402,0.38708 -0.02432,0.13943 -0.09698,0.24817 -0.217985,0.32622 -0.121025,0.0781 -0.250054,0.0994 -0.387088,0.064 -0.132719,-0.0286 -0.238097,-0.10347 -0.316135,-0.22449 l -2.308913,-3.58001 -2.228687,1.43738 2.074771,3.21697 c 0.07804,0.12101 0.09938,0.25004 0.06402,0.38709 -0.02432,0.13943 -0.09698,0.24817 -0.217985,0.32622 -0.121021,0.078 -0.250051,0.0994 -0.387088,0.064 -0.132715,-0.0286 -0.238093,-0.10348 -0.316134,-0.22449 l -2.074771,-3.21697 -2.23877,1.44388 2.308914,3.58002"
       inkscape:connector-curvature="0" />
    <path
       id="path3104"
       style="font-size:12px;letter-spacing:1.5px;fill:#665544;fill-opacity:1;stroke:#665544;stroke-opacity:1;stroke-width:0.74999998;stroke-miterlimit:4;stroke-dasharray:none"
       d="m 27.89911,113.97461 -1.900422,1.84973 2.577906,2.64855 c 0.10043,0.10319 0.146865,0.22545 0.139305,0.36678 0.0037,0.14149 -0.04599,0.26245 -0.149168,0.36289 -0.103198,0.10043 -0.225459,0.14687 -0.366783,0.1393 -0.135759,-0.002 -0.253854,-0.0543 -0.354285,-0.15753 l -2.577906,-2.64856 -2.295983,2.23475 c -0.108925,0.10601 -0.239709,0.15516 -0.392352,0.14744 -0.147066,-0.002 -0.273607,-0.0574 -0.379624,-0.16636 -0.106019,-0.10893 -0.158034,-0.23692 -0.156045,-0.38398 0.002,-0.14707 0.05744,-0.27361 0.166367,-0.37963 l 5.262704,-5.12233 c 0.108917,-0.10601 0.23691,-0.15803 0.383982,-0.15604 0.15279,-0.004 0.282198,0.0491 0.388223,0.15799 l 3.255861,3.34509 c 0.100427,0.10319 0.146862,0.22545 0.139305,0.36678 0.0037,0.14149 -0.04599,0.26245 -0.149168,0.36288 -0.103201,0.10044 -0.225462,0.14688 -0.366783,0.13931 -0.135762,-0.002 -0.253857,-0.0543 -0.354285,-0.15754 l -2.870849,-2.94952"
       inkscape:connector-curvature="0" />
    <path
       id="path3106"
       style="font-size:12px;letter-spacing:1.5px;fill:#665544;fill-opacity:1;stroke:#665544;stroke-opacity:1;stroke-width:0.74999998;stroke-miterlimit:4;stroke-dasharray:none"
       d="m 36.259838,120.01098 c 1.003983,0.76791 1.565549,1.70606 1.684698,2.81443 0.109785,1.08108 -0.208995,2.13652 -0.956342,3.16631 -0.798202,0.9909 -1.733357,1.5749 -2.805469,1.75199 -1.10091,0.1752 -2.153357,-0.12115 -3.157346,-0.88906 -1.01035,-0.77278 -1.571916,-1.71092 -1.684698,-2.81443 -0.117647,-1.09716 0.201134,-2.1526 0.956342,-3.16631 0.78062,-0.99427 1.715776,-1.57827 2.805469,-1.75199 1.094543,-0.18007 2.14699,0.11629 3.157346,0.88906 m -4.61478,6.03349 c 0.77523,0.59294 1.577229,0.80852 2.406,0.64675 0.801467,-0.15244 1.491387,-0.60675 2.069762,-1.36292 0.578357,-0.75617 0.836179,-1.54097 0.773467,-2.3544 -0.06086,-0.84221 -0.478901,-1.55979 -1.254127,-2.15274 -0.775243,-0.59294 -1.577243,-0.80853 -2.406001,-0.64675 -0.80148,0.15244 -1.4914,0.60675 -2.069762,1.36292 -0.57837,0.75617 -0.836192,1.54097 -0.773467,2.3544 0.06085,0.84221 0.478889,1.55979 1.254128,2.15274"
       inkscape:connector-curvature="0" />
    <path
       id="path3108"
       style="font-size:12px;letter-spacing:1.5px;fill:#665544;fill-opacity:1;stroke:#665544;stroke-opacity:1;stroke-width:0.74999998;stroke-miterlimit:4;stroke-dasharray:none"
       d="m 43.239444,133.74656 c -0.07256,0.13356 -0.179359,0.22121 -0.320384,0.26296 -0.141037,0.0417 -0.281849,0.0244 -0.422436,-0.052 -0.1406,-0.0764 -0.233676,-0.18157 -0.27923,-0.31557 -0.03472,-0.13721 -0.01388,-0.27611 0.0625,-0.41671 l 0.171849,-0.31633 c 0.309321,-0.56941 0.473276,-1.02204 0.491865,-1.35791 0.01858,-0.33586 -0.03909,-0.64032 -0.172984,-0.91335 -0.130092,-0.28007 -0.395481,-0.52894 -0.796166,-0.74662 l -2.182713,-1.18575 -1.328964,2.44632 c -0.07256,0.13357 -0.18287,0.21931 -0.330928,0.25723 -0.141033,0.0417 -0.27833,0.0263 -0.411892,-0.0462 -0.133565,-0.0726 -0.221217,-0.17936 -0.262957,-0.32039 -0.04174,-0.14103 -0.02633,-0.27833 0.04623,-0.41189 l 3.505713,-6.45324 c 0.07255,-0.13356 0.179348,-0.22121 0.320384,-0.26296 0.144845,-0.0488 0.284051,-0.0369 0.417621,0.0357 l 2.45687,1.3347 c 0.963057,0.52318 1.57988,1.1223 1.850473,1.79733 0.246882,0.63486 0.198479,1.26863 -0.145209,1.9013 -0.221503,0.40772 -0.543711,0.72431 -0.966624,0.94977 -0.415901,0.22928 -0.899743,0.29874 -1.451527,0.20838 0.43357,0.40852 0.600533,0.97264 0.500887,1.69237 -0.07006,0.48088 -0.233017,0.95682 -0.488873,1.42781 l -0.263502,0.48505 m -1.04651,-4.91125 c 0.590486,0.32079 1.127999,0.46257 1.612542,0.42535 0.491558,-0.0334 0.859543,-0.27505 1.103959,-0.72495 0.229123,-0.42177 0.260378,-0.81449 0.09377,-1.17813 -0.207592,-0.42231 -0.676926,-0.83205 -1.408004,-1.22922 l -1.855834,-1.00818 -1.454986,2.67831 1.908557,1.03682"
       inkscape:connector-curvature="0" />
    <path
       id="path3110"
       style="font-size:12px;letter-spacing:1.5px;fill:#665544;fill-opacity:1;stroke:#665544;stroke-opacity:1;stroke-width:0.74999998;stroke-miterlimit:4;stroke-dasharray:none"
       d="m 59.342697,130.97212 c 0.146319,0.0411 0.254389,0.12968 0.324211,0.26564 0.07967,0.13043 0.09894,0.26881 0.05782,0.41514 l -1.938646,6.8967 c -0.05846,0.20794 -0.185267,0.36343 -0.380422,0.46646 -0.187469,0.10519 -0.38517,0.12857 -0.593103,0.0701 l -0.138628,-0.039 c -0.254157,-0.0714 -0.429021,-0.23278 -0.524593,-0.48402 l -2.65548,-7.71443 -1.756797,6.24978 c -0.04113,0.14633 -0.129683,0.2544 -0.265645,0.32421 -0.128265,0.072 -0.265561,0.0874 -0.411888,0.0463 -0.14633,-0.0411 -0.255483,-0.12583 -0.327458,-0.25409 -0.07198,-0.12826 -0.0874,-0.26556 -0.04626,-0.41189 l 1.938646,-6.8967 c 0.05845,-0.20794 0.181405,-0.3645 0.36887,-0.46971 0.189622,-0.11289 0.388406,-0.14011 0.596351,-0.0817 l 0.150179,0.0422 c 0.238742,0.0671 0.418061,0.24217 0.537956,0.52517 l 2.642117,7.67328 1.75355,-6.23823 c 0.04112,-0.14632 0.125821,-0.25547 0.254093,-0.32746 0.130419,-0.0797 0.268797,-0.0989 0.415135,-0.0578"
       inkscape:connector-curvature="0" />
    <path
       id="path3112"
       style="font-size:12px;letter-spacing:1.5px;fill:#665544;fill-opacity:1;stroke:#665544;stroke-opacity:1;stroke-width:0.74999998;stroke-miterlimit:4;stroke-dasharray:none"
       d="m 66.800336,139.57948 c 0.142884,0.0178 0.255514,0.0843 0.337893,0.19941 0.09129,0.10815 0.128022,0.23367 0.110183,0.37656 -0.01785,0.14289 -0.08432,0.25552 -0.199411,0.33789 -0.107164,0.0834 -0.232187,0.11612 -0.375071,0.0983 l -4.774905,-0.59634 c -0.15083,-0.0188 -0.271399,-0.0863 -0.361707,-0.20239 -0.09031,-0.11609 -0.126048,-0.24954 -0.10721,-0.40037 l 0.902689,-7.22785 c 0.01884,-0.15082 0.0863,-0.27139 0.202386,-0.36171 0.117076,-0.0982 0.251029,-0.13794 0.40186,-0.11912 l 4.774905,0.59634 c 0.142882,0.0179 0.255513,0.0843 0.337892,0.19942 0.09129,0.10815 0.128021,0.23367 0.110184,0.37655 -0.01785,0.1429 -0.08432,0.25553 -0.199412,0.3379 -0.107164,0.0834 -0.232188,0.11612 -0.37507,0.0983 l -4.227161,-0.52793 -0.328656,2.63156 3.798491,0.47439 c 0.142883,0.0179 0.255514,0.0843 0.337892,0.19941 0.09129,0.10815 0.128022,0.23367 0.110184,0.37656 -0.01785,0.14289 -0.08432,0.25552 -0.199412,0.33789 -0.107164,0.0834 -0.232187,0.11613 -0.37507,0.0983 l -3.798491,-0.4744 -0.330143,2.64347 4.22716,0.52793"
       inkscape:connector-curvature="0" />
    <path
       id="path3114"
       style="font-size:12px;letter-spacing:1.5px;fill:#665544;fill-opacity:1;stroke:#665544;stroke-opacity:1;stroke-width:0.74999998;stroke-miterlimit:4;stroke-dasharray:none"
       d="m 75.905092,132.38282 c 0.143989,-0.001 0.264382,0.05 0.361181,0.15324 0.104724,0.0952 0.157639,0.21481 0.158746,0.3588 0.0011,0.144 -0.04999,0.2644 -0.153244,0.36118 -0.09527,0.0967 -0.2149,0.14565 -0.358889,0.14675 l -2.435929,0.0186 0.05254,6.8758 c 0.0012,0.152 -0.05386,0.28042 -0.165061,0.38527 -0.103206,0.1048 -0.230805,0.15777 -0.382796,0.15893 -0.151999,0.001 -0.280393,-0.0499 -0.385181,-0.15306 -0.104795,-0.1032 -0.157771,-0.2308 -0.15893,-0.38279 l -0.05254,-6.8758 -2.447929,0.0187 c -0.143996,0.001 -0.264359,-0.046 -0.36109,-0.14124 -0.09673,-0.0953 -0.145646,-0.21489 -0.146746,-0.35889 -0.0011,-0.14399 0.04598,-0.26435 0.141245,-0.36109 0.0952,-0.10472 0.214801,-0.15764 0.358797,-0.15875 l 5.975826,-0.0457"
       inkscape:connector-curvature="0" />
    <path
       id="path3116"
       style="font-size:12px;letter-spacing:1.5px;fill:#665544;fill-opacity:1;stroke:#665544;stroke-opacity:1;stroke-width:0.74999998;stroke-miterlimit:4;stroke-dasharray:none"
       d="m 88.663406,130.2244 c 0.148349,-0.0331 0.28547,-0.006 0.411361,0.0804 0.131946,0.0771 0.214465,0.18988 0.247557,0.33823 l 1.559386,6.99222 c 0.04701,0.21083 0.009,0.40783 -0.114092,0.59101 -0.115277,0.18144 -0.278323,0.29567 -0.489136,0.34269 l -0.140547,0.0313 c -0.257677,0.0575 -0.488102,-0.002 -0.691275,-0.17779 l -5.992777,-5.5363 1.413112,6.33633 c 0.03308,0.14836 0.0063,0.28548 -0.08039,0.41137 -0.07887,0.12414 -0.192483,0.20275 -0.340836,0.23584 -0.148357,0.0331 -0.284607,0.0102 -0.408749,-0.0687 -0.124145,-0.0789 -0.20276,-0.19248 -0.235845,-0.34084 l -1.559386,-6.99223 c -0.04702,-0.21081 -0.01289,-0.40694 0.10238,-0.58839 0.113528,-0.18924 0.275703,-0.30737 0.486523,-0.3544 l 0.15226,-0.034 c 0.242053,-0.054 0.482898,0.0153 0.722536,0.2077 l 5.961516,5.50639 -1.4105,-6.32463 c -0.03309,-0.14834 -0.0102,-0.28459 0.06867,-0.40874 0.07712,-0.13195 0.189863,-0.21447 0.338224,-0.24756"
       inkscape:connector-curvature="0" />
    <path
       id="path3118"
       style="font-size:12px;letter-spacing:1.5px;fill:#665544;fill-opacity:1;stroke:#665544;stroke-opacity:1;stroke-width:0.74999998;stroke-miterlimit:4;stroke-dasharray:none"
       d="m 99.310178,134.27656 c 0.134309,-0.0519 0.264986,-0.0467 0.392031,0.0157 0.131611,0.0521 0.223378,0.14523 0.275301,0.27955 0.05191,0.13431 0.04667,0.26499 -0.01572,0.39203 -0.05494,0.12415 -0.149563,0.21219 -0.283872,0.2641 l -4.488377,1.73489 c -0.141779,0.0548 -0.279918,0.0524 -0.414418,-0.007 -0.134502,-0.0595 -0.229153,-0.16015 -0.283953,-0.30193 l -2.626119,-6.79413 c -0.0548,-0.14177 -0.05244,-0.2799 0.0071,-0.41441 0.05663,-0.14196 0.15583,-0.24034 0.297606,-0.29515 l 4.488377,-1.73488 c 0.134312,-0.0519 0.264989,-0.0467 0.392032,0.0157 0.131613,0.0521 0.223379,0.14524 0.2753,0.27954 0.05191,0.13433 0.04667,0.265 -0.01572,0.39203 -0.05494,0.12417 -0.14956,0.2122 -0.283872,0.26411 l -3.973501,1.53587 0.956132,2.47364 3.570554,-1.38012 c 0.134312,-0.0519 0.264989,-0.0467 0.392032,0.0157 0.131612,0.0521 0.223379,0.14524 0.2753,0.27955 0.05191,0.13432 0.04667,0.265 -0.01572,0.39203 -0.05494,0.12416 -0.149561,0.21219 -0.283873,0.26411 l -3.570554,1.38011 0.960459,2.48484 3.973501,-1.53587"
       inkscape:connector-curvature="0" />
    <path
       id="path3120"
       style="font-size:12px;letter-spacing:1.5px;fill:#665544;fill-opacity:1;stroke:#665544;stroke-opacity:1;stroke-width:0.74999998;stroke-miterlimit:4;stroke-dasharray:none"
       d="m 104.4635,123.20835 c 0.13231,-0.0748 0.2713,-0.0891 0.41696,-0.0427 0.14867,0.0354 0.26042,0.11928 0.33524,0.25158 l 2.33293,4.12614 c 0.5158,0.91228 0.59405,1.81463 0.23475,2.70704 -0.30421,0.77855 -0.8463,1.38833 -1.62625,1.82932 -0.7939,0.44887 -1.59933,0.60099 -2.41632,0.45636 -0.94295,-0.15611 -1.67233,-0.69031 -2.18814,-1.60258 l -2.332933,-4.12614 c -0.07481,-0.13231 -0.09254,-0.26933 -0.0532,-0.41105 0.03541,-0.14868 0.119271,-0.26042 0.251583,-0.33524 0.132318,-0.0748 0.271303,-0.0891 0.416956,-0.0428 0.148684,0.0354 0.260434,0.11928 0.335244,0.25159 l 2.35065,4.15747 c 0.35043,0.6198 0.83845,0.98718 1.46406,1.10216 0.5711,0.0998 1.13173,-0.006 1.68188,-0.31682 0.55015,-0.31106 0.92966,-0.73701 1.13852,-1.27785 0.22399,-0.59534 0.16077,-1.20291 -0.18966,-1.8227 l -2.35065,-4.15748 c -0.0748,-0.1323 -0.0926,-0.26932 -0.0532,-0.41105 0.0354,-0.14867 0.11926,-0.26042 0.25158,-0.33524"
       inkscape:connector-curvature="0" />
    <path
       id="path3122"
       style="font-size:12px;letter-spacing:1.5px;fill:#665544;fill-opacity:1;stroke:#665544;stroke-opacity:1;stroke-width:0.74999998;stroke-miterlimit:4;stroke-dasharray:none"
       d="m 111.42609,118.15583 c 0.11401,-0.088 0.24078,-0.12011 0.38031,-0.0964 0.14099,0.0125 0.25547,0.0757 0.34344,0.18969 0.088,0.11402 0.12013,0.24079 0.0964,0.38031 -0.0173,0.13466 -0.083,0.24598 -0.19703,0.33394 l -1.92852,1.48826 4.20084,5.44356 c 0.0929,0.12034 0.12672,0.25588 0.1016,0.40664 -0.0188,0.14588 -0.0884,0.26524 -0.2087,0.3581 -0.12034,0.0929 -0.25344,0.1299 -0.39931,0.1111 -0.14587,-0.0188 -0.26524,-0.0884 -0.3581,-0.20869 l -4.20084,-5.44356 -1.93802,1.49558 c -0.114,0.088 -0.23832,0.12329 -0.37298,0.10594 -0.13464,-0.0173 -0.24596,-0.083 -0.33394,-0.19703 -0.088,-0.11399 -0.12328,-0.23832 -0.10594,-0.37298 0.0125,-0.14098 0.0757,-0.25546 0.1897,-0.34344 l 4.73105,-3.65099"
       inkscape:connector-curvature="0" />
    <path
       id="path3124"
       style="font-size:12px;letter-spacing:1.5px;fill:#665544;fill-opacity:1;stroke:#665544;stroke-opacity:1;stroke-width:0.74999998;stroke-miterlimit:4;stroke-dasharray:none"
       d="m 123.2885,117.56587 c 0.10852,0.10644 0.1635,0.23318 0.16494,0.38025 0.001,0.14708 -0.0539,0.27773 -0.16589,0.39196 -0.11203,0.11424 -0.23872,0.17488 -0.38008,0.18191 -0.14147,-0.004 -0.26932,-0.0624 -0.38356,-0.17445 l -0.25703,-0.25206 c -0.46266,-0.4537 -0.85293,-0.73558 -1.1708,-0.84562 -0.31787,-0.11003 -0.62646,-0.13813 -0.92576,-0.0843 -0.30502,0.0482 -0.61716,0.23515 -0.93644,0.56072 l -1.73921,1.77352 1.98772,1.94927 c 0.10852,0.10642 0.1607,0.23603 0.15654,0.38881 0.001,0.14707 -0.0511,0.27487 -0.15749,0.38339 -0.10642,0.10853 -0.23317,0.16351 -0.38024,0.16494 -0.14707,0.001 -0.27487,-0.051 -0.38339,-0.15748 l -5.24347,-5.14203 c -0.10852,-0.10641 -0.1635,-0.23316 -0.16494,-0.38024 -0.007,-0.15267 0.0425,-0.28326 0.14892,-0.3918 l 1.95766,-1.99628 c 0.76739,-0.78251 1.51277,-1.21125 2.23615,-1.28621 0.67823,-0.0632 1.27439,0.15728 1.78845,0.66139 0.33129,0.32488 0.5473,0.7216 0.64805,1.19015 0.10635,0.46285 0.0404,0.94718 -0.19795,1.45298 0.51182,-0.30481 1.1001,-0.31056 1.76486,-0.0172 0.44319,0.19933 0.85614,0.48664 1.23884,0.86192 l 0.39412,0.38649 m -5.00989,-0.3414 c 0.47051,-0.47979 0.75435,-0.95776 0.85153,-1.43392 0.10278,-0.48185 -0.0286,-0.90202 -0.39417,-1.26051 -0.34271,-0.33607 -0.71177,-0.4739 -1.10717,-0.41347 -0.46307,0.0837 -0.98587,0.4226 -1.56841,1.01663 l -1.47876,1.50792 2.17621,2.13411 1.52077,-1.55076"
       inkscape:connector-curvature="0" />
    <path
       id="path3126"
       style="font-size:12px;letter-spacing:1.5px;fill:#665544;fill-opacity:1;stroke:#665544;stroke-opacity:1;stroke-width:0.74999998;stroke-miterlimit:4;stroke-dasharray:none"
       d="m 129.34601,109.23751 c 0.10112,0.0243 0.19692,0.0695 0.28739,0.13548 0.084,0.0613 0.1397,0.16141 0.16711,0.30026 0.0274,0.13886 -0.0202,0.29229 -0.14284,0.46029 -0.12264,0.16801 -0.30272,0.22475 -0.54024,0.17023 l -1.97191,-0.47366 -2.40544,3.29549 1.05218,1.7337 c 0.12433,0.2096 0.12518,0.39841 0.003,0.56641 -0.12263,0.16801 -0.25424,0.26012 -0.39484,0.27635 -0.14061,0.0162 -0.25291,-0.006 -0.33691,-0.0676 -0.0905,-0.066 -0.16268,-0.1435 -0.21663,-0.2324 l -4.03088,-6.73067 c -0.18003,-0.30968 -0.17571,-0.59376 0.0129,-0.85224 l 0.0708,-0.0969 c 0.18867,-0.25846 0.45791,-0.34917 0.80774,-0.27211 l 7.63903,1.78743 m -3.2526,0.34463 -4.1052,-0.99081 2.195,3.60782 1.9102,-2.61701"
       inkscape:connector-curvature="0" />
    <path
       id="path3128"
       style="font-size:12px;letter-spacing:1.5px;fill:#665544;fill-opacity:1;stroke:#665544;stroke-opacity:1;stroke-width:0.74999998;stroke-miterlimit:4;stroke-dasharray:none"
       d="m 132.89552,102.11373 c 0.0725,-0.13359 0.18274,-0.2194 0.33078,-0.25741 0.14482,-0.0488 0.28403,-0.037 0.41764,0.0354 0.1336,0.0725 0.21941,0.18275 0.25741,0.33078 0.0418,0.14102 0.0265,0.27832 -0.046,0.41192 l -2.03145,3.74444 c -0.0992,0.18283 -0.24831,0.30671 -0.44737,0.37164 -0.20227,0.0541 -0.39482,0.0315 -0.57765,-0.0677 l -6.26534,-3.3991 c -0.1336,-0.0725 -0.22131,-0.17922 -0.26313,-0.32023 -0.0489,-0.14482 -0.037,-0.28404 0.0354,-0.41764 0.0725,-0.1336 0.18276,-0.21941 0.33079,-0.25742 0.14483,-0.0488 0.28404,-0.037 0.41764,0.0354 l 5.97,3.23888 1.87123,-3.44911"
       inkscape:connector-curvature="0" />
    <path
       id="path3130"
       style="font-size:12px;letter-spacing:1.5px;fill:#665544;fill-opacity:1;stroke:#665544;stroke-opacity:1;stroke-width:0.74999998;stroke-miterlimit:4;stroke-dasharray:none"
       d="m 127.67054,95.747587 c 0.0591,-0.140037 0.16047,-0.236194 0.30408,-0.288472 0.13937,-0.06275 0.27907,-0.06458 0.41911,-0.0055 l 6.82149,2.878629 c 0.14004,0.0591 0.2362,0.160459 0.28847,0.30408 0.0554,0.136254 0.0535,0.274401 -0.006,0.41444 -0.0591,0.140043 -0.15677,0.237755 -0.29302,0.293137 -0.13626,0.05539 -0.2744,0.05353 -0.41445,-0.0056 l -6.82148,-2.87863 c -0.14004,-0.05909 -0.23775,-0.156767 -0.29314,-0.293023 -0.0627,-0.139358 -0.0646,-0.27906 -0.005,-0.419106"
       inkscape:connector-curvature="0" />
    <path
       id="path3132"
       style="font-size:12px;letter-spacing:1.5px;fill:#665544;fill-opacity:1;stroke:#665544;stroke-opacity:1;stroke-width:0.74999998;stroke-miterlimit:4;stroke-dasharray:none"
       d="m 130.65318,87.264516 c 0.042,-0.137724 0.12678,-0.237327 0.25426,-0.298811 0.12218,-0.07145 0.25213,-0.08617 0.38985,-0.04416 0.13774,0.04203 0.23735,0.126782 0.29882,0.25426 0.0638,0.119844 0.0747,0.248627 0.0327,0.386352 l -0.71083,2.329982 6.57675,2.006431 c 0.14538,0.04436 0.25147,0.135272 0.31826,0.272741 0.0691,0.129825 0.0815,0.267428 0.0372,0.412809 -0.0444,0.145388 -0.13144,0.252643 -0.26126,0.321767 -0.12982,0.06913 -0.26743,0.08151 -0.41281,0.03716 l -6.57675,-2.006431 -0.71433,2.341459 c -0.042,0.137736 -0.12294,0.238507 -0.24278,0.302313 -0.11983,0.06381 -0.24861,0.07471 -0.38635,0.03268 -0.13773,-0.04202 -0.2385,-0.122944 -0.30232,-0.242781 -0.0714,-0.122167 -0.0862,-0.252118 -0.0442,-0.389854 l 1.74381,-5.715917"
       inkscape:connector-curvature="0" />
    <path
       id="path3134"
       style="font-size:12px;letter-spacing:1.5px;fill:#665544;fill-opacity:1;stroke:#665544;stroke-opacity:1;stroke-width:0.74999998;stroke-miterlimit:4;stroke-dasharray:none"
       d="m 132.28875,79.485543 c -0.16268,-0.147599 -0.2301,-0.308293 -0.20225,-0.482083 0.0291,-0.181673 0.10263,-0.311679 0.2205,-0.390019 0.11789,-0.07832 0.24397,-0.106727 0.37825,-0.08521 0.1343,0.02153 0.24772,0.07212 0.34027,0.151763 l 3.51356,3.479902 3.02144,0.484269 c 0.15008,0.02406 0.26824,0.09566 0.35447,0.214805 0.0862,0.119153 0.11732,0.253769 0.0933,0.403849 -0.0241,0.150088 -0.0963,0.272195 -0.2167,0.366322 -0.11915,0.08623 -0.25377,0.117321 -0.40385,0.09326 l -3.02144,-0.484269 -4.42322,2.19566 c -0.11281,0.04674 -0.23636,0.05934 -0.37066,0.03782 -0.13427,-0.02152 -0.24517,-0.08791 -0.33267,-0.199158 -0.0875,-0.111247 -0.11731,-0.253763 -0.0895,-0.427547 0.0291,-0.181679 0.14403,-0.317203 0.34469,-0.406574 l 3.99894,-1.899069 -3.20512,-3.053719"
       inkscape:connector-curvature="0" />
  </g>
  <circle
     r="56.249729"
     cy="72.535912"
     cx="72.535919"
     id="circle5185"
     style="opacity:1;fill:#ffffff;fill-opacity:1;stroke:none;stroke-width:7.5;stroke-linecap:round;stroke-linejoin:round;stroke-miterlimit:4;stroke-dasharray:none;stroke-dashoffset:0;stroke-opacity:1" />
  <path
     inkscape:connector-curvature="0"
     id="path5189"
     d="m 72.536214,22.939453 -1.69848,27.16576 a 22.499889,22.499889 0 0 1 1.69793,-0.0692 22.499889,22.499889 0 0 1 1.69957,0.0851 l -1.69902,-27.181698 z m -12.83692,1.68969 5.39536,26.69939 a 22.499889,22.499889 0 0 1 3.27885,-0.88934 l -8.67421,-25.81005 z m 25.67328,0 -8.67368,25.80896 a 22.499889,22.499889 0 0 1 3.27831,0.89154 l 5.39537,-26.7005 z m -37.63514,4.954811 12.12061,24.391179 a 22.499889,22.499889 0 0 1 2.94103,-1.70123 L 47.737434,29.583954 Z m 49.59699,0 -15.06657,22.696549 a 22.499889,22.499889 0 0 1 2.9553,1.67485 l 12.11127,-24.371399 z m -59.8686,7.882098 18.012,20.413601 a 22.499889,22.499889 0 0 1 2.41423,-2.39062 L 37.465824,37.466052 Z m 70.140226,0 -20.413606,18.011451 a 22.499889,22.499889 0 0 1 2.39061,2.41478 L 107.60605,37.466052 Z m -78.021786,10.271621 22.69655,15.06603 a 22.499889,22.499889 0 0 1 1.67486,-2.95531 l -24.37141,-12.11072 z m 85.903336,0 -24.391176,12.12061 a 22.499889,22.499889 0 0 1 1.70122,2.94102 L 115.4876,47.737673 Z m -90.858146,11.96186 25.80841,8.67311 a 22.499889,22.499889 0 0 1 0.89209,-3.27775 l -26.7005,-5.39536 z m 95.812946,0 -26.699376,5.3948 a 22.499889,22.499889 0 0 1 0.88987,3.27886 l 25.809506,-8.67366 z m -70.321486,11.13788 -27.1817,1.69848 27.16577,1.69793 a 22.499889,22.499889 0 0 1 -0.0692,-1.69793 22.499889,22.499889 0 0 1 0.0851,-1.69848 z m 44.84597,3.8e-4 a 22.499889,22.499889 0 0 1 0.0687,1.69792 22.499889,22.499889 0 0 1 -0.0846,1.69848 l 27.181696,-1.69848 -27.165766,-1.69792 z m -44.52792,5.86062 -25.80951,8.67367 26.6994,-5.39482 a 22.499889,22.499889 0 0 1 -0.88989,-3.27885 z m 44.19449,3.7e-4 a 22.499889,22.499889 0 0 1 -0.89154,3.27776 l 26.700486,5.39536 -25.808946,-8.67312 z m -1.84241,5.56894 a 22.499889,22.499889 0 0 1 -1.67485,2.95531 L 115.4876,97.333763 92.791044,82.267723 Z m -40.51683,0.005 -22.68995,15.06163 24.39119,-12.12062 a 22.499889,22.499889 0 0 1 -1.70124,-2.94102 z m 3.21459,4.90702 -18.02298,20.426237 20.4136,-18.011447 a 22.499889,22.499889 0 0 1 -2.39062,-2.41479 z m 34.10523,0.0126 a 22.499889,22.499889 0 0 1 -2.41422,2.39061 L 107.60605,107.60593 89.594034,87.192333 Z m -4.38021,3.90451 a 22.499889,22.499889 0 0 1 -2.94103,1.70122 l 15.06163,22.689957 -12.1206,-24.391177 z m -25.36512,0.0198 -12.11127,24.371397 15.06658,-22.696547 a 22.499889,22.499889 0 0 1 -2.95531,-1.67485 z m 5.24595,2.62572 -5.39536,26.700497 8.67366,-25.808957 a 22.499889,22.499889 0 0 1 -3.2783,-0.89154 z m 14.88255,7.5e-4 a 22.499889,22.499889 0 0 1 -3.27885,0.88934 l 8.67422,25.810057 -5.39537,-26.699397 z m -9.14002,1.2074 1.69903,27.181687 1.69791,-27.166307 a 22.499889,22.499889 0 0 1 -1.69846,0.0697 22.499889,22.499889 0 0 1 -1.69848,-0.0851 z"
     style="opacity:1;fill:#ccaa99;fill-opacity:1" />
  <path
     inkscape:connector-curvature="0"
     id="path5199"
     d="m 72.535404,52.848453 c -10.83857,0 -19.68687,8.81085 -19.68687,19.68779 0,10.87751 8.84916,19.68703 19.68687,19.68703 10.83857,0 19.68794,-8.8101 19.68794,-19.68703 0,-10.8775 -8.85023,-19.68779 -19.68794,-19.68779 z m 3.93816,3.14493 c 3.68547,0.86353 6.90246,2.91265 9.2291,5.7202 l -4.86891,0 c -1.09142,-2.16746 -2.54234,-4.12426 -4.36019,-5.7202 z m -8.65116,0.20053 c -1.63503,1.55272 -2.92046,3.43798 -3.87962,5.51967 l -4.57429,0 c 2.16187,-2.6091 5.0925,-4.56328 8.45391,-5.51967 z m 5.70779,0.87757 c 1.74195,1.22184 3.1741,2.81206 4.28661,4.6421 l -4.28661,0 0,-4.6421 z m -2.62349,0.0188 0,4.62332 -3.99822,0 c 1.01829,-1.83308 2.34732,-3.42011 3.99822,-4.62332 z m -13.36455,7.31499 5.3696,0 c -0.67394,2.1575 -1.05281,4.44301 -1.15803,6.72919 l -6.22385,0 c 0.19787,-2.422 0.90331,-4.70068 2.01228,-6.72919 z m 8.14939,0 5.21516,0 0,6.72919 -6.52545,0 c 0.11876,-2.3332 0.55119,-4.62734 1.31029,-6.72919 z m 7.83865,0 5.62984,0 c 0.84933,2.10387 1.3514,4.39685 1.5006,6.72919 l -7.13044,0 0,-6.72919 z m 8.44036,0 5.5592,0 c 1.10899,2.02843 1.81438,4.30724 2.01226,6.72919 l -6.25167,0 c -0.1314,-2.29362 -0.57138,-4.57645 -1.31979,-6.72919 z m -26.45019,9.42088 6.23592,0 c 0.10154,2.2017 0.4463,4.38705 1.0314,6.44079 l -5.45782,0 c -1.00318,-1.95777 -1.63642,-4.13548 -1.8095,-6.44079 z m 8.86199,0 6.52435,0 0,6.44079 -5.33667,0 c -0.66189,-1.99232 -1.0709,-4.18558 -1.18768,-6.44079 z m 9.14784,0 7.14691,0 c -0.11733,2.23667 -0.56058,4.42688 -1.32165,6.44079 l -5.82526,0 0,-6.44079 z m 9.77187,0 6.24948,0 c -0.17312,2.30539 -0.80652,4.48291 -1.80989,6.44079 l -5.60091,0 c 0.672,-2.06249 1.0575,-4.24489 1.16132,-6.44079 z m -24.25382,9.13248 4.6797,0 c 0.96242,2.29121 2.26903,4.31425 3.91731,5.86663 -3.45552,-1.02389 -6.4452,-3.10504 -8.59701,-5.86663 z m 7.63406,0 4.2244,0 0,5.02548 c -1.70485,-1.10907 -3.13665,-2.86928 -4.2244,-5.02548 z m 6.84789,0 4.55196,0 c -1.14722,1.97391 -2.6676,3.66566 -4.55196,4.91096 l 0,-4.91096 z m 7.53487,0 4.95858,0 c -2.37423,3.04685 -5.76838,5.26613 -9.68293,6.15016 2.01235,-1.66304 3.58461,-3.77955 4.72435,-6.15016 z"
     style="color:#000000;font-style:normal;font-variant:normal;font-weight:normal;font-stretch:normal;font-size:medium;line-height:normal;font-family:sans-serif;text-indent:0;text-align:start;text-decoration:none;text-decoration-line:none;text-decoration-style:solid;text-decoration-color:#000000;letter-spacing:normal;word-spacing:normal;text-transform:none;direction:ltr;block-progression:tb;writing-mode:lr-tb;baseline-shift:baseline;text-anchor:start;white-space:normal;clip-rule:nonzero;display:inline;overflow:visible;visibility:visible;opacity:1;isolation:auto;mix-blend-mode:normal;color-interpolation:sRGB;color-interpolation-filters:linearRGB;solid-color:#000000;solid-opacity:1;fill:#665544;fill-opacity:1;fill-rule:nonzero;stroke:none;stroke-width:5.24998093;stroke-linecap:round;stroke-linejoin:miter;stroke-miterlimit:4;stroke-dasharray:none;stroke-dashoffset:0;stroke-opacity:1;color-rendering:auto;image-rendering:auto;shape-rendering:auto;text-rendering:auto;enable-background:accumulate" />
  <path
     style="opacity:1;fill:#ccaa99;fill-opacity:1"
     d="M 72.536204,16.286184 A 56.249728,56.249728 0 0 0 16.285924,72.535913 56.249728,56.249728 0 0 0 72.536204,128.78564 56.249728,56.249728 0 0 0 128.78591,72.535913 56.249728,56.249728 0 0 0 72.536204,16.286184 Z m 0,6.65274 a 49.596539,49.596539 0 0 1 3.46122,0.173029 3.0241789,3.0241789 0 0 0 2.61747,3.250289 3.0241789,3.0241789 0 0 0 3.37335,-2.494979 49.596539,49.596539 0 0 1 6.68295,1.826471 3.0241789,3.0241789 0 0 0 1.68748,3.81498 3.0241789,3.0241789 0 0 0 3.88529,-1.497983 49.596539,49.596539 0 0 1 6.023226,3.42333 3.0241789,3.0241789 0 0 0 0.62019,4.153361 3.0241789,3.0241789 0 0 0 4.15995,-0.46362 49.596539,49.596539 0 0 1 4.8768,4.918011 3.0241789,3.0241789 0 0 0 -0.44,4.14237 3.0241789,3.0241789 0 0 0 4.1292,0.63556 49.596539,49.596539 0 0 1 3.47112,5.99521 3.0241789,3.0241789 0 0 0 -1.52104,3.89847 3.0241789,3.0241789 0 0 0 3.80892,1.68749 49.596539,49.596539 0 0 1 1.80944,6.68516 3.0241789,3.0241789 0 0 0 -2.47189,3.37113 3.0241789,3.0241789 0 0 0 3.30025,2.61089 49.596539,49.596539 0 0 1 0.12251,3.46782 49.596539,49.596539 0 0 1 -0.17305,3.46178 3.0241789,3.0241789 0 0 0 -3.24971,2.61693 3.0241789,3.0241789 0 0 0 2.49498,3.37333 49.596539,49.596539 0 0 1 -1.82649,6.68296 3.0241789,3.0241789 0 0 0 -3.81496,1.68749 3.0241789,3.0241789 0 0 0 1.49795,3.88529 49.596539,49.596539 0 0 1 -3.42386,6.023227 3.0241789,3.0241789 0 0 0 -4.15337,0.62017 3.0241789,3.0241789 0 0 0 0.46362,4.1605 49.596539,49.596539 0 0 1 -4.91746,4.87681 3.0241789,3.0241789 0 0 0 -4.14291,-0.44 3.0241789,3.0241789 0 0 0 -0.63501,4.12865 49.596539,49.596539 0 0 1 -5.995206,3.47111 3.0241789,3.0241789 0 0 0 -3.89904,-1.52105 3.0241789,3.0241789 0 0 0 -1.68693,3.80894 49.596539,49.596539 0 0 1 -6.68516,1.80999 3.0241789,3.0241789 0 0 0 -3.37114,-2.47246 3.0241789,3.0241789 0 0 0 -2.61143,3.30028 49.596539,49.596539 0 0 1 -3.46726,0.12304 49.596539,49.596539 0 0 1 -3.46179,-0.17303 3.0241789,3.0241789 0 0 0 -2.61747,-3.25029 3.0241789,3.0241789 0 0 0 -3.37335,2.49498 49.596539,49.596539 0 0 1 -6.68295,-1.82647 3.0241789,3.0241789 0 0 0 -1.68693,-3.81498 3.0241789,3.0241789 0 0 0 -3.88584,1.49798 49.596539,49.596539 0 0 1 -6.02323,-3.42388 3.0241789,3.0241789 0 0 0 -0.62018,-4.15281 3.0241789,3.0241789 0 0 0 -4.15995,0.46363 49.596539,49.596539 0 0 1 -4.8768,-4.91801 3.0241789,3.0241789 0 0 0 0.44,-4.14293 3.0241789,3.0241789 0 0 0 -4.1292,-0.635 49.596539,49.596539 0 0 1 -3.47111,-5.995207 3.0241789,3.0241789 0 0 0 1.52103,-3.89848 3.0241789,3.0241789 0 0 0 -3.80893,-1.68749 49.596539,49.596539 0 0 1 -1.80944,-6.68516 3.0241789,3.0241789 0 0 0 2.47191,-3.37113 3.0241789,3.0241789 0 0 0 -3.30027,-2.61089 49.596539,49.596539 0 0 1 -0.1225,-3.46782 49.596539,49.596539 0 0 1 0.17303,-3.46177 3.0241789,3.0241789 0 0 0 3.24974,-2.61694 3.0241789,3.0241789 0 0 0 -2.49498,-3.37333 49.596539,49.596539 0 0 1 1.82648,-6.68296 3.0241789,3.0241789 0 0 0 3.81496,-1.68749 3.0241789,3.0241789 0 0 0 -1.49796,-3.88529 49.596539,49.596539 0 0 1 3.42387,-6.02322 3.0241789,3.0241789 0 0 0 4.15337,-0.62073 3.0241789,3.0241789 0 0 0 -0.46364,-4.15995 49.596539,49.596539 0 0 1 4.91747,-4.87681 3.0241789,3.0241789 0 0 0 4.14292,0.439999 3.0241789,3.0241789 0 0 0 0.63501,-4.128641 49.596539,49.596539 0 0 1 5.9952,-3.47112 3.0241789,3.0241789 0 0 0 3.89904,1.521053 3.0241789,3.0241789 0 0 0 1.68693,-3.808943 49.596539,49.596539 0 0 1 6.68516,-1.80999 3.0241789,3.0241789 0 0 0 3.37114,2.472461 3.0241789,3.0241789 0 0 0 2.61144,-3.300821 49.596539,49.596539 0 0 1 3.46782,-0.122497 z"
     id="path4990"
     inkscape:connector-curvature="0" />
</svg>
